STARTFONT 2.1
COMMENT
COMMENT Converted from OpenType font "ChivoMono-Bold.ttf" by "otf2bdf 3.0".
COMMENT
FONT -FreeType-chivo mono-Bold-R-Normal--25-180-100-100-P-127-ISO10646-1
SIZE 18 100 100
FONTBOUNDINGBOX 20 37 -2 -9
STARTPROPERTIES 19
FOUNDRY "FreeType"
FAMILY_NAME "chivo mono"
WEIGHT_NAME "Bold"
SLANT "R"
SETWIDTH_NAME "Normal"
ADD_STYLE_NAME ""
PIXEL_SIZE 25
POINT_SIZE 180
RESOLUTION_X 100
RESOLUTION_Y 100
SPACING "P"
AVERAGE_WIDTH 127
CHARSET_REGISTRY "ISO10646"
CHARSET_ENCODING "1"
FONT_ASCENT 23
FONT_DESCENT 6
COPYRIGHT "Copyright 2018 The Chivo Project Authors (https://github.com/Omnibus-Type/Chivo)"
_OTF_FONTFILE "ChivoMono-Bold.ttf"
_OTF_PSNAME "ChivoMono-Bold"
ENDPROPERTIES
CHARS 642
STARTCHAR 000D
ENCODING 13
SWIDTH 600 0
DWIDTH 15 0
BBX 0 0 0 0
BITMAP
ENDCHAR
STARTCHAR 0020
ENCODING 32
SWIDTH 600 0
DWIDTH 15 0
BBX 0 0 0 0
BITMAP
ENDCHAR
STARTCHAR 0021
ENCODING 33
SWIDTH 600 0
DWIDTH 15 0
BBX 5 17 5 0
BITMAP
F8
F8
F8
F8
70
70
70
70
70
70
70
70
00
F8
F8
F8
F8
ENDCHAR
STARTCHAR 0022
ENCODING 34
SWIDTH 600 0
DWIDTH 15 0
BBX 7 7 4 10
BITMAP
EE
EE
EE
EE
C6
C6
C6
ENDCHAR
STARTCHAR 0023
ENCODING 35
SWIDTH 600 0
DWIDTH 15 0
BBX 15 17 0 0
BITMAP
071C
0718
0618
0638
0E38
7FFE
7FFE
0C70
0C70
1C70
FFFC
FFFC
FFFC
38E0
38C0
38C0
31C0
ENDCHAR
STARTCHAR 0024
ENCODING 36
SWIDTH 600 0
DWIDTH 15 0
BBX 13 21 1 -2
BITMAP
0700
0600
0F80
3FE0
7FF0
F878
F078
F800
7F00
7FE0
3FF0
07F8
00F8
E078
F078
FFF8
7FF0
3FE0
0600
0700
0700
ENDCHAR
STARTCHAR 0025
ENCODING 37
SWIDTH 600 0
DWIDTH 15 0
BBX 15 17 0 0
BITMAP
780E
FC0C
CE18
CE30
CE60
CE60
CCC0
7C00
1018
007C
0666
0CE6
1CE6
18E6
3066
607E
E03C
ENDCHAR
STARTCHAR 0026
ENCODING 38
SWIDTH 600 0
DWIDTH 15 0
BBX 14 17 1 0
BITMAP
3E00
7E00
FE00
F030
F070
F070
7870
3FFC
3FFC
7FFC
F0F0
F0F0
F0F0
F0F0
FFF0
7FF0
1FF0
ENDCHAR
STARTCHAR 0027
ENCODING 39
SWIDTH 600 0
DWIDTH 15 0
BBX 3 7 6 10
BITMAP
E0
E0
E0
E0
E0
E0
40
ENDCHAR
STARTCHAR 0028
ENCODING 40
SWIDTH 600 0
DWIDTH 15 0
BBX 6 21 5 -4
BITMAP
1C
18
38
70
70
70
F0
E0
E0
E0
E0
E0
E0
E0
F0
70
70
30
38
18
0C
ENDCHAR
STARTCHAR 0029
ENCODING 41
SWIDTH 600 0
DWIDTH 15 0
BBX 6 21 4 -4
BITMAP
E0
60
70
30
38
38
3C
1C
1C
1C
1C
1C
1C
1C
38
38
38
30
70
60
C0
ENDCHAR
STARTCHAR 002A
ENCODING 42
SWIDTH 600 0
DWIDTH 15 0
BBX 11 10 2 7
BITMAP
0E00
0E00
4E40
FDE0
FFE0
0E00
1F00
3B80
71C0
1100
ENDCHAR
STARTCHAR 002B
ENCODING 43
SWIDTH 600 0
DWIDTH 15 0
BBX 13 13 1 0
BITMAP
0700
0700
0700
0700
0700
FFF8
FFF8
FFF8
0700
0700
0700
0700
0700
ENDCHAR
STARTCHAR 002C
ENCODING 44
SWIDTH 600 0
DWIDTH 15 0
BBX 5 9 5 -5
BITMAP
F8
F8
F8
F8
30
30
30
60
E0
ENDCHAR
STARTCHAR 002D
ENCODING 45
SWIDTH 600 0
DWIDTH 15 0
BBX 7 3 4 5
BITMAP
FE
FE
FE
ENDCHAR
STARTCHAR 002E
ENCODING 46
SWIDTH 600 0
DWIDTH 15 0
BBX 5 4 5 0
BITMAP
F8
F8
F8
F8
ENDCHAR
STARTCHAR 002F
ENCODING 47
SWIDTH 600 0
DWIDTH 15 0
BBX 15 21 0 -4
BITMAP
000E
001C
0018
0038
0070
0070
00E0
00E0
01C0
01C0
0380
0300
0700
0E00
0E00
1C00
1C00
3800
3800
7000
E000
ENDCHAR
STARTCHAR 0030
ENCODING 48
SWIDTH 600 0
DWIDTH 15 0
BBX 13 17 1 0
BITMAP
1FC0
3FE0
7FF0
F8F8
F078
F078
F078
F078
F078
F078
F078
F078
F078
F8F8
7FF0
3FE0
1FC0
ENDCHAR
STARTCHAR 0031
ENCODING 49
SWIDTH 600 0
DWIDTH 15 0
BBX 12 17 2 0
BITMAP
0700
3F00
FF00
FF00
0F00
0F00
0F00
0F00
0F00
0F00
0F00
0F00
0F00
0F00
FFF0
FFF0
FFF0
ENDCHAR
STARTCHAR 0032
ENCODING 50
SWIDTH 600 0
DWIDTH 15 0
BBX 13 17 1 0
BITMAP
1FC0
3FF0
7FF0
F0F8
F078
F078
0078
00F0
01F0
07E0
0F80
1F00
7C00
7800
FFF8
FFF8
FFF8
ENDCHAR
STARTCHAR 0033
ENCODING 51
SWIDTH 600 0
DWIDTH 15 0
BBX 13 17 1 0
BITMAP
1FC0
7FF0
7FF0
F0F8
F078
0070
00F0
0FE0
0FE0
0FF0
0078
0078
E078
F0F8
FFF8
7FF0
3FC0
ENDCHAR
STARTCHAR 0034
ENCODING 52
SWIDTH 600 0
DWIDTH 15 0
BBX 13 17 1 0
BITMAP
0F00
0E00
1E60
1C60
3CE0
38E0
79E0
71E0
F1E0
E1E0
FFF8
FFF8
FFF8
01E0
01E0
01E0
01E0
ENDCHAR
STARTCHAR 0035
ENCODING 53
SWIDTH 600 0
DWIDTH 15 0
BBX 13 17 1 0
BITMAP
7FF0
7FF0
7FF0
7000
7000
7000
77E0
7FF0
7FF0
70F8
0078
F078
F078
F0F8
7FF0
3FE0
1FC0
ENDCHAR
STARTCHAR 0036
ENCODING 54
SWIDTH 600 0
DWIDTH 15 0
BBX 13 17 1 0
BITMAP
1FC0
3FF0
7FF0
7878
F078
F000
F3C0
FFF0
FFF0
F878
F078
F078
F078
7878
7FF0
3FF0
1FC0
ENDCHAR
STARTCHAR 0037
ENCODING 55
SWIDTH 600 0
DWIDTH 15 0
BBX 12 17 2 0
BITMAP
FFF0
FFF0
FFE0
01E0
01C0
0380
0780
0700
0F00
0E00
1E00
1E00
3E00
3C00
3C00
3C00
3C00
ENDCHAR
STARTCHAR 0038
ENCODING 56
SWIDTH 600 0
DWIDTH 15 0
BBX 13 17 1 0
BITMAP
1FC0
3FE0
78F0
7070
7070
7070
78F0
3FE0
3FE0
7DF0
F078
F078
F078
F078
7DF0
7FF0
1FC0
ENDCHAR
STARTCHAR 0039
ENCODING 57
SWIDTH 600 0
DWIDTH 15 0
BBX 13 17 1 0
BITMAP
1FC0
7FE0
FFF0
F0F0
F078
F078
F078
F0F8
7FF8
3F78
1C78
0078
F078
F0F0
7FF0
3FE0
1FC0
ENDCHAR
STARTCHAR 003A
ENCODING 58
SWIDTH 600 0
DWIDTH 15 0
BBX 5 13 5 0
BITMAP
F8
F8
F8
F8
00
00
00
00
00
F8
F8
F8
F8
ENDCHAR
STARTCHAR 003B
ENCODING 59
SWIDTH 600 0
DWIDTH 15 0
BBX 5 18 5 -5
BITMAP
F8
F8
F8
F8
00
00
00
00
00
F8
F8
F8
F8
30
30
30
60
E0
ENDCHAR
STARTCHAR 003C
ENCODING 60
SWIDTH 600 0
DWIDTH 15 0
BBX 13 13 1 0
BITMAP
0008
0078
01F8
0FF0
7F80
FC00
E000
FC00
7F00
1FE0
03F8
00F8
0018
ENDCHAR
STARTCHAR 003D
ENCODING 61
SWIDTH 600 0
DWIDTH 15 0
BBX 13 8 1 2
BITMAP
FFF8
FFF8
0000
0000
0000
FFF8
FFF8
FFF8
ENDCHAR
STARTCHAR 003E
ENCODING 62
SWIDTH 600 0
DWIDTH 15 0
BBX 13 13 1 0
BITMAP
8000
F000
FC00
7F80
0FF0
01F8
0078
00F8
07F0
3FC0
FE00
F800
C000
ENDCHAR
STARTCHAR 003F
ENCODING 63
SWIDTH 600 0
DWIDTH 15 0
BBX 13 17 1 0
BITMAP
1FC0
3FE0
7DF0
70F8
F0F8
F0F8
00F0
01F0
03C0
0780
0780
0780
0000
0780
0780
0780
0780
ENDCHAR
STARTCHAR 0040
ENCODING 64
SWIDTH 600 0
DWIDTH 15 0
BBX 15 21 0 -4
BITMAP
0FF0
1838
3018
600C
67C4
4FE6
CEF6
DC76
C076
C1F6
CFF6
DE76
DC76
DC76
DEF6
5FBC
6F3C
6000
3000
1C20
0FE0
ENDCHAR
STARTCHAR 0041
ENCODING 65
SWIDTH 600 0
DWIDTH 15 0
BBX 15 17 0 0
BITMAP
07C0
0FE0
0FE0
0FE0
0EE0
1EF0
1EF0
1CF0
3C78
3C78
3C78
3FF8
7FFC
7FFC
783C
703C
F01E
ENDCHAR
STARTCHAR 0042
ENCODING 66
SWIDTH 600 0
DWIDTH 15 0
BBX 13 17 1 0
BITMAP
FFE0
FFF0
FFF8
F0F8
F078
F078
F0F0
FFE0
FFE0
FFF0
F078
F078
F078
F0F8
FFF8
FFF0
FFE0
ENDCHAR
STARTCHAR 0043
ENCODING 67
SWIDTH 600 0
DWIDTH 15 0
BBX 14 17 0 0
BITMAP
0FE0
3FF8
7FF8
787C
783C
F83C
F83C
F800
F800
F800
F83C
783C
783C
7C7C
3FF8
3FF0
0FE0
ENDCHAR
STARTCHAR 0044
ENCODING 68
SWIDTH 600 0
DWIDTH 15 0
BBX 14 17 1 0
BITMAP
FFC0
FFF0
FFF8
F878
F87C
F83C
F83C
F83C
F83C
F83C
F83C
F87C
F87C
F8F8
FFF8
FFF0
FFC0
ENDCHAR
STARTCHAR 0045
ENCODING 69
SWIDTH 600 0
DWIDTH 15 0
BBX 12 17 2 0
BITMAP
FFF0
FFE0
FFE0
F000
F000
F000
F000
FFE0
FFE0
FFE0
F000
F000
F000
F000
FFE0
FFF0
FFF0
ENDCHAR
STARTCHAR 0046
ENCODING 70
SWIDTH 600 0
DWIDTH 15 0
BBX 11 17 2 0
BITMAP
FFE0
FFE0
FFE0
F000
F000
F000
F000
FFC0
FFC0
FFC0
F000
F000
F000
F000
F000
F000
F000
ENDCHAR
STARTCHAR 0047
ENCODING 71
SWIDTH 600 0
DWIDTH 15 0
BBX 14 17 0 0
BITMAP
1FE0
3FF8
7FF8
783C
783C
F83C
F800
F800
F9FC
F9FC
F83C
783C
783C
7C7C
3FFC
3FEC
0FCC
ENDCHAR
STARTCHAR 0048
ENCODING 72
SWIDTH 600 0
DWIDTH 15 0
BBX 13 17 1 0
BITMAP
F078
F078
F078
F078
F078
F078
F078
FFF8
FFF8
FFF8
F078
F078
F078
F078
F078
F078
F078
ENDCHAR
STARTCHAR 0049
ENCODING 73
SWIDTH 600 0
DWIDTH 15 0
BBX 11 17 2 0
BITMAP
FFE0
FFE0
FFE0
1F00
1F00
1F00
1F00
1F00
1F00
1F00
1F00
1F00
1F00
1F00
FFE0
FFE0
FFE0
ENDCHAR
STARTCHAR 004A
ENCODING 74
SWIDTH 600 0
DWIDTH 15 0
BBX 11 17 2 0
BITMAP
01E0
01E0
01E0
01E0
01E0
01E0
01E0
01E0
01E0
01E0
01E0
F1E0
F1E0
F1E0
FFE0
7FC0
3F80
ENDCHAR
STARTCHAR 004B
ENCODING 75
SWIDTH 600 0
DWIDTH 15 0
BBX 14 17 1 0
BITMAP
F07C
F0F8
F0F0
F1F0
F1E0
F3C0
F7C0
F780
FF80
FFC0
FFC0
FBE0
F9E0
F1F0
F0F0
F0F8
F07C
ENDCHAR
STARTCHAR 004C
ENCODING 76
SWIDTH 600 0
DWIDTH 15 0
BBX 12 17 2 0
BITMAP
F000
F000
F000
F000
F000
F000
F000
F000
F000
F000
F000
F000
F000
F000
FFE0
FFE0
FFF0
ENDCHAR
STARTCHAR 004D
ENCODING 77
SWIDTH 600 0
DWIDTH 15 0
BBX 13 17 1 0
BITMAP
F8F8
F8F8
F8F8
F8F8
FDF8
FDF8
FDF8
EDF8
EDF8
EDF8
EDF8
EF78
EF78
EF78
E778
E778
E778
ENDCHAR
STARTCHAR 004E
ENCODING 78
SWIDTH 600 0
DWIDTH 15 0
BBX 13 17 1 0
BITMAP
F878
F878
FC78
FC78
FC78
FE78
FE78
FF78
F778
F7F8
F3F8
F3F8
F1F8
F1F8
F0F8
F0F8
F078
ENDCHAR
STARTCHAR 004F
ENCODING 79
SWIDTH 600 0
DWIDTH 15 0
BBX 15 17 0 0
BITMAP
0FE0
3FF8
7FFC
7C3C
783C
F83E
F83E
F83E
F83E
F83E
F83E
783E
783C
7C7C
3FF8
3FF8
0FE0
ENDCHAR
STARTCHAR 0050
ENCODING 80
SWIDTH 600 0
DWIDTH 15 0
BBX 14 17 1 0
BITMAP
FFE0
FFF0
FFF8
F07C
F07C
F07C
F07C
FFF8
FFF8
FFF0
FF80
F000
F000
F000
F000
F000
F000
ENDCHAR
STARTCHAR 0051
ENCODING 81
SWIDTH 600 0
DWIDTH 15 0
BBX 15 21 0 -4
BITMAP
0FE0
3FF8
7FFC
7C3C
783C
F83E
F83E
F83E
F83E
F83E
F83E
783E
783C
7C7C
3FF8
3FF8
0FE0
03C0
03FE
01FE
007C
ENDCHAR
STARTCHAR 0052
ENCODING 82
SWIDTH 600 0
DWIDTH 15 0
BBX 15 17 1 0
BITMAP
FFE0
FFF8
FFF8
F078
F07C
F078
F078
FFF0
FFE0
FFF0
F1F8
F078
F078
F078
F078
F07C
F03E
ENDCHAR
STARTCHAR 0053
ENCODING 83
SWIDTH 600 0
DWIDTH 15 0
BBX 15 17 0 0
BITMAP
1FF0
3FF8
7FFC
783C
783C
7C00
7F80
3FF0
1FF8
07FC
00FC
F03E
703C
783C
7FFC
3FF8
1FE0
ENDCHAR
STARTCHAR 0054
ENCODING 84
SWIDTH 600 0
DWIDTH 15 0
BBX 13 17 1 0
BITMAP
FFF8
FFF8
FFF8
0F80
0F80
0F80
0F80
0F80
0F80
0F80
0F80
0F80
0F80
0F80
0F80
0F80
0F80
ENDCHAR
STARTCHAR 0055
ENCODING 85
SWIDTH 600 0
DWIDTH 15 0
BBX 13 17 1 0
BITMAP
F078
F078
F078
F078
F078
F078
F078
F078
F078
F078
F078
F078
F078
F8F8
7FF0
7FF0
1FC0
ENDCHAR
STARTCHAR 0056
ENCODING 86
SWIDTH 600 0
DWIDTH 15 0
BBX 15 17 0 0
BITMAP
F01E
781C
783C
783C
783C
3C38
3C78
3C78
1C78
1E70
1EF0
1EF0
0EE0
0FE0
0FE0
0FE0
07C0
ENDCHAR
STARTCHAR 0057
ENCODING 87
SWIDTH 600 0
DWIDTH 15 0
BBX 15 17 0 0
BITMAP
F38E
F38E
F38E
F3DE
73DC
73DC
77DC
76DC
7EDC
7EDC
7EDC
7EFC
7EFC
3EF8
3C78
3C78
3C78
ENDCHAR
STARTCHAR 0058
ENCODING 88
SWIDTH 600 0
DWIDTH 15 0
BBX 15 17 0 0
BITMAP
7C3C
3C3C
3E78
1E78
1FF0
0FF0
0FE0
07C0
07E0
0FE0
1FF0
1FF0
3CF8
3C78
7C7C
783C
F83E
ENDCHAR
STARTCHAR 0059
ENCODING 89
SWIDTH 600 0
DWIDTH 15 0
BBX 15 17 0 0
BITMAP
F83E
783C
7C7C
3C78
3E78
1EF0
1FF0
0FE0
0FE0
07C0
07C0
07C0
07C0
07C0
07C0
07C0
07C0
ENDCHAR
STARTCHAR 005A
ENCODING 90
SWIDTH 600 0
DWIDTH 15 0
BBX 13 17 1 0
BITMAP
FFF8
FFF8
FFF0
01F0
03E0
03E0
07C0
0780
0F80
1F00
1F00
3E00
3C00
7C00
FFF8
FFF8
FFF8
ENDCHAR
STARTCHAR 005B
ENCODING 91
SWIDTH 600 0
DWIDTH 15 0
BBX 5 21 6 -4
BITMAP
F8
F8
E0
E0
E0
E0
E0
E0
E0
E0
E0
E0
E0
E0
E0
E0
E0
E0
E0
F8
F8
ENDCHAR
STARTCHAR 005C
ENCODING 92
SWIDTH 600 0
DWIDTH 15 0
BBX 15 21 0 -4
BITMAP
E000
7000
3000
3800
1C00
1C00
0E00
0E00
0700
0300
0380
0180
01C0
00E0
00E0
0070
0070
0038
0038
001C
000E
ENDCHAR
STARTCHAR 005D
ENCODING 93
SWIDTH 600 0
DWIDTH 15 0
BBX 5 21 4 -4
BITMAP
F8
F8
38
38
38
38
38
38
38
38
38
38
38
38
38
38
38
38
38
F8
F8
ENDCHAR
STARTCHAR 005E
ENCODING 94
SWIDTH 600 0
DWIDTH 15 0
BBX 13 13 1 0
BITMAP
0700
0F80
0F80
0F80
1DC0
1DC0
38C0
38E0
38E0
7070
7070
7030
E038
ENDCHAR
STARTCHAR 005F
ENCODING 95
SWIDTH 600 0
DWIDTH 15 0
BBX 13 2 1 -3
BITMAP
FFF8
FFF8
ENDCHAR
STARTCHAR 0060
ENCODING 96
SWIDTH 600 0
DWIDTH 15 0
BBX 5 4 5 15
BITMAP
E0
70
70
38
ENDCHAR
STARTCHAR 0061
ENCODING 97
SWIDTH 600 0
DWIDTH 15 0
BBX 13 13 1 0
BITMAP
1FC0
7FE0
7FF0
70F0
00F0
0FF0
3FF0
7CF0
F0F0
F0F0
F9F0
7F78
3E78
ENDCHAR
STARTCHAR 0062
ENCODING 98
SWIDTH 600 0
DWIDTH 15 0
BBX 12 18 2 0
BITMAP
F000
F000
F000
F000
F000
F780
FFE0
FFE0
F0F0
F0F0
F0F0
F0F0
F0F0
F0F0
F0F0
F9E0
FFE0
EFC0
ENDCHAR
STARTCHAR 0063
ENCODING 99
SWIDTH 600 0
DWIDTH 15 0
BBX 12 13 1 0
BITMAP
0F80
3FE0
7DF0
7870
F070
F000
F000
F000
F070
7870
78F0
3FE0
1FC0
ENDCHAR
STARTCHAR 0064
ENCODING 100
SWIDTH 600 0
DWIDTH 15 0
BBX 12 18 1 0
BITMAP
00F0
00F0
00F0
00F0
00F0
1EF0
3FF0
7FF0
F0F0
F0F0
F0F0
F0F0
F0F0
F0F0
F0F0
79F0
7FF0
3F70
ENDCHAR
STARTCHAR 0065
ENCODING 101
SWIDTH 600 0
DWIDTH 15 0
BBX 13 13 1 0
BITMAP
0FC0
3FE0
7FF0
7870
F078
FFF8
FFF8
F000
F078
F878
7CF0
3FF0
1FC0
ENDCHAR
STARTCHAR 0066
ENCODING 102
SWIDTH 600 0
DWIDTH 15 0
BBX 12 18 2 0
BITMAP
07F0
0FF0
1FF0
1E00
1E00
FFE0
FFE0
FFE0
1E00
1E00
1E00
1E00
1E00
1E00
1E00
FFF0
FFF0
FFF0
ENDCHAR
STARTCHAR 0067
ENCODING 103
SWIDTH 600 0
DWIDTH 15 0
BBX 14 20 1 -5
BITMAP
001C
0038
1FF8
3FE0
7CF0
7870
7870
78F0
3FF0
3FC0
7000
F000
7FF0
7FF8
7FFC
E03C
E03C
FFF8
FFF8
3FE0
ENDCHAR
STARTCHAR 0068
ENCODING 104
SWIDTH 600 0
DWIDTH 15 0
BBX 11 18 2 0
BITMAP
F000
F000
F000
F000
F000
F7C0
FFE0
FFE0
F1E0
F1E0
F1E0
F1E0
F1E0
F1E0
F1E0
F1E0
F1E0
F1E0
ENDCHAR
STARTCHAR 0069
ENCODING 105
SWIDTH 600 0
DWIDTH 15 0
BBX 12 18 2 0
BITMAP
0700
0700
0700
0000
0000
FF00
FF00
FF00
0F00
0F00
0F00
0F00
0F00
0F00
0F00
FFF0
FFF0
FFF0
ENDCHAR
STARTCHAR 006A
ENCODING 106
SWIDTH 600 0
DWIDTH 15 0
BBX 8 23 2 -5
BITMAP
07
07
07
00
00
FF
FF
FF
0F
0F
0F
0F
0F
0F
0F
0F
0F
0F
0F
8F
FF
FE
38
ENDCHAR
STARTCHAR 006B
ENCODING 107
SWIDTH 600 0
DWIDTH 15 0
BBX 13 18 2 0
BITMAP
E000
E000
E000
E000
E000
E0F0
E1E0
E3E0
E7C0
E780
EF00
FF00
FF80
FF80
F7C0
E3E0
E1E0
E0F8
ENDCHAR
STARTCHAR 006C
ENCODING 108
SWIDTH 600 0
DWIDTH 15 0
BBX 12 18 2 0
BITMAP
FF00
FF00
FF00
0F00
0F00
0F00
0F00
0F00
0F00
0F00
0F00
0F00
0F00
0F00
0F00
FFF0
FFF0
FFF0
ENDCHAR
STARTCHAR 006D
ENCODING 109
SWIDTH 600 0
DWIDTH 15 0
BBX 13 13 1 0
BITMAP
DE70
FFF8
FFF8
E738
E738
E738
E738
E738
E738
E738
E738
E738
E738
ENDCHAR
STARTCHAR 006E
ENCODING 110
SWIDTH 600 0
DWIDTH 15 0
BBX 11 13 2 0
BITMAP
E780
FFE0
FFE0
F1E0
F1E0
F1E0
F1E0
F1E0
F1E0
F1E0
F1E0
F1E0
F1E0
ENDCHAR
STARTCHAR 006F
ENCODING 111
SWIDTH 600 0
DWIDTH 15 0
BBX 13 13 1 0
BITMAP
0F80
3FE0
7DF0
78F0
F078
F078
F078
F078
F078
F0F8
7DF0
3FE0
1FC0
ENDCHAR
STARTCHAR 0070
ENCODING 112
SWIDTH 600 0
DWIDTH 15 0
BBX 12 18 2 -5
BITMAP
E780
FFE0
FFE0
F0F0
F0F0
F0F0
F0F0
F0F0
F0F0
F0F0
F9E0
FFE0
FFC0
F000
F000
F000
F000
F000
ENDCHAR
STARTCHAR 0071
ENCODING 113
SWIDTH 600 0
DWIDTH 15 0
BBX 12 18 1 -5
BITMAP
1E70
3FF0
7FF0
F0F0
F0F0
F0F0
F0F0
F0F0
F0F0
F0F0
79F0
7FF0
3FF0
00F0
00F0
00F0
00F0
00F0
ENDCHAR
STARTCHAR 0072
ENCODING 114
SWIDTH 600 0
DWIDTH 15 0
BBX 13 13 1 0
BITMAP
FCF0
FFF8
FFF8
1E38
1E38
1E00
1E00
1E00
1E00
1E00
FFF0
FFF0
FFF0
ENDCHAR
STARTCHAR 0073
ENCODING 115
SWIDTH 600 0
DWIDTH 15 0
BBX 13 13 1 0
BITMAP
1FC0
3FE0
7DF0
7070
7800
7FC0
3FF0
1FF0
00F8
F078
78F0
7FF0
3FC0
ENDCHAR
STARTCHAR 0074
ENCODING 116
SWIDTH 600 0
DWIDTH 15 0
BBX 13 17 1 0
BITMAP
0600
0E00
0E00
0E00
FFF8
FFF8
FFF8
1E00
1E00
1E00
1E00
1E00
1E00
1F00
0FF8
0FF8
07F8
ENDCHAR
STARTCHAR 0075
ENCODING 117
SWIDTH 600 0
DWIDTH 15 0
BBX 14 13 1 0
BITMAP
F0F0
F0F0
F0F0
F0F0
F0F0
F0F0
F0F0
F0F0
F0F0
F8F0
7FF0
7FFC
3F7C
ENDCHAR
STARTCHAR 0076
ENCODING 118
SWIDTH 600 0
DWIDTH 15 0
BBX 13 13 1 0
BITMAP
F078
F078
7870
78F0
78F0
3CE0
3DE0
3DE0
1FC0
1FC0
1FC0
0F80
0F80
ENDCHAR
STARTCHAR 0077
ENCODING 119
SWIDTH 600 0
DWIDTH 15 0
BBX 15 13 0 0
BITMAP
E38E
E38E
E3CE
77DC
77DC
77DC
76DC
76DC
7EFC
3EF8
3EF8
3C78
3C78
ENDCHAR
STARTCHAR 0078
ENCODING 120
SWIDTH 600 0
DWIDTH 15 0
BBX 13 13 1 0
BITMAP
F878
78F0
7CF0
3FE0
1FC0
1FC0
0F80
1FC0
1FC0
3DE0
79F0
78F0
F078
ENDCHAR
STARTCHAR 0079
ENCODING 121
SWIDTH 600 0
DWIDTH 15 0
BBX 13 18 1 -5
BITMAP
F078
F078
7870
78F0
78F0
3CE0
3DE0
1FC0
1FC0
1FC0
0F80
0F80
0780
0F00
0F00
7E00
7C00
7000
ENDCHAR
STARTCHAR 007A
ENCODING 122
SWIDTH 600 0
DWIDTH 15 0
BBX 11 13 2 0
BITMAP
FFE0
FFE0
FFC0
0780
0F80
0F00
1F00
1E00
3C00
7C00
7FE0
FFE0
FFE0
ENDCHAR
STARTCHAR 007B
ENCODING 123
SWIDTH 600 0
DWIDTH 15 0
BBX 7 21 4 -4
BITMAP
1E
3C
38
38
38
38
38
38
38
F0
C0
70
38
38
38
38
38
38
38
3E
1E
ENDCHAR
STARTCHAR 007C
ENCODING 124
SWIDTH 600 0
DWIDTH 15 0
BBX 3 23 6 -5
BITMAP
E0
E0
E0
E0
E0
E0
E0
E0
E0
E0
E0
E0
E0
E0
E0
E0
E0
E0
E0
E0
E0
E0
E0
ENDCHAR
STARTCHAR 007D
ENCODING 125
SWIDTH 600 0
DWIDTH 15 0
BBX 7 21 4 -4
BITMAP
F0
78
38
38
38
38
38
38
38
1E
06
1C
38
38
38
38
38
38
38
F8
F0
ENDCHAR
STARTCHAR 007E
ENCODING 126
SWIDTH 600 0
DWIDTH 15 0
BBX 15 5 0 5
BITMAP
1802
7F06
FFFE
E1FC
8070
ENDCHAR
STARTCHAR 00A0
ENCODING 160
SWIDTH 600 0
DWIDTH 15 0
BBX 0 0 0 0
BITMAP
ENDCHAR
STARTCHAR 00A1
ENCODING 161
SWIDTH 600 0
DWIDTH 15 0
BBX 5 17 5 -4
BITMAP
F8
F8
F8
F8
00
70
70
70
70
70
70
70
70
F8
F8
F8
F8
ENDCHAR
STARTCHAR 00A2
ENCODING 162
SWIDTH 600 0
DWIDTH 15 0
BBX 13 17 1 0
BITMAP
0700
0300
0FC0
3FE0
7CF0
7870
7878
F800
F800
F800
7878
7870
7FF0
3FE0
0FC0
0300
0700
ENDCHAR
STARTCHAR 00A3
ENCODING 163
SWIDTH 600 0
DWIDTH 15 0
BBX 14 18 0 0
BITMAP
0080
07F0
0FF8
1FFC
1E3C
1E1C
1E00
1E00
FFC0
FFC0
FFC0
1C00
1C00
1C00
1C00
7FF8
7FF8
7FF8
ENDCHAR
STARTCHAR 00A4
ENCODING 164
SWIDTH 600 0
DWIDTH 15 0
BBX 13 13 1 2
BITMAP
4610
FFF8
7FF0
7070
6030
E038
E038
E038
6030
7070
7FF0
FFF8
4710
ENDCHAR
STARTCHAR 00A5
ENCODING 165
SWIDTH 600 0
DWIDTH 15 0
BBX 15 17 0 0
BITMAP
F83E
783C
7C7C
3C78
3E78
1EF0
7FFE
7FFE
0FE0
7FFE
7FFE
07C0
07C0
07C0
07C0
07C0
07C0
ENDCHAR
STARTCHAR 00A6
ENCODING 166
SWIDTH 600 0
DWIDTH 15 0
BBX 3 23 6 -5
BITMAP
E0
E0
E0
E0
E0
E0
E0
E0
E0
00
00
00
00
00
E0
E0
E0
E0
E0
E0
E0
E0
E0
ENDCHAR
STARTCHAR 00A7
ENCODING 167
SWIDTH 600 0
DWIDTH 15 0
BBX 12 22 2 -5
BITMAP
3F80
7FC0
F1E0
E0E0
F000
FC00
7F00
7FC0
E7E0
E1E0
E0F0
F0E0
FCE0
7FC0
1FC0
07E0
01E0
00E0
F1E0
FFE0
7FC0
0E00
ENDCHAR
STARTCHAR 00A8
ENCODING 168
SWIDTH 600 0
DWIDTH 15 0
BBX 9 3 3 15
BITMAP
E380
E380
E380
ENDCHAR
STARTCHAR 00A9
ENCODING 169
SWIDTH 600 0
DWIDTH 15 0
BBX 15 17 0 0
BITMAP
0FE0
1830
3018
63CC
4FE4
CE66
DC76
DC06
DC06
DC76
DC76
CE64
4FE4
618C
3018
1830
0FE0
ENDCHAR
STARTCHAR 00AA
ENCODING 170
SWIDTH 600 0
DWIDTH 15 0
BBX 9 8 3 9
BITMAP
7E00
6700
0700
7F00
6700
E700
7B80
3100
ENDCHAR
STARTCHAR 00AB
ENCODING 171
SWIDTH 600 0
DWIDTH 15 0
BBX 11 9 2 4
BITMAP
38E0
39C0
71C0
F380
E780
F380
71C0
39C0
38E0
ENDCHAR
STARTCHAR 00AC
ENCODING 172
SWIDTH 600 0
DWIDTH 15 0
BBX 13 8 1 4
BITMAP
FFF8
FFF8
FFF8
0038
0038
0038
0038
0038
ENDCHAR
STARTCHAR 00AD
ENCODING 173
SWIDTH 600 0
DWIDTH 15 0
BBX 7 3 4 5
BITMAP
FE
FE
FE
ENDCHAR
STARTCHAR 00AE
ENCODING 174
SWIDTH 600 0
DWIDTH 15 0
BBX 15 17 0 0
BITMAP
0FE0
1830
3018
6FCC
4FE4
CC76
CC76
CCE6
CFC6
CCE6
CC76
CC74
4C74
6C3C
3018
1830
0FE0
ENDCHAR
STARTCHAR 00AF
ENCODING 175
SWIDTH 600 0
DWIDTH 15 0
BBX 9 2 3 15
BITMAP
FF80
FF80
ENDCHAR
STARTCHAR 00B0
ENCODING 176
SWIDTH 600 0
DWIDTH 15 0
BBX 7 7 4 10
BITMAP
7C
EE
C6
C6
C6
FE
7C
ENDCHAR
STARTCHAR 00B1
ENCODING 177
SWIDTH 600 0
DWIDTH 15 0
BBX 13 13 1 0
BITMAP
0700
0700
0700
FFF8
FFF8
FFF8
0700
0700
0700
0000
FFF8
FFF8
FFF8
ENDCHAR
STARTCHAR 00B2
ENCODING 178
SWIDTH 600 0
DWIDTH 15 0
BBX 7 9 4 11
BITMAP
7C
FE
C6
0E
0C
3C
70
E0
FE
ENDCHAR
STARTCHAR 00B3
ENCODING 179
SWIDTH 600 0
DWIDTH 15 0
BBX 7 10 4 10
BITMAP
7C
FE
C6
0E
3C
0E
06
C6
FE
38
ENDCHAR
STARTCHAR 00B4
ENCODING 180
SWIDTH 600 0
DWIDTH 15 0
BBX 5 4 5 15
BITMAP
38
70
70
E0
ENDCHAR
STARTCHAR 00B5
ENCODING 181
SWIDTH 600 0
DWIDTH 15 0
BBX 14 17 1 -4
BITMAP
F0F0
F0F0
F0F0
F0F0
F0F0
F0F0
F0F0
F0F0
F0F0
F8F0
FFF0
FFFC
FF7C
F000
F000
F000
F000
ENDCHAR
STARTCHAR 00B6
ENCODING 182
SWIDTH 600 0
DWIDTH 15 0
BBX 12 21 1 -4
BITMAP
1FF0
7FF0
7E60
FE60
FE60
FE60
FE60
FE60
7E60
3E60
0E60
0660
0660
0660
0660
0660
0660
0660
0660
0660
0660
ENDCHAR
STARTCHAR 00B7
ENCODING 183
SWIDTH 600 0
DWIDTH 15 0
BBX 5 4 5 7
BITMAP
F8
F8
F8
F8
ENDCHAR
STARTCHAR 00B8
ENCODING 184
SWIDTH 600 0
DWIDTH 15 0
BBX 5 4 5 -5
BITMAP
38
18
98
F8
ENDCHAR
STARTCHAR 00B9
ENCODING 185
SWIDTH 600 0
DWIDTH 15 0
BBX 6 9 4 11
BITMAP
18
F8
F8
38
38
38
38
38
FC
ENDCHAR
STARTCHAR 00BA
ENCODING 186
SWIDTH 600 0
DWIDTH 15 0
BBX 7 8 4 9
BITMAP
7C
EE
C6
C6
C6
C6
7C
10
ENDCHAR
STARTCHAR 00BB
ENCODING 187
SWIDTH 600 0
DWIDTH 15 0
BBX 11 9 2 4
BITMAP
E380
7380
71C0
39E0
3CE0
39E0
71C0
7380
E380
ENDCHAR
STARTCHAR 00BC
ENCODING 188
SWIDTH 600 0
DWIDTH 15 0
BBX 15 17 0 0
BITMAP
100E
F00C
F018
3030
3060
3060
30C0
3000
FC30
0034
066C
0C6C
1CCC
188C
30FE
600C
E00C
ENDCHAR
STARTCHAR 00BD
ENCODING 189
SWIDTH 600 0
DWIDTH 15 0
BBX 15 17 0 0
BITMAP
100E
F01C
F018
3030
3060
3060
30C0
3000
FC7C
00FE
06C6
0C06
180E
181C
3070
60E0
E0FE
ENDCHAR
STARTCHAR 00BE
ENCODING 190
SWIDTH 600 0
DWIDTH 15 0
BBX 15 17 0 0
BITMAP
7C0E
FE0C
C618
0630
3C60
0E60
06C0
C600
FE30
3834
066C
0C6C
1CCC
188C
30FE
600C
E00C
ENDCHAR
STARTCHAR 00BF
ENCODING 191
SWIDTH 600 0
DWIDTH 15 0
BBX 13 18 1 -5
BITMAP
0F00
0F00
0F00
0F00
0000
0700
0700
0F00
1E00
3E00
7C00
F800
F878
F878
7CF0
7FE0
3FC0
0600
ENDCHAR
STARTCHAR 00C0
ENCODING 192
SWIDTH 600 0
DWIDTH 15 0
BBX 15 22 0 0
BITMAP
1E00
0700
0380
0000
0000
07C0
0FE0
0FE0
0FE0
0EE0
1EF0
1EF0
1CF0
3C78
3C78
3C78
3FF8
7FFC
7FFC
783C
703C
F01E
ENDCHAR
STARTCHAR 00C1
ENCODING 193
SWIDTH 600 0
DWIDTH 15 0
BBX 15 22 0 0
BITMAP
00F0
01C0
03C0
0000
0000
07C0
0FE0
0FE0
0FE0
0EE0
1EF0
1EF0
1CF0
3C78
3C78
3C78
3FF8
7FFC
7FFC
783C
703C
F01E
ENDCHAR
STARTCHAR 00C2
ENCODING 194
SWIDTH 600 0
DWIDTH 15 0
BBX 15 22 0 0
BITMAP
07C0
0EE0
1C70
0000
0000
07C0
0FE0
0FE0
0FE0
0EE0
1EF0
1EF0
1CF0
3C78
3C78
3C78
3FF8
7FFC
7FFC
783C
703C
F01E
ENDCHAR
STARTCHAR 00C3
ENCODING 195
SWIDTH 600 0
DWIDTH 15 0
BBX 15 22 0 0
BITMAP
0F30
1FF0
19E0
0000
0000
07C0
0FE0
0FE0
0FE0
0EE0
1EF0
1EF0
1CF0
3C78
3C78
3C78
3FF8
7FFC
7FFC
783C
703C
F01E
ENDCHAR
STARTCHAR 00C4
ENCODING 196
SWIDTH 600 0
DWIDTH 15 0
BBX 15 22 0 0
BITMAP
1C70
1C70
1C70
0000
0000
07C0
0FE0
0FE0
0FE0
0EE0
1EF0
1EF0
1CF0
3C78
3C78
3C78
3FF8
7FFC
7FFC
783C
703C
F01E
ENDCHAR
STARTCHAR 00C5
ENCODING 197
SWIDTH 600 0
DWIDTH 15 0
BBX 15 24 0 0
BITMAP
0180
07C0
0640
06C0
07C0
0000
0000
07C0
0FE0
0FE0
0FE0
0EE0
1EF0
1EF0
1CF0
3C78
3C78
3C78
3FF8
7FFC
7FFC
783C
703C
F01E
ENDCHAR
STARTCHAR 00C6
ENCODING 198
SWIDTH 600 0
DWIDTH 15 0
BBX 15 17 0 0
BITMAP
0FFE
0FFE
0FFC
1FE0
1DE0
1DE0
1DE0
3DFC
3DFC
39FC
39E0
7FE0
7FE0
7FE0
71FE
F1FE
F1FE
ENDCHAR
STARTCHAR 00C7
ENCODING 199
SWIDTH 600 0
DWIDTH 15 0
BBX 14 22 0 -5
BITMAP
0FE0
3FF8
7FF8
787C
783C
F83C
F83C
F800
F800
F800
F83C
783C
783C
7C7C
3FF8
3FF0
0FE0
0000
01C0
00C0
04C0
07C0
ENDCHAR
STARTCHAR 00C8
ENCODING 200
SWIDTH 600 0
DWIDTH 15 0
BBX 12 22 2 0
BITMAP
3C00
1C00
0E00
0000
0000
FFF0
FFE0
FFE0
F000
F000
F000
F000
FFE0
FFE0
FFE0
F000
F000
F000
F000
FFE0
FFF0
FFF0
ENDCHAR
STARTCHAR 00C9
ENCODING 201
SWIDTH 600 0
DWIDTH 15 0
BBX 12 22 2 0
BITMAP
03C0
0780
0700
0800
0000
FFF0
FFE0
FFE0
F000
F000
F000
F000
FFE0
FFE0
FFE0
F000
F000
F000
F000
FFE0
FFF0
FFF0
ENDCHAR
STARTCHAR 00CA
ENCODING 202
SWIDTH 600 0
DWIDTH 15 0
BBX 12 22 2 0
BITMAP
1F00
3B80
71C0
0000
0000
FFF0
FFE0
FFE0
F000
F000
F000
F000
FFE0
FFE0
FFE0
F000
F000
F000
F000
FFE0
FFF0
FFF0
ENDCHAR
STARTCHAR 00CB
ENCODING 203
SWIDTH 600 0
DWIDTH 15 0
BBX 12 22 2 0
BITMAP
71C0
71C0
71C0
0000
0000
FFF0
FFE0
FFE0
F000
F000
F000
F000
FFE0
FFE0
FFE0
F000
F000
F000
F000
FFE0
FFF0
FFF0
ENDCHAR
STARTCHAR 00CC
ENCODING 204
SWIDTH 600 0
DWIDTH 15 0
BBX 11 22 2 0
BITMAP
7800
1C00
0E00
0000
0000
FFE0
FFE0
FFE0
1F00
1F00
1F00
1F00
1F00
1F00
1F00
1F00
1F00
1F00
1F00
FFE0
FFE0
FFE0
ENDCHAR
STARTCHAR 00CD
ENCODING 205
SWIDTH 600 0
DWIDTH 15 0
BBX 11 22 2 0
BITMAP
03C0
0700
0F00
0000
0000
FFE0
FFE0
FFE0
1F00
1F00
1F00
1F00
1F00
1F00
1F00
1F00
1F00
1F00
1F00
FFE0
FFE0
FFE0
ENDCHAR
STARTCHAR 00CE
ENCODING 206
SWIDTH 600 0
DWIDTH 15 0
BBX 11 22 2 0
BITMAP
1F00
3B80
71C0
0000
0000
FFE0
FFE0
FFE0
1F00
1F00
1F00
1F00
1F00
1F00
1F00
1F00
1F00
1F00
1F00
FFE0
FFE0
FFE0
ENDCHAR
STARTCHAR 00CF
ENCODING 207
SWIDTH 600 0
DWIDTH 15 0
BBX 11 22 2 0
BITMAP
71C0
71C0
71C0
0000
0000
FFE0
FFE0
FFE0
1F00
1F00
1F00
1F00
1F00
1F00
1F00
1F00
1F00
1F00
1F00
FFE0
FFE0
FFE0
ENDCHAR
STARTCHAR 00D0
ENCODING 208
SWIDTH 600 0
DWIDTH 15 0
BBX 15 17 0 0
BITMAP
7FE0
7FF8
7FFC
7C3C
7C3E
7C1E
7C1E
FF9E
FF9E
FF9E
7C1E
7C3E
7C3E
7C7C
7FFC
7FF8
7FE0
ENDCHAR
STARTCHAR 00D1
ENCODING 209
SWIDTH 600 0
DWIDTH 15 0
BBX 13 22 1 0
BITMAP
1E60
3FE0
33C0
0000
0000
F878
F878
FC78
FC78
FC78
FE78
FE78
FF78
F778
F7F8
F3F8
F3F8
F1F8
F1F8
F0F8
F0F8
F078
ENDCHAR
STARTCHAR 00D2
ENCODING 210
SWIDTH 600 0
DWIDTH 15 0
BBX 15 22 0 0
BITMAP
1E00
0700
0380
0000
0000
0FE0
3FF8
7FFC
7C3C
783C
F83E
F83E
F83E
F83E
F83E
F83E
783E
783C
7C7C
3FF8
3FF8
0FE0
ENDCHAR
STARTCHAR 00D3
ENCODING 211
SWIDTH 600 0
DWIDTH 15 0
BBX 15 22 0 0
BITMAP
00F0
01C0
03C0
0000
0000
0FE0
3FF8
7FFC
7C3C
783C
F83E
F83E
F83E
F83E
F83E
F83E
783E
783C
7C7C
3FF8
3FF8
0FE0
ENDCHAR
STARTCHAR 00D4
ENCODING 212
SWIDTH 600 0
DWIDTH 15 0
BBX 15 22 0 0
BITMAP
07C0
0EE0
1C70
0000
0000
0FE0
3FF8
7FFC
7C3C
783C
F83E
F83E
F83E
F83E
F83E
F83E
783E
783C
7C7C
3FF8
3FF8
0FE0
ENDCHAR
STARTCHAR 00D5
ENCODING 213
SWIDTH 600 0
DWIDTH 15 0
BBX 15 22 0 0
BITMAP
0F30
1FF0
19E0
0000
0000
0FE0
3FF8
7FFC
7C3C
783C
F83E
F83E
F83E
F83E
F83E
F83E
783E
783C
7C7C
3FF8
3FF8
0FE0
ENDCHAR
STARTCHAR 00D6
ENCODING 214
SWIDTH 600 0
DWIDTH 15 0
BBX 15 22 0 0
BITMAP
1C70
1C70
1C70
0000
0000
0FE0
3FF8
7FFC
7C3C
783C
F83E
F83E
F83E
F83E
F83E
F83E
783E
783C
7C7C
3FF8
3FF8
0FE0
ENDCHAR
STARTCHAR 00D7
ENCODING 215
SWIDTH 600 0
DWIDTH 15 0
BBX 11 11 2 1
BITMAP
4040
60C0
F1E0
7BC0
3F80
1F00
1F00
3F80
7BC0
F1E0
60C0
ENDCHAR
STARTCHAR 00D8
ENCODING 216
SWIDTH 600 0
DWIDTH 15 0
BBX 15 21 0 -2
BITMAP
000E
000C
0FF8
3FF8
7FFC
7C7C
787C
F8FE
F9FE
F9BE
FBBE
FB3E
FE3E
7E3E
7C3C
7C7C
3FF8
3FF8
7FE0
6000
E000
ENDCHAR
STARTCHAR 00D9
ENCODING 217
SWIDTH 600 0
DWIDTH 15 0
BBX 13 22 1 0
BITMAP
3C00
0E00
0700
0000
0000
F078
F078
F078
F078
F078
F078
F078
F078
F078
F078
F078
F078
F078
F8F8
7FF0
7FF0
1FC0
ENDCHAR
STARTCHAR 00DA
ENCODING 218
SWIDTH 600 0
DWIDTH 15 0
BBX 13 22 1 0
BITMAP
01E0
0380
0780
0000
0000
F078
F078
F078
F078
F078
F078
F078
F078
F078
F078
F078
F078
F078
F8F8
7FF0
7FF0
1FC0
ENDCHAR
STARTCHAR 00DB
ENCODING 219
SWIDTH 600 0
DWIDTH 15 0
BBX 13 22 1 0
BITMAP
0F80
1DC0
38E0
0000
0000
F078
F078
F078
F078
F078
F078
F078
F078
F078
F078
F078
F078
F078
F8F8
7FF0
7FF0
1FC0
ENDCHAR
STARTCHAR 00DC
ENCODING 220
SWIDTH 600 0
DWIDTH 15 0
BBX 13 22 1 0
BITMAP
38E0
38E0
38E0
0000
0000
F078
F078
F078
F078
F078
F078
F078
F078
F078
F078
F078
F078
F078
F8F8
7FF0
7FF0
1FC0
ENDCHAR
STARTCHAR 00DD
ENCODING 221
SWIDTH 600 0
DWIDTH 15 0
BBX 15 22 0 0
BITMAP
00F0
01C0
03C0
0000
0000
F83E
783C
7C7C
3C78
3E78
1EF0
1FF0
0FE0
0FE0
07C0
07C0
07C0
07C0
07C0
07C0
07C0
07C0
ENDCHAR
STARTCHAR 00DE
ENCODING 222
SWIDTH 600 0
DWIDTH 15 0
BBX 14 17 1 0
BITMAP
F800
F800
F800
FFE0
FFF0
FFF8
F878
F87C
F87C
F878
FFF8
FFF0
FFE0
F800
F800
F800
F800
ENDCHAR
STARTCHAR 00DF
ENCODING 223
SWIDTH 600 0
DWIDTH 15 0
BBX 15 20 0 -2
BITMAP
07E0
1FF8
3FF8
3C3C
3C3C
FC3C
FC38
FDF8
3DF0
3DF8
3C3C
3C1C
3C1E
3C3C
3C3C
3DFC
3DF8
3DE0
3C00
3C00
ENDCHAR
STARTCHAR 00E0
ENCODING 224
SWIDTH 600 0
DWIDTH 15 0
BBX 13 19 1 0
BITMAP
1C00
0E00
0E00
0700
0000
0000
1FC0
7FE0
7FF0
70F0
00F0
0FF0
3FF0
7CF0
F0F0
F0F0
F9F0
7F78
3E78
ENDCHAR
STARTCHAR 00E1
ENCODING 225
SWIDTH 600 0
DWIDTH 15 0
BBX 13 19 1 0
BITMAP
03C0
0380
0700
0700
0800
0000
1FC0
7FE0
7FF0
70F0
00F0
0FF0
3FF0
7CF0
F0F0
F0F0
F9F0
7F78
3E78
ENDCHAR
STARTCHAR 00E2
ENCODING 226
SWIDTH 600 0
DWIDTH 15 0
BBX 13 19 1 0
BITMAP
0F00
0F80
1DC0
38C0
4020
0000
1FC0
7FE0
7FF0
70F0
00F0
0FF0
3FF0
7CF0
F0F0
F0F0
F9F0
7F78
3E78
ENDCHAR
STARTCHAR 00E3
ENCODING 227
SWIDTH 600 0
DWIDTH 15 0
BBX 13 19 1 0
BITMAP
1820
3E60
3FE0
63C0
0000
0000
1FC0
7FE0
7FF0
70F0
00F0
0FF0
3FF0
7CF0
F0F0
F0F0
F9F0
7F78
3E78
ENDCHAR
STARTCHAR 00E4
ENCODING 228
SWIDTH 600 0
DWIDTH 15 0
BBX 13 18 1 0
BITMAP
38E0
38E0
38E0
0000
0000
1FC0
7FE0
7FF0
70F0
00F0
0FF0
3FF0
7CF0
F0F0
F0F0
F9F0
7F78
3E78
ENDCHAR
STARTCHAR 00E5
ENCODING 229
SWIDTH 600 0
DWIDTH 15 0
BBX 13 20 1 0
BITMAP
0200
0F80
0980
0980
0F00
0000
0000
1FC0
7FE0
7FF0
70F0
00F0
0FF0
3FF0
7CF0
F0F0
F0F0
F9F0
7F78
3E78
ENDCHAR
STARTCHAR 00E6
ENCODING 230
SWIDTH 600 0
DWIDTH 15 0
BBX 15 13 0 0
BITMAP
3E78
7FFC
77DC
638E
038E
1FFE
7FFE
7380
E38E
E38E
F7DC
7FFC
7CF8
ENDCHAR
STARTCHAR 00E7
ENCODING 231
SWIDTH 600 0
DWIDTH 15 0
BBX 12 18 1 -5
BITMAP
0F80
3FE0
7DF0
7870
F070
F000
F000
F000
F070
7870
78F0
3FE0
1FC0
0000
0380
0180
0980
0F80
ENDCHAR
STARTCHAR 00E8
ENCODING 232
SWIDTH 600 0
DWIDTH 15 0
BBX 13 19 1 0
BITMAP
1E00
0E00
0700
0700
0080
0000
0FC0
3FE0
7FF0
7870
F078
FFF8
FFF8
F000
F078
F878
7CF0
3FF0
1FC0
ENDCHAR
STARTCHAR 00E9
ENCODING 233
SWIDTH 600 0
DWIDTH 15 0
BBX 13 19 1 0
BITMAP
01C0
0380
0380
0700
0000
0000
0FC0
3FE0
7FF0
7870
F078
FFF8
FFF8
F000
F078
F878
7CF0
3FF0
1FC0
ENDCHAR
STARTCHAR 00EA
ENCODING 234
SWIDTH 600 0
DWIDTH 15 0
BBX 13 19 1 0
BITMAP
0780
0F80
1DC0
18E0
2010
0000
0FC0
3FE0
7FF0
7870
F078
FFF8
FFF8
F000
F078
F878
7CF0
3FF0
1FC0
ENDCHAR
STARTCHAR 00EB
ENCODING 235
SWIDTH 600 0
DWIDTH 15 0
BBX 13 18 1 0
BITMAP
38E0
38E0
38E0
0000
0000
0FC0
3FE0
7FF0
7870
F078
FFF8
FFF8
F000
F078
F878
7CF0
3FF0
1FC0
ENDCHAR
STARTCHAR 00EC
ENCODING 236
SWIDTH 600 0
DWIDTH 15 0
BBX 12 19 2 0
BITMAP
3C00
1E00
0E00
0700
0000
0000
FF00
FF00
FF00
0F00
0F00
0F00
0F00
0F00
0F00
0F00
FFF0
FFF0
FFF0
ENDCHAR
STARTCHAR 00ED
ENCODING 237
SWIDTH 600 0
DWIDTH 15 0
BBX 12 19 2 0
BITMAP
03C0
0380
0700
0600
0800
0000
FF00
FF00
FF00
0F00
0F00
0F00
0F00
0F00
0F00
0F00
FFF0
FFF0
FFF0
ENDCHAR
STARTCHAR 00EE
ENCODING 238
SWIDTH 600 0
DWIDTH 15 0
BBX 12 19 2 0
BITMAP
0F00
1F80
1D80
39C0
4020
0000
FF00
FF00
FF00
0F00
0F00
0F00
0F00
0F00
0F00
0F00
FFF0
FFF0
FFF0
ENDCHAR
STARTCHAR 00EF
ENCODING 239
SWIDTH 600 0
DWIDTH 15 0
BBX 12 18 2 0
BITMAP
38E0
38E0
38E0
0000
0000
FF00
FF00
FF00
0F00
0F00
0F00
0F00
0F00
0F00
0F00
FFF0
FFF0
FFF0
ENDCHAR
STARTCHAR 00F0
ENCODING 240
SWIDTH 600 0
DWIDTH 15 0
BBX 13 18 1 0
BITMAP
3D80
1F00
1F00
37C0
03C0
1FE0
3FF0
7DF0
F8F8
F078
F078
F078
F078
F078
F078
7DF0
3FE0
1FC0
ENDCHAR
STARTCHAR 00F1
ENCODING 241
SWIDTH 600 0
DWIDTH 15 0
BBX 11 19 2 0
BITMAP
1060
7EC0
7FC0
6780
0000
0000
E780
FFE0
FFE0
F1E0
F1E0
F1E0
F1E0
F1E0
F1E0
F1E0
F1E0
F1E0
F1E0
ENDCHAR
STARTCHAR 00F2
ENCODING 242
SWIDTH 600 0
DWIDTH 15 0
BBX 13 19 1 0
BITMAP
1C00
0E00
0E00
0700
0000
0000
0F80
3FE0
7DF0
78F0
F078
F078
F078
F078
F078
F0F8
7DF0
3FE0
1FC0
ENDCHAR
STARTCHAR 00F3
ENCODING 243
SWIDTH 600 0
DWIDTH 15 0
BBX 13 19 1 0
BITMAP
03C0
0380
0700
0700
0000
0000
0F80
3FE0
7DF0
78F0
F078
F078
F078
F078
F078
F0F8
7DF0
3FE0
1FC0
ENDCHAR
STARTCHAR 00F4
ENCODING 244
SWIDTH 600 0
DWIDTH 15 0
BBX 13 19 1 0
BITMAP
0700
0F80
1DC0
38E0
0000
0000
0F80
3FE0
7DF0
78F0
F078
F078
F078
F078
F078
F0F8
7DF0
3FE0
1FC0
ENDCHAR
STARTCHAR 00F5
ENCODING 245
SWIDTH 600 0
DWIDTH 15 0
BBX 13 19 1 0
BITMAP
0C30
3F60
3FE0
63C0
0000
0000
0F80
3FE0
7DF0
78F0
F078
F078
F078
F078
F078
F0F8
7DF0
3FE0
1FC0
ENDCHAR
STARTCHAR 00F6
ENCODING 246
SWIDTH 600 0
DWIDTH 15 0
BBX 13 18 1 0
BITMAP
38E0
38E0
38E0
0000
0000
0F80
3FE0
7DF0
78F0
F078
F078
F078
F078
F078
F0F8
7DF0
3FE0
1FC0
ENDCHAR
STARTCHAR 00F7
ENCODING 247
SWIDTH 600 0
DWIDTH 15 0
BBX 13 11 1 1
BITMAP
0700
0700
0700
0000
FFF8
FFF8
FFF8
0000
0700
0700
0700
ENDCHAR
STARTCHAR 00F8
ENCODING 248
SWIDTH 600 0
DWIDTH 15 0
BBX 13 15 1 -1
BITMAP
0030
0FE0
3FE0
7DF0
79F0
F1F8
F378
F678
F678
FC78
FCF8
7DF0
3FE0
3FC0
6000
ENDCHAR
STARTCHAR 00F9
ENCODING 249
SWIDTH 600 0
DWIDTH 15 0
BBX 14 19 1 0
BITMAP
1C00
0E00
0E00
0700
0000
0000
F0F0
F0F0
F0F0
F0F0
F0F0
F0F0
F0F0
F0F0
F0F0
F8F0
7FF0
7FFC
3F7C
ENDCHAR
STARTCHAR 00FA
ENCODING 250
SWIDTH 600 0
DWIDTH 15 0
BBX 14 19 1 0
BITMAP
03C0
0380
0700
0700
0800
0000
F0F0
F0F0
F0F0
F0F0
F0F0
F0F0
F0F0
F0F0
F0F0
F8F0
7FF0
7FFC
3F7C
ENDCHAR
STARTCHAR 00FB
ENCODING 251
SWIDTH 600 0
DWIDTH 15 0
BBX 14 19 1 0
BITMAP
0F00
0F80
1DC0
38C0
4020
0000
F0F0
F0F0
F0F0
F0F0
F0F0
F0F0
F0F0
F0F0
F0F0
F8F0
7FF0
7FFC
3F7C
ENDCHAR
STARTCHAR 00FC
ENCODING 252
SWIDTH 600 0
DWIDTH 15 0
BBX 14 18 1 0
BITMAP
38E0
38E0
38E0
0000
0000
F0F0
F0F0
F0F0
F0F0
F0F0
F0F0
F0F0
F0F0
F0F0
F8F0
7FF0
7FFC
3F7C
ENDCHAR
STARTCHAR 00FD
ENCODING 253
SWIDTH 600 0
DWIDTH 15 0
BBX 13 24 1 -5
BITMAP
01C0
0380
0380
0700
0000
0000
F078
F078
7870
78F0
78F0
3CE0
3DE0
1FC0
1FC0
1FC0
0F80
0F80
0780
0F00
0F00
7E00
7C00
7000
ENDCHAR
STARTCHAR 00FE
ENCODING 254
SWIDTH 600 0
DWIDTH 15 0
BBX 12 23 2 -5
BITMAP
F000
F000
F000
F000
F000
F780
FFC0
FFE0
F0F0
F0F0
F0F0
F0F0
F0F0
F0F0
F0F0
F9E0
FFE0
F7C0
F000
F000
F000
F000
F000
ENDCHAR
STARTCHAR 00FF
ENCODING 255
SWIDTH 600 0
DWIDTH 15 0
BBX 13 23 1 -5
BITMAP
38E0
38E0
38E0
0000
0000
F078
F078
7870
78F0
78F0
3CE0
3DE0
1FC0
1FC0
1FC0
0F80
0F80
0780
0F00
0F00
7E00
7C00
7000
ENDCHAR
STARTCHAR 0100
ENCODING 256
SWIDTH 600 0
DWIDTH 15 0
BBX 15 21 0 0
BITMAP
1FF0
1FF0
0000
0000
07C0
0FE0
0FE0
0FE0
0EE0
1EF0
1EF0
1CF0
3C78
3C78
3C78
3FF8
7FFC
7FFC
783C
703C
F01E
ENDCHAR
STARTCHAR 0101
ENCODING 257
SWIDTH 600 0
DWIDTH 15 0
BBX 13 17 1 0
BITMAP
3FE0
3FE0
0000
0000
1FC0
7FE0
7FF0
70F0
00F0
0FF0
3FF0
7CF0
F0F0
F0F0
F9F0
7F78
3E78
ENDCHAR
STARTCHAR 0102
ENCODING 258
SWIDTH 600 0
DWIDTH 15 0
BBX 15 22 0 0
BITMAP
1C70
0FE0
0FC0
0000
0000
07C0
0FE0
0FE0
0FE0
0EE0
1EF0
1EF0
1CF0
3C78
3C78
3C78
3FF8
7FFC
7FFC
783C
703C
F01E
ENDCHAR
STARTCHAR 0103
ENCODING 259
SWIDTH 600 0
DWIDTH 15 0
BBX 13 19 1 0
BITMAP
3060
30E0
3FC0
1F80
0000
0000
1FC0
7FE0
7FF0
70F0
00F0
0FF0
3FF0
7CF0
F0F0
F0F0
F9F0
7F78
3E78
ENDCHAR
STARTCHAR 0104
ENCODING 260
SWIDTH 600 0
DWIDTH 15 0
BBX 16 21 0 -4
BITMAP
07C0
0FE0
0FE0
0FE0
0EE0
1EF0
1EF0
1CF0
3C78
3C78
3C78
3FF8
7FFC
7FFC
783C
703C
F01E
0038
0038
003F
001C
ENDCHAR
STARTCHAR 0105
ENCODING 261
SWIDTH 600 0
DWIDTH 15 0
BBX 15 17 1 -4
BITMAP
1FC0
7FE0
7FF0
70F0
00F0
0FF0
3FF0
7CF0
F0F0
F0F0
F9F0
7F78
3E78
0070
0070
007E
0038
ENDCHAR
STARTCHAR 0106
ENCODING 262
SWIDTH 600 0
DWIDTH 15 0
BBX 14 22 0 0
BITMAP
00F0
01C0
03C0
0000
0000
0FE0
3FF8
7FF8
787C
783C
F83C
F83C
F800
F800
F800
F83C
783C
783C
7C7C
3FF8
3FF0
0FE0
ENDCHAR
STARTCHAR 0107
ENCODING 263
SWIDTH 600 0
DWIDTH 15 0
BBX 12 19 1 0
BITMAP
03C0
0380
0700
0700
0000
0000
0F80
3FE0
7DF0
7870
F070
F000
F000
F000
F070
7870
78F0
3FE0
1FC0
ENDCHAR
STARTCHAR 0108
ENCODING 264
SWIDTH 600 0
DWIDTH 15 0
BBX 14 22 0 0
BITMAP
07C0
0EE0
1C70
0000
0000
0FE0
3FF8
7FF8
787C
783C
F83C
F83C
F800
F800
F800
F83C
783C
783C
7C7C
3FF8
3FF0
0FE0
ENDCHAR
STARTCHAR 0109
ENCODING 265
SWIDTH 600 0
DWIDTH 15 0
BBX 12 19 1 0
BITMAP
0700
0F80
1DC0
38E0
0000
0000
0F80
3FE0
7DF0
7870
F070
F000
F000
F000
F070
7870
78F0
3FE0
1FC0
ENDCHAR
STARTCHAR 010A
ENCODING 266
SWIDTH 600 0
DWIDTH 15 0
BBX 14 22 0 0
BITMAP
0380
0380
0380
0000
0000
0FE0
3FF8
7FF8
787C
783C
F83C
F83C
F800
F800
F800
F83C
783C
783C
7C7C
3FF8
3FF0
0FE0
ENDCHAR
STARTCHAR 010B
ENCODING 267
SWIDTH 600 0
DWIDTH 15 0
BBX 12 18 1 0
BITMAP
0700
0700
0700
0000
0000
0F80
3FE0
7DF0
7870
F070
F000
F000
F000
F070
7870
78F0
3FE0
1FC0
ENDCHAR
STARTCHAR 010C
ENCODING 268
SWIDTH 600 0
DWIDTH 15 0
BBX 14 22 0 0
BITMAP
1C70
0EE0
07C0
0000
0000
0FE0
3FF8
7FF8
787C
783C
F83C
F83C
F800
F800
F800
F83C
783C
783C
7C7C
3FF8
3FF0
0FE0
ENDCHAR
STARTCHAR 010D
ENCODING 269
SWIDTH 600 0
DWIDTH 15 0
BBX 12 19 1 0
BITMAP
38E0
1DC0
1D80
0F80
0000
0000
0F80
3FE0
7DF0
7870
F070
F000
F000
F000
F070
7870
78F0
3FE0
1FC0
ENDCHAR
STARTCHAR 010E
ENCODING 270
SWIDTH 600 0
DWIDTH 15 0
BBX 14 22 1 0
BITMAP
38E0
1DC0
0F80
0000
0000
FFC0
FFF0
FFF8
F878
F87C
F83C
F83C
F83C
F83C
F83C
F83C
F87C
F87C
F8F8
FFF8
FFF0
FFC0
ENDCHAR
STARTCHAR 010F
ENCODING 271
SWIDTH 600 0
DWIDTH 15 0
BBX 17 18 1 0
BITMAP
00F000
00F380
00F380
00F380
00F180
1EF180
3FF100
7FF300
F0F000
F0F000
F0F000
F0F000
F0F000
F0F000
F0F000
79F000
7FF000
3F7000
ENDCHAR
STARTCHAR 0110
ENCODING 272
SWIDTH 600 0
DWIDTH 15 0
BBX 15 17 0 0
BITMAP
7FE0
7FF8
7FFC
7C3C
7C3E
7C1E
7C1E
FF9E
FF9E
FF9E
7C1E
7C3E
7C3E
7C7C
7FFC
7FF8
7FE0
ENDCHAR
STARTCHAR 0111
ENCODING 273
SWIDTH 600 0
DWIDTH 15 0
BBX 14 18 1 0
BITMAP
00F0
00F0
0FFC
0FFC
00F0
1EF0
3FF0
7FF0
F0F0
F0F0
F0F0
F0F0
F0F0
F0F0
F0F0
79F0
7FF0
3F70
ENDCHAR
STARTCHAR 0112
ENCODING 274
SWIDTH 600 0
DWIDTH 15 0
BBX 12 21 2 0
BITMAP
3FC0
3FC0
0000
0000
FFF0
FFE0
FFE0
F000
F000
F000
F000
FFE0
FFE0
FFE0
F000
F000
F000
F000
FFE0
FFF0
FFF0
ENDCHAR
STARTCHAR 0113
ENCODING 275
SWIDTH 600 0
DWIDTH 15 0
BBX 13 17 1 0
BITMAP
3FE0
3FE0
0000
0000
0FC0
3FE0
7FF0
7870
F078
FFF8
FFF8
F000
F078
F878
7CF0
3FF0
1FC0
ENDCHAR
STARTCHAR 0114
ENCODING 276
SWIDTH 600 0
DWIDTH 15 0
BBX 12 22 2 0
BITMAP
70C0
3FC0
1F80
0000
0000
FFF0
FFE0
FFE0
F000
F000
F000
F000
FFE0
FFE0
FFE0
F000
F000
F000
F000
FFE0
FFF0
FFF0
ENDCHAR
STARTCHAR 0115
ENCODING 277
SWIDTH 600 0
DWIDTH 15 0
BBX 13 19 1 0
BITMAP
3060
3860
1FE0
0FC0
0000
0000
0FC0
3FE0
7FF0
7870
F078
FFF8
FFF8
F000
F078
F878
7CF0
3FF0
1FC0
ENDCHAR
STARTCHAR 0116
ENCODING 278
SWIDTH 600 0
DWIDTH 15 0
BBX 12 22 2 0
BITMAP
0E00
0E00
0E00
0000
0000
FFF0
FFE0
FFE0
F000
F000
F000
F000
FFE0
FFE0
FFE0
F000
F000
F000
F000
FFE0
FFF0
FFF0
ENDCHAR
STARTCHAR 0117
ENCODING 279
SWIDTH 600 0
DWIDTH 15 0
BBX 13 18 1 0
BITMAP
0700
0700
0700
0000
0000
0FC0
3FE0
7FF0
7870
F078
FFF8
FFF8
F000
F078
F878
7CF0
3FF0
1FC0
ENDCHAR
STARTCHAR 0118
ENCODING 280
SWIDTH 600 0
DWIDTH 15 0
BBX 12 21 2 -4
BITMAP
FFF0
FFE0
FFE0
F000
F000
F000
F000
FFE0
FFE0
FFE0
F000
F000
F000
F000
FFE0
FFF0
FFF0
01C0
0180
01F0
00E0
ENDCHAR
STARTCHAR 0119
ENCODING 281
SWIDTH 600 0
DWIDTH 15 0
BBX 13 17 1 -4
BITMAP
0FC0
3FE0
7FF0
7870
F078
FFF8
FFF8
F000
F078
F878
7CF0
3FF0
1FC0
0300
0700
07E0
0380
ENDCHAR
STARTCHAR 011A
ENCODING 282
SWIDTH 600 0
DWIDTH 15 0
BBX 12 22 2 0
BITMAP
71C0
3B80
1F00
0000
0000
FFF0
FFE0
FFE0
F000
F000
F000
F000
FFE0
FFE0
FFE0
F000
F000
F000
F000
FFE0
FFF0
FFF0
ENDCHAR
STARTCHAR 011B
ENCODING 283
SWIDTH 600 0
DWIDTH 15 0
BBX 13 19 1 0
BITMAP
38F0
1CC0
0FC0
0F80
0000
0000
0FC0
3FE0
7FF0
7870
F078
FFF8
FFF8
F000
F078
F878
7CF0
3FF0
1FC0
ENDCHAR
STARTCHAR 011C
ENCODING 284
SWIDTH 600 0
DWIDTH 15 0
BBX 14 22 0 0
BITMAP
07C0
0EE0
1C70
0000
0000
1FE0
3FF8
7FF8
783C
783C
F83C
F800
F800
F9FC
F9FC
F83C
783C
783C
7C7C
3FFC
3FEC
0FCC
ENDCHAR
STARTCHAR 011D
ENCODING 285
SWIDTH 600 0
DWIDTH 15 0
BBX 14 23 1 -5
BITMAP
0F80
1DC0
38E0
000C
001C
1FFC
3FF0
7CF0
7870
7870
78F0
3FF0
3FC0
7000
F000
7FF0
7FF8
7FFC
E03C
E03C
FFF8
FFF8
3FE0
ENDCHAR
STARTCHAR 011E
ENCODING 286
SWIDTH 600 0
DWIDTH 15 0
BBX 14 22 0 0
BITMAP
1C70
0FE0
0FC0
0000
0000
1FE0
3FF8
7FF8
783C
783C
F83C
F800
F800
F9FC
F9FC
F83C
783C
783C
7C7C
3FFC
3FEC
0FCC
ENDCHAR
STARTCHAR 011F
ENCODING 287
SWIDTH 600 0
DWIDTH 15 0
BBX 14 24 1 -5
BITMAP
3060
38E0
3FC0
1F80
001C
0038
1FF8
3FE0
7CF0
7870
7870
78F0
3FF0
3FC0
7000
F000
7FF0
7FF8
7FFC
E03C
E03C
FFF8
FFF8
3FE0
ENDCHAR
STARTCHAR 0120
ENCODING 288
SWIDTH 600 0
DWIDTH 15 0
BBX 14 22 0 0
BITMAP
0380
0380
0380
0000
0000
1FE0
3FF8
7FF8
783C
783C
F83C
F800
F800
F9FC
F9FC
F83C
783C
783C
7C7C
3FFC
3FEC
0FCC
ENDCHAR
STARTCHAR 0121
ENCODING 289
SWIDTH 600 0
DWIDTH 15 0
BBX 14 23 1 -5
BITMAP
0700
0700
0700
001C
0038
1FF8
3FE0
7CF0
7870
7870
78F0
3FF0
3FC0
7000
F000
7FF0
7FF8
7FFC
E03C
E03C
FFF8
FFF8
3FE0
ENDCHAR
STARTCHAR 0122
ENCODING 290
SWIDTH 600 0
DWIDTH 15 0
BBX 14 26 0 -9
BITMAP
1FE0
3FF8
7FF8
783C
783C
F83C
F800
F800
F9FC
F9FC
F83C
783C
783C
7C7C
3FFC
3FEC
0FCC
0000
0000
0380
0380
0380
0180
0180
0180
0300
ENDCHAR
STARTCHAR 0123
ENCODING 291
SWIDTH 600 0
DWIDTH 15 0
BBX 14 28 1 -5
BITMAP
0300
0300
0600
0600
0700
0700
0700
0700
001C
0038
1FF8
3FE0
7CF0
7870
7870
78F0
3FF0
3FC0
7000
F000
7FF0
7FF8
7FFC
E03C
E03C
FFF8
FFF8
3FE0
ENDCHAR
STARTCHAR 0124
ENCODING 292
SWIDTH 600 0
DWIDTH 15 0
BBX 13 22 1 0
BITMAP
0F80
1DC0
38E0
0000
0000
F078
F078
F078
F078
F078
F078
F078
FFF8
FFF8
FFF8
F078
F078
F078
F078
F078
F078
F078
ENDCHAR
STARTCHAR 0125
ENCODING 293
SWIDTH 600 0
DWIDTH 15 0
BBX 14 22 -1 0
BITMAP
3E00
7700
E380
0000
1E00
1E00
1E00
1E00
1E00
1EF8
1FFC
1FFC
1E3C
1E3C
1E3C
1E3C
1E3C
1E3C
1E3C
1E3C
1E3C
1E3C
ENDCHAR
STARTCHAR 0126
ENCODING 294
SWIDTH 600 0
DWIDTH 15 0
BBX 15 17 0 0
BITMAP
783C
783C
FFFE
FFFE
FFFE
783C
783C
7FFC
7FFC
7FFC
783C
783C
783C
783C
783C
783C
783C
ENDCHAR
STARTCHAR 0127
ENCODING 295
SWIDTH 600 0
DWIDTH 15 0
BBX 13 18 0 0
BITMAP
3C00
3C00
FFC0
FFC0
3C00
3DF0
3FF8
3FF8
3C78
3C78
3C78
3C78
3C78
3C78
3C78
3C78
3C78
3C78
ENDCHAR
STARTCHAR 0128
ENCODING 296
SWIDTH 600 0
DWIDTH 15 0
BBX 11 22 2 0
BITMAP
3CC0
7FC0
6780
0000
0000
FFE0
FFE0
FFE0
1F00
1F00
1F00
1F00
1F00
1F00
1F00
1F00
1F00
1F00
1F00
FFE0
FFE0
FFE0
ENDCHAR
STARTCHAR 0129
ENCODING 297
SWIDTH 600 0
DWIDTH 15 0
BBX 12 19 2 0
BITMAP
1860
3E60
7FE0
63C0
0000
0000
FF00
FF00
FF00
0F00
0F00
0F00
0F00
0F00
0F00
0F00
FFF0
FFF0
FFF0
ENDCHAR
STARTCHAR 012A
ENCODING 298
SWIDTH 600 0
DWIDTH 15 0
BBX 11 21 2 0
BITMAP
7FC0
7FC0
0000
0000
FFE0
FFE0
FFE0
1F00
1F00
1F00
1F00
1F00
1F00
1F00
1F00
1F00
1F00
1F00
FFE0
FFE0
FFE0
ENDCHAR
STARTCHAR 012B
ENCODING 299
SWIDTH 600 0
DWIDTH 15 0
BBX 12 17 2 0
BITMAP
3FC0
3FC0
0000
0000
FF00
FF00
FF00
0F00
0F00
0F00
0F00
0F00
0F00
0F00
FFF0
FFF0
FFF0
ENDCHAR
STARTCHAR 012C
ENCODING 300
SWIDTH 600 0
DWIDTH 15 0
BBX 11 22 2 0
BITMAP
71C0
3F80
3F00
0000
0000
FFE0
FFE0
FFE0
1F00
1F00
1F00
1F00
1F00
1F00
1F00
1F00
1F00
1F00
1F00
FFE0
FFE0
FFE0
ENDCHAR
STARTCHAR 012D
ENCODING 301
SWIDTH 600 0
DWIDTH 15 0
BBX 12 19 2 0
BITMAP
30E0
30C0
3FC0
1F80
0000
0000
FF00
FF00
FF00
0F00
0F00
0F00
0F00
0F00
0F00
0F00
FFF0
FFF0
FFF0
ENDCHAR
STARTCHAR 012E
ENCODING 302
SWIDTH 600 0
DWIDTH 15 0
BBX 11 21 2 -4
BITMAP
FFE0
FFE0
FFE0
1F00
1F00
1F00
1F00
1F00
1F00
1F00
1F00
1F00
1F00
1F00
FFE0
FFE0
FFE0
0380
0300
03E0
01C0
ENDCHAR
STARTCHAR 012F
ENCODING 303
SWIDTH 600 0
DWIDTH 15 0
BBX 12 22 2 -4
BITMAP
0700
0700
0700
0000
0000
FF00
FF00
FF00
0F00
0F00
0F00
0F00
0F00
0F00
0F00
FFF0
FFF0
FFF0
0600
0E00
0FC0
0300
ENDCHAR
STARTCHAR 0130
ENCODING 304
SWIDTH 600 0
DWIDTH 15 0
BBX 11 22 2 0
BITMAP
0E00
0E00
0E00
0000
0000
FFE0
FFE0
FFE0
1F00
1F00
1F00
1F00
1F00
1F00
1F00
1F00
1F00
1F00
1F00
FFE0
FFE0
FFE0
ENDCHAR
STARTCHAR 0131
ENCODING 305
SWIDTH 600 0
DWIDTH 15 0
BBX 12 13 2 0
BITMAP
FF00
FF00
FF00
0F00
0F00
0F00
0F00
0F00
0F00
0F00
FFF0
FFF0
FFF0
ENDCHAR
STARTCHAR 0132
ENCODING 306
SWIDTH 600 0
DWIDTH 15 0
BBX 13 17 1 0
BITMAP
F878
F878
F878
F878
F878
F878
F878
F878
F878
F878
0078
0078
F878
F8F8
7FF0
7FF0
1FC0
ENDCHAR
STARTCHAR 0133
ENCODING 307
SWIDTH 600 0
DWIDTH 15 0
BBX 11 23 2 -5
BITMAP
F1E0
F1E0
F1E0
0000
0000
F7E0
F7E0
F7E0
F1E0
F1E0
F1E0
F1E0
F1E0
F1E0
F1E0
F1E0
F1E0
F1E0
01E0
11E0
1FE0
1FC0
0700
ENDCHAR
STARTCHAR 0134
ENCODING 308
SWIDTH 600 0
DWIDTH 15 0
BBX 14 22 2 0
BITMAP
01F0
03B0
073C
0800
0000
01E0
01E0
01E0
01E0
01E0
01E0
01E0
01E0
01E0
01E0
01E0
F1E0
F1E0
F1E0
FFE0
7FC0
3F80
ENDCHAR
STARTCHAR 0135
ENCODING 309
SWIDTH 600 0
DWIDTH 15 0
BBX 11 24 2 -5
BITMAP
0F00
0F80
1DC0
39C0
4020
0000
FF00
FF00
FF00
0F00
0F00
0F00
0F00
0F00
0F00
0F00
0F00
0F00
0F00
0F00
8F00
FF00
FE00
3800
ENDCHAR
STARTCHAR 0136
ENCODING 310
SWIDTH 600 0
DWIDTH 15 0
BBX 14 26 1 -9
BITMAP
F07C
F0F8
F0F0
F1F0
F1E0
F3C0
F7C0
F780
FF80
FFC0
FFC0
FBE0
F9E0
F1F0
F0F0
F0F8
F07C
0000
0000
0700
0700
0700
0300
0300
0300
0600
ENDCHAR
STARTCHAR 0137
ENCODING 311
SWIDTH 600 0
DWIDTH 15 0
BBX 13 27 2 -9
BITMAP
E000
E000
E000
E000
E000
E0F0
E1E0
E3E0
E7C0
E780
EF00
FF00
FF80
FF80
F7C0
E3E0
E1E0
E0F8
0000
0000
0E00
0E00
0E00
0600
0600
0600
0C00
ENDCHAR
STARTCHAR 0138
ENCODING 312
SWIDTH 600 0
DWIDTH 15 0
BBX 13 13 2 0
BITMAP
E0F0
E1E0
E3E0
E7C0
E780
EF00
FF00
FF80
FF80
F7C0
E3E0
E1E0
E0F8
ENDCHAR
STARTCHAR 0139
ENCODING 313
SWIDTH 600 0
DWIDTH 15 0
BBX 12 22 2 0
BITMAP
3E00
3800
7000
0000
0000
F000
F000
F000
F000
F000
F000
F000
F000
F000
F000
F000
F000
F000
F000
FFE0
FFE0
FFF0
ENDCHAR
STARTCHAR 013A
ENCODING 314
SWIDTH 600 0
DWIDTH 15 0
BBX 12 22 2 0
BITMAP
03C0
0700
0F00
0000
FF00
FF00
FF00
0F00
0F00
0F00
0F00
0F00
0F00
0F00
0F00
0F00
0F00
0F00
0F00
FFF0
FFF0
FFF0
ENDCHAR
STARTCHAR 013B
ENCODING 315
SWIDTH 600 0
DWIDTH 15 0
BBX 12 26 2 -9
BITMAP
F000
F000
F000
F000
F000
F000
F000
F000
F000
F000
F000
F000
F000
F000
FFE0
FFE0
FFF0
0000
0000
0F00
0F00
0F00
0300
0300
0600
0E00
ENDCHAR
STARTCHAR 013C
ENCODING 316
SWIDTH 600 0
DWIDTH 15 0
BBX 12 27 2 -9
BITMAP
FF00
FF00
FF00
0F00
0F00
0F00
0F00
0F00
0F00
0F00
0F00
0F00
0F00
0F00
0F00
FFF0
FFF0
FFF0
0000
0000
0E00
0E00
0E00
0600
0600
0600
0C00
ENDCHAR
STARTCHAR 013D
ENCODING 317
SWIDTH 600 0
DWIDTH 15 0
BBX 12 17 2 0
BITMAP
F1E0
F1E0
F1E0
F060
F060
F0C0
F1C0
F000
F000
F000
F000
F000
F000
F000
FFE0
FFE0
FFF0
ENDCHAR
STARTCHAR 013E
ENCODING 318
SWIDTH 600 0
DWIDTH 15 0
BBX 13 18 2 0
BITMAP
FF00
FF78
FF78
0F78
0F18
0F30
0F30
0F60
0F00
0F00
0F00
0F00
0F00
0F00
0F00
FFF0
FFF0
FFF0
ENDCHAR
STARTCHAR 013F
ENCODING 319
SWIDTH 600 0
DWIDTH 15 0
BBX 12 17 2 0
BITMAP
F000
F000
F000
F000
F000
F1E0
F1E0
F1E0
F1E0
F000
F000
F000
F000
F000
FFE0
FFE0
FFF0
ENDCHAR
STARTCHAR 0140
ENCODING 320
SWIDTH 600 0
DWIDTH 15 0
BBX 15 18 2 0
BITMAP
FF00
FF00
FF00
0F00
0F00
0F00
0F00
0F1E
0F1E
0F1E
0F1E
0F00
0F00
0F00
0F00
FFF0
FFF0
FFF0
ENDCHAR
STARTCHAR 0141
ENCODING 321
SWIDTH 600 0
DWIDTH 15 0
BBX 13 17 1 0
BITMAP
7800
7800
7800
7800
7800
7900
7F00
7F00
7C00
F800
F800
7800
7800
7800
7FF0
7FF0
7FF8
ENDCHAR
STARTCHAR 0142
ENCODING 322
SWIDTH 600 0
DWIDTH 15 0
BBX 12 18 2 0
BITMAP
FF00
FF00
FF00
0F00
0F00
0F20
0FE0
0FC0
0F00
3F00
FF00
CF00
0F00
0F00
0F00
FFF0
FFF0
FFF0
ENDCHAR
STARTCHAR 0143
ENCODING 323
SWIDTH 600 0
DWIDTH 15 0
BBX 13 22 1 0
BITMAP
01E0
0380
0780
0000
0000
F878
F878
FC78
FC78
FC78
FE78
FE78
FF78
F778
F7F8
F3F8
F3F8
F1F8
F1F8
F0F8
F0F8
F078
ENDCHAR
STARTCHAR 0144
ENCODING 324
SWIDTH 600 0
DWIDTH 15 0
BBX 11 19 2 0
BITMAP
0380
0700
0700
0E00
0000
0000
E780
FFE0
FFE0
F1E0
F1E0
F1E0
F1E0
F1E0
F1E0
F1E0
F1E0
F1E0
F1E0
ENDCHAR
STARTCHAR 0145
ENCODING 325
SWIDTH 600 0
DWIDTH 15 0
BBX 13 26 1 -9
BITMAP
F878
F878
FC78
FC78
FC78
FE78
FE78
FF78
F778
F7F8
F3F8
F3F8
F1F8
F1F8
F0F8
F0F8
F078
0000
0000
0700
0700
0700
0300
0300
0300
0600
ENDCHAR
STARTCHAR 0146
ENCODING 326
SWIDTH 600 0
DWIDTH 15 0
BBX 11 22 2 -9
BITMAP
E780
FFE0
FFE0
F1E0
F1E0
F1E0
F1E0
F1E0
F1E0
F1E0
F1E0
F1E0
F1E0
0000
0000
0E00
0E00
0E00
0600
0600
0600
0C00
ENDCHAR
STARTCHAR 0147
ENCODING 327
SWIDTH 600 0
DWIDTH 15 0
BBX 13 22 1 0
BITMAP
38E0
1DC0
0F80
0000
0000
F878
F878
FC78
FC78
FC78
FE78
FE78
FF78
F778
F7F8
F3F8
F3F8
F1F8
F1F8
F0F8
F0F8
F078
ENDCHAR
STARTCHAR 0148
ENCODING 328
SWIDTH 600 0
DWIDTH 15 0
BBX 11 19 2 0
BITMAP
71C0
3B80
1B80
1F00
0000
0000
E780
FFE0
FFE0
F1E0
F1E0
F1E0
F1E0
F1E0
F1E0
F1E0
F1E0
F1E0
F1E0
ENDCHAR
STARTCHAR 0149
ENCODING 329
SWIDTH 600 0
DWIDTH 15 0
BBX 12 20 1 0
BITMAP
E000
E000
E000
6000
4000
C000
0000
73C0
7FF0
7FF0
78F0
78F0
78F0
78F0
78F0
78F0
78F0
78F0
78F0
78F0
ENDCHAR
STARTCHAR 014A
ENCODING 330
SWIDTH 600 0
DWIDTH 15 0
BBX 13 22 1 -5
BITMAP
F878
F878
FC78
FC78
FC78
FE78
FE78
FF78
F778
F7F8
F3F8
F3F8
F1F8
F1F8
F0F8
F0F8
F0F8
0078
00F8
03F0
03F0
01C0
ENDCHAR
STARTCHAR 014B
ENCODING 331
SWIDTH 600 0
DWIDTH 15 0
BBX 11 18 2 -5
BITMAP
E780
FFE0
FFE0
F1E0
F1E0
F1E0
F1E0
F1E0
F1E0
F1E0
F1E0
F1E0
F1E0
01E0
01E0
0FE0
0FE0
0300
ENDCHAR
STARTCHAR 014C
ENCODING 332
SWIDTH 600 0
DWIDTH 15 0
BBX 15 21 0 0
BITMAP
1FF0
1FF0
0000
0000
0FE0
3FF8
7FFC
7C3C
783C
F83E
F83E
F83E
F83E
F83E
F83E
783E
783C
7C7C
3FF8
3FF8
0FE0
ENDCHAR
STARTCHAR 014D
ENCODING 333
SWIDTH 600 0
DWIDTH 15 0
BBX 13 17 1 0
BITMAP
3FE0
3FE0
0000
0000
0F80
3FE0
7DF0
78F0
F078
F078
F078
F078
F078
F0F8
7DF0
3FE0
1FC0
ENDCHAR
STARTCHAR 014E
ENCODING 334
SWIDTH 600 0
DWIDTH 15 0
BBX 15 22 0 0
BITMAP
1C70
0FE0
0FC0
0000
0000
0FE0
3FF8
7FFC
7C3C
783C
F83E
F83E
F83E
F83E
F83E
F83E
783E
783C
7C7C
3FF8
3FF8
0FE0
ENDCHAR
STARTCHAR 014F
ENCODING 335
SWIDTH 600 0
DWIDTH 15 0
BBX 13 19 1 0
BITMAP
3060
38E0
3FC0
1F80
0000
0000
0F80
3FE0
7DF0
78F0
F078
F078
F078
F078
F078
F0F8
7DF0
3FE0
1FC0
ENDCHAR
STARTCHAR 0150
ENCODING 336
SWIDTH 600 0
DWIDTH 15 0
BBX 15 22 0 0
BITMAP
07BC
0778
0E70
0080
0000
0FE0
3FF8
7FFC
7C3C
783C
F83E
F83E
F83E
F83E
F83E
F83E
783E
783C
7C7C
3FF8
3FF8
0FE0
ENDCHAR
STARTCHAR 0151
ENCODING 337
SWIDTH 600 0
DWIDTH 15 0
BBX 13 18 1 0
BITMAP
0F78
1EF0
1CE0
2100
0000
0F80
3FE0
7DF0
78F0
F078
F078
F078
F078
F078
F0F8
7DF0
3FE0
1FC0
ENDCHAR
STARTCHAR 0152
ENCODING 338
SWIDTH 600 0
DWIDTH 15 0
BBX 15 17 0 0
BITMAP
1FFE
3FFC
7FFC
78E0
70E0
F0E0
F0E0
F0FC
F0FC
F0FC
F0E0
F0E0
70E0
78E0
7FFE
3FFE
0FFE
ENDCHAR
STARTCHAR 0153
ENCODING 339
SWIDTH 600 0
DWIDTH 15 0
BBX 15 13 0 0
BITMAP
3C78
7EFC
77DC
E38E
E38E
E3FE
E3FE
E380
E38E
E38E
77DC
7EFC
3EF8
ENDCHAR
STARTCHAR 0154
ENCODING 340
SWIDTH 600 0
DWIDTH 15 0
BBX 15 22 1 0
BITMAP
01E0
0380
0780
0000
0000
FFE0
FFF8
FFF8
F078
F07C
F078
F078
FFF0
FFE0
FFF0
F1F8
F078
F078
F078
F078
F07C
F03E
ENDCHAR
STARTCHAR 0155
ENCODING 341
SWIDTH 600 0
DWIDTH 15 0
BBX 13 19 1 0
BITMAP
01C0
0380
0380
0700
0000
0000
FCF0
FFF8
FFF8
1E38
1E38
1E00
1E00
1E00
1E00
1E00
FFF0
FFF0
FFF0
ENDCHAR
STARTCHAR 0156
ENCODING 342
SWIDTH 600 0
DWIDTH 15 0
BBX 15 26 1 -9
BITMAP
FFE0
FFF8
FFF8
F078
F07C
F078
F078
FFF0
FFE0
FFF0
F1F8
F078
F078
F078
F078
F07C
F03E
0000
0000
0780
0780
0780
0100
0100
0300
0700
ENDCHAR
STARTCHAR 0157
ENCODING 343
SWIDTH 600 0
DWIDTH 15 0
BBX 13 22 1 -9
BITMAP
FCF0
FFF8
FFF8
1E38
1E38
1E00
1E00
1E00
1E00
1E00
FFF0
FFF0
FFF0
0000
0000
0F00
0F00
0F00
0300
0200
0600
0E00
ENDCHAR
STARTCHAR 0158
ENCODING 344
SWIDTH 600 0
DWIDTH 15 0
BBX 15 22 1 0
BITMAP
38E0
1DC0
0F80
0000
0000
FFE0
FFF8
FFF8
F078
F07C
F078
F078
FFF0
FFE0
FFF0
F1F8
F078
F078
F078
F078
F07C
F03E
ENDCHAR
STARTCHAR 0159
ENCODING 345
SWIDTH 600 0
DWIDTH 15 0
BBX 13 19 1 0
BITMAP
38F0
1CE0
0FC0
0780
0000
0000
FCF0
FFF8
FFF8
1E38
1E38
1E00
1E00
1E00
1E00
1E00
FFF0
FFF0
FFF0
ENDCHAR
STARTCHAR 015A
ENCODING 346
SWIDTH 600 0
DWIDTH 15 0
BBX 15 22 0 0
BITMAP
00F0
01C0
03C0
0000
0000
1FF0
3FF8
7FFC
783C
783C
7C00
7F80
3FF0
1FF8
07FC
00FC
F03E
703C
783C
7FFC
3FF8
1FE0
ENDCHAR
STARTCHAR 015B
ENCODING 347
SWIDTH 600 0
DWIDTH 15 0
BBX 13 19 1 0
BITMAP
03C0
0380
0700
0700
0000
0000
1FC0
3FE0
7DF0
7070
7800
7FC0
3FF0
1FF0
00F8
F078
78F0
7FF0
3FC0
ENDCHAR
STARTCHAR 015C
ENCODING 348
SWIDTH 600 0
DWIDTH 15 0
BBX 15 22 0 0
BITMAP
07C0
0EE0
1C70
0000
0000
1FF0
3FF8
7FFC
783C
783C
7C00
7F80
3FF0
1FF8
07FC
00FC
F03E
703C
783C
7FFC
3FF8
1FE0
ENDCHAR
STARTCHAR 015D
ENCODING 349
SWIDTH 600 0
DWIDTH 15 0
BBX 13 19 1 0
BITMAP
0700
0F80
1DC0
38E0
0000
0000
1FC0
3FE0
7DF0
7070
7800
7FC0
3FF0
1FF0
00F8
F078
78F0
7FF0
3FC0
ENDCHAR
STARTCHAR 015E
ENCODING 350
SWIDTH 600 0
DWIDTH 15 0
BBX 15 22 0 -5
BITMAP
1FF0
3FF8
7FFC
783C
783C
7C00
7F80
3FF0
1FF8
07FC
00FC
F03E
703C
783C
7FFC
3FF8
1FE0
0000
01C0
00C0
04C0
07C0
ENDCHAR
STARTCHAR 015F
ENCODING 351
SWIDTH 600 0
DWIDTH 15 0
BBX 13 18 1 -5
BITMAP
1FC0
3FE0
7DF0
7070
7800
7FC0
3FF0
1FF0
00F8
F078
78F0
7FF0
3FC0
0000
0380
0180
0980
0F80
ENDCHAR
STARTCHAR 0160
ENCODING 352
SWIDTH 600 0
DWIDTH 15 0
BBX 15 22 0 0
BITMAP
1C70
0EE0
07C0
0000
0000
1FF0
3FF8
7FFC
783C
783C
7C00
7F80
3FF0
1FF8
07FC
00FC
F03E
703C
783C
7FFC
3FF8
1FE0
ENDCHAR
STARTCHAR 0161
ENCODING 353
SWIDTH 600 0
DWIDTH 15 0
BBX 13 19 1 0
BITMAP
38E0
1DC0
1D80
0F80
0000
0000
1FC0
3FE0
7DF0
7070
7800
7FC0
3FF0
1FF0
00F8
F078
78F0
7FF0
3FC0
ENDCHAR
STARTCHAR 0162
ENCODING 354
SWIDTH 600 0
DWIDTH 15 0
BBX 13 22 1 -5
BITMAP
FFF8
FFF8
FFF8
0F80
0F80
0F80
0F80
0F80
0F80
0F80
0F80
0F80
0F80
0F80
0F80
0F80
0F80
0000
0380
0180
0980
0F80
ENDCHAR
STARTCHAR 0163
ENCODING 355
SWIDTH 600 0
DWIDTH 15 0
BBX 13 22 1 -5
BITMAP
0600
0E00
0E00
0E00
FFF8
FFF8
FFF8
1E00
1E00
1E00
1E00
1E00
1E00
1F00
0FF8
0FF8
07F8
0000
01C0
0060
0460
07C0
ENDCHAR
STARTCHAR 0164
ENCODING 356
SWIDTH 600 0
DWIDTH 15 0
BBX 13 22 1 0
BITMAP
38E0
1DC0
0F80
0000
0000
FFF8
FFF8
FFF8
0F80
0F80
0F80
0F80
0F80
0F80
0F80
0F80
0F80
0F80
0F80
0F80
0F80
0F80
ENDCHAR
STARTCHAR 0165
ENCODING 357
SWIDTH 600 0
DWIDTH 15 0
BBX 13 21 1 0
BITMAP
0070
0070
0070
0070
0630
0E30
0E60
0E00
FFF8
FFF8
FFF8
1E00
1E00
1E00
1E00
1E00
1E00
1F00
0FF8
0FF8
07F8
ENDCHAR
STARTCHAR 0166
ENCODING 358
SWIDTH 600 0
DWIDTH 15 0
BBX 13 17 1 0
BITMAP
FFF8
FFF8
FFF8
0F80
0F80
0F80
0F80
0F80
7FF0
7FF0
0F80
0F80
0F80
0F80
0F80
0F80
0F80
ENDCHAR
STARTCHAR 0167
ENCODING 359
SWIDTH 600 0
DWIDTH 15 0
BBX 13 17 1 0
BITMAP
0600
0E00
0E00
0E00
FFF8
FFF8
FFF8
1E00
1E00
7FE0
7FE0
1E00
1E00
1F00
0FF8
0FF8
07F8
ENDCHAR
STARTCHAR 0168
ENCODING 360
SWIDTH 600 0
DWIDTH 15 0
BBX 13 22 1 0
BITMAP
1E60
3FE0
33C0
0000
0000
F078
F078
F078
F078
F078
F078
F078
F078
F078
F078
F078
F078
F078
F8F8
7FF0
7FF0
1FC0
ENDCHAR
STARTCHAR 0169
ENCODING 361
SWIDTH 600 0
DWIDTH 15 0
BBX 14 19 1 0
BITMAP
0820
3E60
3FE0
63C0
0000
0000
F0F0
F0F0
F0F0
F0F0
F0F0
F0F0
F0F0
F0F0
F0F0
F8F0
7FF0
7FFC
3F7C
ENDCHAR
STARTCHAR 016A
ENCODING 362
SWIDTH 600 0
DWIDTH 15 0
BBX 13 21 1 0
BITMAP
3FE0
3FE0
0000
0000
F078
F078
F078
F078
F078
F078
F078
F078
F078
F078
F078
F078
F078
F8F8
7FF0
7FF0
1FC0
ENDCHAR
STARTCHAR 016B
ENCODING 363
SWIDTH 600 0
DWIDTH 15 0
BBX 14 17 1 0
BITMAP
3FE0
3FE0
0000
0000
F0F0
F0F0
F0F0
F0F0
F0F0
F0F0
F0F0
F0F0
F0F0
F8F0
7FF0
7FFC
3F7C
ENDCHAR
STARTCHAR 016C
ENCODING 364
SWIDTH 600 0
DWIDTH 15 0
BBX 13 22 1 0
BITMAP
38E0
1FC0
1F80
0000
0000
F078
F078
F078
F078
F078
F078
F078
F078
F078
F078
F078
F078
F078
F8F8
7FF0
7FF0
1FC0
ENDCHAR
STARTCHAR 016D
ENCODING 365
SWIDTH 600 0
DWIDTH 15 0
BBX 14 19 1 0
BITMAP
3060
30E0
3FC0
1F80
0000
0000
F0F0
F0F0
F0F0
F0F0
F0F0
F0F0
F0F0
F0F0
F0F0
F8F0
7FF0
7FFC
3F7C
ENDCHAR
STARTCHAR 016E
ENCODING 366
SWIDTH 600 0
DWIDTH 15 0
BBX 13 24 1 0
BITMAP
0300
0F80
0C80
0D80
0F80
0000
0000
F078
F078
F078
F078
F078
F078
F078
F078
F078
F078
F078
F078
F078
F8F8
7FF0
7FF0
1FC0
ENDCHAR
STARTCHAR 016F
ENCODING 367
SWIDTH 600 0
DWIDTH 15 0
BBX 14 20 1 0
BITMAP
0200
0F80
0980
0D80
0F00
0000
0000
F0F0
F0F0
F0F0
F0F0
F0F0
F0F0
F0F0
F0F0
F0F0
F8F0
7FF0
7FFC
3F7C
ENDCHAR
STARTCHAR 0170
ENCODING 368
SWIDTH 600 0
DWIDTH 15 0
BBX 13 22 1 0
BITMAP
0F78
0EF0
1CE0
0100
0000
F078
F078
F078
F078
F078
F078
F078
F078
F078
F078
F078
F078
F078
F8F8
7FF0
7FF0
1FC0
ENDCHAR
STARTCHAR 0171
ENCODING 369
SWIDTH 600 0
DWIDTH 15 0
BBX 14 18 1 0
BITMAP
0F78
1CE0
18C0
2100
0000
F0F0
F0F0
F0F0
F0F0
F0F0
F0F0
F0F0
F0F0
F0F0
F8F0
7FF0
7FFC
3F7C
ENDCHAR
STARTCHAR 0172
ENCODING 370
SWIDTH 600 0
DWIDTH 15 0
BBX 13 21 1 -4
BITMAP
F078
F078
F078
F078
F078
F078
F078
F078
F078
F078
F078
F078
F078
F8F8
7FF0
7FF0
1FC0
0300
0700
07E0
0380
ENDCHAR
STARTCHAR 0173
ENCODING 371
SWIDTH 600 0
DWIDTH 15 0
BBX 15 17 1 -4
BITMAP
F0F0
F0F0
F0F0
F0F0
F0F0
F0F0
F0F0
F0F0
F0F0
F8F0
7FF0
7FFC
3F7C
0030
0070
007E
0018
ENDCHAR
STARTCHAR 0174
ENCODING 372
SWIDTH 600 0
DWIDTH 15 0
BBX 15 22 0 0
BITMAP
07C0
0EE0
1C70
0000
0000
F38E
F38E
F38E
F3DE
73DC
73DC
77DC
76DC
7EDC
7EDC
7EDC
7EFC
7EFC
3EF8
3C78
3C78
3C78
ENDCHAR
STARTCHAR 0175
ENCODING 373
SWIDTH 600 0
DWIDTH 15 0
BBX 15 19 0 0
BITMAP
0380
07C0
0EE0
1C70
0000
0000
E38E
E38E
E3CE
77DC
77DC
77DC
76DC
76DC
7EFC
3EF8
3EF8
3C78
3C78
ENDCHAR
STARTCHAR 0176
ENCODING 374
SWIDTH 600 0
DWIDTH 15 0
BBX 15 22 0 0
BITMAP
07C0
0EE0
1C70
0000
0000
F83E
783C
7C7C
3C78
3E78
1EF0
1FF0
0FE0
0FE0
07C0
07C0
07C0
07C0
07C0
07C0
07C0
07C0
ENDCHAR
STARTCHAR 0177
ENCODING 375
SWIDTH 600 0
DWIDTH 15 0
BBX 13 24 1 -5
BITMAP
0780
0F80
1DC0
1CE0
2010
0000
F078
F078
7870
78F0
78F0
3CE0
3DE0
1FC0
1FC0
1FC0
0F80
0F80
0780
0F00
0F00
7E00
7C00
7000
ENDCHAR
STARTCHAR 0178
ENCODING 376
SWIDTH 600 0
DWIDTH 15 0
BBX 15 22 0 0
BITMAP
1C70
1C70
1C70
0000
0000
F83E
783C
7C7C
3C78
3E78
1EF0
1FF0
0FE0
0FE0
07C0
07C0
07C0
07C0
07C0
07C0
07C0
07C0
ENDCHAR
STARTCHAR 0179
ENCODING 377
SWIDTH 600 0
DWIDTH 15 0
BBX 13 22 1 0
BITMAP
01E0
0380
0780
0000
0000
FFF8
FFF8
FFF0
01F0
03E0
03E0
07C0
0780
0F80
1F00
1F00
3E00
3C00
7C00
FFF8
FFF8
FFF8
ENDCHAR
STARTCHAR 017A
ENCODING 378
SWIDTH 600 0
DWIDTH 15 0
BBX 11 19 2 0
BITMAP
0780
0700
0E00
0E00
0000
0000
FFE0
FFE0
FFC0
0780
0F80
0F00
1F00
1E00
3C00
7C00
7FE0
FFE0
FFE0
ENDCHAR
STARTCHAR 017B
ENCODING 379
SWIDTH 600 0
DWIDTH 15 0
BBX 13 22 1 0
BITMAP
0700
0700
0700
0000
0000
FFF8
FFF8
FFF0
01F0
03E0
03E0
07C0
0780
0F80
1F00
1F00
3E00
3C00
7C00
FFF8
FFF8
FFF8
ENDCHAR
STARTCHAR 017C
ENCODING 380
SWIDTH 600 0
DWIDTH 15 0
BBX 11 18 2 0
BITMAP
0E00
0E00
0E00
0000
0000
FFE0
FFE0
FFC0
0780
0F80
0F00
1F00
1E00
3C00
7C00
7FE0
FFE0
FFE0
ENDCHAR
STARTCHAR 017D
ENCODING 381
SWIDTH 600 0
DWIDTH 15 0
BBX 13 22 1 0
BITMAP
38E0
1DC0
0F80
0000
0000
FFF8
FFF8
FFF0
01F0
03E0
03E0
07C0
0780
0F80
1F00
1F00
3E00
3C00
7C00
FFF8
FFF8
FFF8
ENDCHAR
STARTCHAR 017E
ENCODING 382
SWIDTH 600 0
DWIDTH 15 0
BBX 11 19 2 0
BITMAP
71C0
3B80
3B00
1F00
0000
0000
FFE0
FFE0
FFC0
0780
0F80
0F00
1F00
1E00
3C00
7C00
7FE0
FFE0
FFE0
ENDCHAR
STARTCHAR 017F
ENCODING 383
SWIDTH 600 0
DWIDTH 15 0
BBX 12 18 2 0
BITMAP
07F0
0FF0
1FF0
1E00
1E00
FE00
FE00
FE00
1E00
1E00
1E00
1E00
1E00
1E00
1E00
FFF0
FFF0
FFF0
ENDCHAR
STARTCHAR 018F
ENCODING 399
SWIDTH 600 0
DWIDTH 15 0
BBX 15 17 0 0
BITMAP
1FE0
3FF8
7FFC
787C
783C
F83C
003E
003E
FFFE
FFFE
FFFE
783C
783C
7C7C
3FF8
3FF8
0FE0
ENDCHAR
STARTCHAR 0191
ENCODING 401
SWIDTH 600 0
DWIDTH 15 0
BBX 14 22 -1 -5
BITMAP
1FFC
1FFC
1FFC
1E00
1E00
1E00
1E00
1FF8
1FF8
1FF8
1E00
1E00
1E00
1E00
1E00
1E00
1E00
1E00
1E00
FE00
FC00
7000
ENDCHAR
STARTCHAR 0192
ENCODING 402
SWIDTH 600 0
DWIDTH 15 0
BBX 13 23 1 -5
BITMAP
01F8
03F0
07C8
0780
0780
1FF0
1FF0
1FF0
0780
0F00
0F00
0F00
0F00
0F00
0F00
0F00
1E00
1E00
1E00
1E00
FE00
FC00
6000
ENDCHAR
STARTCHAR 0197
ENCODING 407
SWIDTH 600 0
DWIDTH 15 0
BBX 11 17 2 0
BITMAP
FFE0
FFE0
FFE0
1F00
1F00
1F00
1F00
FFE0
FFE0
FFE0
1F00
1F00
1F00
1F00
FFE0
FFE0
FFE0
ENDCHAR
STARTCHAR 019D
ENCODING 413
SWIDTH 600 0
DWIDTH 15 0
BBX 16 22 -2 -5
BITMAP
1F0F
1F0F
1F8F
1F8F
1F8F
1FCF
1FCF
1FEF
1EEF
1EFF
1E7F
1E7F
1E3F
1E3F
1E1F
1E1F
1E0F
1E00
1E00
FE00
FC00
7000
ENDCHAR
STARTCHAR 01A0
ENCODING 416
SWIDTH 600 0
DWIDTH 15 0
BBX 16 20 0 0
BITMAP
0007
0007
000F
0FEE
3FFC
7FFC
7C3C
783C
F83E
F83E
F83E
F83E
F83E
F83E
783E
783C
7C7C
3FF8
3FF8
0FE0
ENDCHAR
STARTCHAR 01A1
ENCODING 417
SWIDTH 600 0
DWIDTH 15 0
BBX 15 15 1 0
BITMAP
000E
000E
0F9C
3FFC
7DF0
78F0
F078
F078
F078
F078
F078
F0F8
7DF0
3FE0
1FC0
ENDCHAR
STARTCHAR 01AF
ENCODING 431
SWIDTH 600 0
DWIDTH 15 0
BBX 16 21 1 0
BITMAP
000F
000F
000E
001E
F07C
F078
F078
F078
F078
F078
F078
F078
F078
F078
F078
F078
F078
F8F8
7FF0
7FF0
1FC0
ENDCHAR
STARTCHAR 01B0
ENCODING 432
SWIDTH 600 0
DWIDTH 15 0
BBX 15 16 1 0
BITMAP
000E
000E
001C
F0FC
F0F0
F0F0
F0F0
F0F0
F0F0
F0F0
F0F0
F0F0
F8F0
7FF0
7FFC
3F7C
ENDCHAR
STARTCHAR 01C4
ENCODING 452
SWIDTH 600 0
DWIDTH 15 0
BBX 15 22 0 0
BITMAP
006E
007C
0038
0000
0000
FC7E
FF7E
FF7C
E71C
E79C
E79C
E7B8
E7B8
E7B8
E7B8
E7F0
E7F0
E7F0
E7E0
FFFE
FEFE
FCFE
ENDCHAR
STARTCHAR 01C5
ENCODING 453
SWIDTH 600 0
DWIDTH 15 0
BBX 15 18 0 0
BITMAP
006E
FC6C
FF3C
FF38
E700
E7FC
E7FC
E7FC
E79C
E79C
E7B8
E7B8
E7B8
E7F0
E770
FF7E
FEFE
FCFE
ENDCHAR
STARTCHAR 01C6
ENCODING 454
SWIDTH 600 0
DWIDTH 15 0
BBX 15 18 0 0
BITMAP
0766
076C
073C
0738
0700
3F7E
7F7E
FF7C
E71C
E71C
E718
E738
E738
E730
E770
E77E
7F7E
7BFE
ENDCHAR
STARTCHAR 01C7
ENCODING 455
SWIDTH 600 0
DWIDTH 15 0
BBX 13 22 1 -5
BITMAP
F878
F878
F878
F878
F878
F878
F878
F878
F878
F878
F878
F878
F878
F878
FE78
FF78
FF78
0078
3CF8
3FF0
1FE0
0780
ENDCHAR
STARTCHAR 01C8
ENCODING 456
SWIDTH 600 0
DWIDTH 15 0
BBX 12 23 1 -5
BITMAP
00F0
F8F0
F8F0
F800
F800
F8F0
F8F0
F8F0
F8F0
F8F0
F8F0
F8F0
F8F0
F8F0
F8F0
FFF0
FFF0
FFF0
00F0
08F0
0FF0
0FE0
0380
ENDCHAR
STARTCHAR 01C9
ENCODING 457
SWIDTH 600 0
DWIDTH 15 0
BBX 11 23 2 -5
BITMAP
F1E0
F1E0
F1E0
F000
F000
F7E0
F7E0
F7E0
F1E0
F1E0
F1E0
F1E0
F1E0
F1E0
F1E0
F1E0
F1E0
F1E0
01E0
11E0
1FE0
1FC0
0700
ENDCHAR
STARTCHAR 01CA
ENCODING 458
SWIDTH 600 0
DWIDTH 15 0
BBX 13 22 1 -5
BITMAP
E778
E778
E778
F778
F778
F778
F778
FF78
FF78
EF78
EF78
EF78
EF78
EF78
E778
E778
E778
0078
3C78
1FF8
1FF0
0380
ENDCHAR
STARTCHAR 01CB
ENCODING 459
SWIDTH 600 0
DWIDTH 15 0
BBX 13 23 1 -5
BITMAP
0078
E7F8
F7F8
F780
F780
F7B8
F7B8
FFB8
FFB8
FFB8
FFB8
FFB8
FFB8
F7B8
F7B8
F7B8
F7B8
F7B8
0038
0478
07F0
07F0
0180
ENDCHAR
STARTCHAR 01CC
ENCODING 460
SWIDTH 600 0
DWIDTH 15 0
BBX 13 23 1 -5
BITMAP
0078
0078
0078
0000
0000
DE38
FF38
FF38
E738
E738
E738
E738
E738
E738
E738
E738
E738
E738
0038
0038
03F8
03F0
00C0
ENDCHAR
STARTCHAR 01CD
ENCODING 461
SWIDTH 600 0
DWIDTH 15 0
BBX 15 22 0 0
BITMAP
1C70
0EE0
07C0
0000
0000
07C0
0FE0
0FE0
0FE0
0EE0
1EF0
1EF0
1CF0
3C78
3C78
3C78
3FF8
7FFC
7FFC
783C
703C
F01E
ENDCHAR
STARTCHAR 01CE
ENCODING 462
SWIDTH 600 0
DWIDTH 15 0
BBX 13 19 1 0
BITMAP
78E0
19C0
1F80
0F80
0000
0000
1FC0
7FE0
7FF0
70F0
00F0
0FF0
3FF0
7CF0
F0F0
F0F0
F9F0
7F78
3E78
ENDCHAR
STARTCHAR 01CF
ENCODING 463
SWIDTH 600 0
DWIDTH 15 0
BBX 11 22 2 0
BITMAP
71C0
3B80
1F00
0000
0000
FFE0
FFE0
FFE0
1F00
1F00
1F00
1F00
1F00
1F00
1F00
1F00
1F00
1F00
1F00
FFE0
FFE0
FFE0
ENDCHAR
STARTCHAR 01D0
ENCODING 464
SWIDTH 600 0
DWIDTH 15 0
BBX 12 19 2 0
BITMAP
78E0
39C0
1F80
0F00
0000
0000
FF00
FF00
FF00
0F00
0F00
0F00
0F00
0F00
0F00
0F00
FFF0
FFF0
FFF0
ENDCHAR
STARTCHAR 01D1
ENCODING 465
SWIDTH 600 0
DWIDTH 15 0
BBX 15 22 0 0
BITMAP
1C70
0EE0
07C0
0000
0000
0FE0
3FF8
7FFC
7C3C
783C
F83E
F83E
F83E
F83E
F83E
F83E
783E
783C
7C7C
3FF8
3FF8
0FE0
ENDCHAR
STARTCHAR 01D2
ENCODING 466
SWIDTH 600 0
DWIDTH 15 0
BBX 13 19 1 0
BITMAP
38E0
1DC0
1D80
0F80
0000
0000
0F80
3FE0
7DF0
78F0
F078
F078
F078
F078
F078
F0F8
7DF0
3FE0
1FC0
ENDCHAR
STARTCHAR 01D3
ENCODING 467
SWIDTH 600 0
DWIDTH 15 0
BBX 13 22 1 0
BITMAP
38E0
1DC0
0F80
0000
0000
F078
F078
F078
F078
F078
F078
F078
F078
F078
F078
F078
F078
F078
F8F8
7FF0
7FF0
1FC0
ENDCHAR
STARTCHAR 01D4
ENCODING 468
SWIDTH 600 0
DWIDTH 15 0
BBX 14 19 1 0
BITMAP
78E0
1DC0
1F80
0F80
0000
0000
F0F0
F0F0
F0F0
F0F0
F0F0
F0F0
F0F0
F0F0
F0F0
F8F0
7FF0
7FFC
3F7C
ENDCHAR
STARTCHAR 01D5
ENCODING 469
SWIDTH 600 0
DWIDTH 15 0
BBX 13 26 1 0
BITMAP
3FE0
3FE0
0000
0000
3DE0
3DE0
3DE0
0000
0000
F078
F078
F078
F078
F078
F078
F078
F078
F078
F078
F078
F078
F078
F8F8
7FF0
7FF0
1FC0
ENDCHAR
STARTCHAR 01D6
ENCODING 470
SWIDTH 600 0
DWIDTH 15 0
BBX 14 22 1 0
BITMAP
3FE0
3FE0
3FE0
0000
39E0
39E0
39E0
0000
0000
F0F0
F0F0
F0F0
F0F0
F0F0
F0F0
F0F0
F0F0
F0F0
F8F0
7FF0
7FFC
3F7C
ENDCHAR
STARTCHAR 01D7
ENCODING 471
SWIDTH 600 0
DWIDTH 15 0
BBX 13 27 1 0
BITMAP
01E0
01C0
0380
0400
0000
78F0
78F0
78F0
0000
0000
F078
F078
F078
F078
F078
F078
F078
F078
F078
F078
F078
F078
F078
F8F8
7FF0
7FF0
1FC0
ENDCHAR
STARTCHAR 01D8
ENCODING 472
SWIDTH 600 0
DWIDTH 15 0
BBX 14 24 1 0
BITMAP
01E0
01C0
0380
0700
0000
0000
78F0
78F0
78F0
0000
0000
F0F0
F0F0
F0F0
F0F0
F0F0
F0F0
F0F0
F0F0
F0F0
F8F0
7FF0
7FFC
3F7C
ENDCHAR
STARTCHAR 01D9
ENCODING 473
SWIDTH 600 0
DWIDTH 15 0
BBX 13 26 1 0
BITMAP
3DE0
1FC0
0F80
0000
78F0
78F0
78F0
0000
0000
F078
F078
F078
F078
F078
F078
F078
F078
F078
F078
F078
F078
F078
F8F8
7FF0
7FF0
1FC0
ENDCHAR
STARTCHAR 01DA
ENCODING 474
SWIDTH 600 0
DWIDTH 15 0
BBX 14 23 1 0
BITMAP
38E0
1DC0
0F80
0000
0000
78F0
78F0
78F0
0000
0000
F0F0
F0F0
F0F0
F0F0
F0F0
F0F0
F0F0
F0F0
F0F0
F8F0
7FF0
7FFC
3F7C
ENDCHAR
STARTCHAR 01DB
ENCODING 475
SWIDTH 600 0
DWIDTH 15 0
BBX 13 27 1 0
BITMAP
3C00
1E00
0E00
0100
0000
78F0
78F0
78F0
0000
0000
F078
F078
F078
F078
F078
F078
F078
F078
F078
F078
F078
F078
F078
F8F8
7FF0
7FF0
1FC0
ENDCHAR
STARTCHAR 01DC
ENCODING 476
SWIDTH 600 0
DWIDTH 15 0
BBX 14 24 1 0
BITMAP
3C00
1C00
0E00
0F00
0000
0000
78F0
78F0
78F0
0000
0000
F0F0
F0F0
F0F0
F0F0
F0F0
F0F0
F0F0
F0F0
F0F0
F8F0
7FF0
7FFC
3F7C
ENDCHAR
STARTCHAR 01E4
ENCODING 484
SWIDTH 600 0
DWIDTH 15 0
BBX 15 17 0 0
BITMAP
1FE0
3FF8
7FF8
783C
783C
F83C
F800
F800
F9FC
F9FC
F83C
79FE
79FE
783C
3FFC
3FEC
0FCC
ENDCHAR
STARTCHAR 01E5
ENCODING 485
SWIDTH 600 0
DWIDTH 15 0
BBX 16 20 0 -5
BITMAP
000E
001C
0FFC
1FF0
3E78
3C38
3C38
3C78
1FF8
1FE0
3800
7800
3FF8
3FFC
3FFE
FFFF
FFFF
783C
7FFC
1FF0
ENDCHAR
STARTCHAR 01E6
ENCODING 486
SWIDTH 600 0
DWIDTH 15 0
BBX 14 22 0 0
BITMAP
1C70
0EE0
07C0
0000
0000
1FE0
3FF8
7FF8
783C
783C
F83C
F800
F800
F9FC
F9FC
F83C
783C
783C
7C7C
3FFC
3FEC
0FCC
ENDCHAR
STARTCHAR 01E7
ENCODING 487
SWIDTH 600 0
DWIDTH 15 0
BBX 14 24 1 -5
BITMAP
38E0
1DC0
1D80
0F80
001C
0038
1FF8
3FE0
7CF0
7870
7870
78F0
3FF0
3FC0
7000
F000
7FF0
7FF8
7FFC
E03C
E03C
FFF8
FFF8
3FE0
ENDCHAR
STARTCHAR 01EA
ENCODING 490
SWIDTH 600 0
DWIDTH 15 0
BBX 15 21 0 -4
BITMAP
0FE0
3FF8
7FFC
7C3C
783C
F83E
F83E
F83E
F83E
F83E
F83E
783E
783C
7C7C
3FF8
3FF8
0FE0
0180
0380
03F0
01C0
ENDCHAR
STARTCHAR 01EB
ENCODING 491
SWIDTH 600 0
DWIDTH 15 0
BBX 13 17 1 -4
BITMAP
0F80
3FE0
7DF0
78F0
F078
F078
F078
F078
F078
F0F8
7DF0
3FE0
1FC0
0700
0600
07C0
0380
ENDCHAR
STARTCHAR 01FA
ENCODING 506
SWIDTH 600 0
DWIDTH 15 0
BBX 15 28 0 0
BITMAP
00E0
01C0
0180
0000
0100
07C0
0640
06C0
07C0
0000
0000
07C0
0FE0
0FE0
0FE0
0EE0
1EF0
1EF0
1CF0
3C78
3C78
3C78
3FF8
7FFC
7FFC
783C
703C
F01E
ENDCHAR
STARTCHAR 01FB
ENCODING 507
SWIDTH 600 0
DWIDTH 15 0
BBX 13 24 1 0
BITMAP
01C0
0300
0300
0400
0200
0F80
0980
0980
0F00
0000
0000
1FC0
7FE0
7FF0
70F0
00F0
0FF0
3FF0
7CF0
F0F0
F0F0
F9F0
7F78
3E78
ENDCHAR
STARTCHAR 01FC
ENCODING 508
SWIDTH 600 0
DWIDTH 15 0
BBX 15 22 0 0
BITMAP
0078
00F0
00E0
0100
0000
0FFE
0FFE
0FFC
1FE0
1DE0
1DE0
1DE0
3DFC
3DFC
39FC
39E0
7FE0
7FE0
7FE0
71FE
F1FE
F1FE
ENDCHAR
STARTCHAR 01FD
ENCODING 509
SWIDTH 600 0
DWIDTH 15 0
BBX 15 19 0 0
BITMAP
01E0
01C0
0380
0380
0000
0000
3E78
7FFC
77DC
638E
038E
1FFE
7FFE
7380
E38E
E38E
F7DC
7FFC
7CF8
ENDCHAR
STARTCHAR 01FE
ENCODING 510
SWIDTH 600 0
DWIDTH 15 0
BBX 15 24 0 -2
BITMAP
00F0
01C0
03C0
000E
000C
0FF8
3FF8
7FFC
7C7C
787C
F8FE
F9FE
F9BE
FBBE
FB3E
FE3E
7E3E
7C3C
7C7C
3FF8
3FF8
7FE0
6000
E000
ENDCHAR
STARTCHAR 01FF
ENCODING 511
SWIDTH 600 0
DWIDTH 15 0
BBX 13 20 1 -1
BITMAP
03C0
0380
0700
0700
0000
0030
0FE0
3FE0
7DF0
79F0
F1F8
F378
F678
F678
FC78
FCF8
7DF0
3FE0
3FC0
6000
ENDCHAR
STARTCHAR 0200
ENCODING 512
SWIDTH 600 0
DWIDTH 15 0
BBX 15 22 0 0
BITMAP
7BC0
39C0
1CE0
0000
0000
07C0
0FE0
0FE0
0FE0
0EE0
1EF0
1EF0
1CF0
3C78
3C78
3C78
3FF8
7FFC
7FFC
783C
703C
F01E
ENDCHAR
STARTCHAR 0201
ENCODING 513
SWIDTH 600 0
DWIDTH 15 0
BBX 13 18 1 0
BITMAP
F780
7380
39C0
0000
0000
1FC0
7FE0
7FF0
70F0
00F0
0FF0
3FF0
7CF0
F0F0
F0F0
F9F0
7F78
3E78
ENDCHAR
STARTCHAR 0202
ENCODING 514
SWIDTH 600 0
DWIDTH 15 0
BBX 15 22 0 0
BITMAP
0FE0
1FF0
1830
0000
0000
07C0
0FE0
0FE0
0FE0
0EE0
1EF0
1EF0
1CF0
3C78
3C78
3C78
3FF8
7FFC
7FFC
783C
703C
F01E
ENDCHAR
STARTCHAR 0203
ENCODING 515
SWIDTH 600 0
DWIDTH 15 0
BBX 13 19 1 0
BITMAP
0200
1FC0
3FE0
3060
4000
0000
1FC0
7FE0
7FF0
70F0
00F0
0FF0
3FF0
7CF0
F0F0
F0F0
F9F0
7F78
3E78
ENDCHAR
STARTCHAR 0204
ENCODING 516
SWIDTH 600 0
DWIDTH 15 0
BBX 13 22 1 0
BITMAP
F780
3980
19C0
0420
0000
7FF8
7FF0
7FF0
7800
7800
7800
7800
7FF0
7FF0
7FF0
7800
7800
7800
7800
7FF0
7FF8
7FF8
ENDCHAR
STARTCHAR 0205
ENCODING 517
SWIDTH 600 0
DWIDTH 15 0
BBX 13 18 1 0
BITMAP
F780
39C0
18C0
0420
0000
0FC0
3FE0
7FF0
7870
F078
FFF8
FFF8
F000
F078
F878
7CF0
3FF0
1FC0
ENDCHAR
STARTCHAR 0206
ENCODING 518
SWIDTH 600 0
DWIDTH 15 0
BBX 12 22 2 0
BITMAP
3F80
7FC0
60C0
0020
0000
FFF0
FFE0
FFE0
F000
F000
F000
F000
FFE0
FFE0
FFE0
F000
F000
F000
F000
FFE0
FFF0
FFF0
ENDCHAR
STARTCHAR 0207
ENCODING 519
SWIDTH 600 0
DWIDTH 15 0
BBX 13 19 1 0
BITMAP
0200
1FC0
3FE0
3060
0000
0000
0FC0
3FE0
7FF0
7870
F078
FFF8
FFF8
F000
F078
F878
7CF0
3FF0
1FC0
ENDCHAR
STARTCHAR 0208
ENCODING 520
SWIDTH 600 0
DWIDTH 15 0
BBX 12 22 1 0
BITMAP
F780
7380
39C0
0000
0000
7FF0
7FF0
7FF0
0F80
0F80
0F80
0F80
0F80
0F80
0F80
0F80
0F80
0F80
0F80
7FF0
7FF0
7FF0
ENDCHAR
STARTCHAR 0209
ENCODING 521
SWIDTH 600 0
DWIDTH 15 0
BBX 12 18 2 0
BITMAP
EF00
7380
39C0
0000
0000
FF00
FF00
FF00
0F00
0F00
0F00
0F00
0F00
0F00
0F00
FFF0
FFF0
FFF0
ENDCHAR
STARTCHAR 020A
ENCODING 522
SWIDTH 600 0
DWIDTH 15 0
BBX 11 22 2 0
BITMAP
3F80
7FC0
60C0
0000
0000
FFE0
FFE0
FFE0
1F00
1F00
1F00
1F00
1F00
1F00
1F00
1F00
1F00
1F00
1F00
FFE0
FFE0
FFE0
ENDCHAR
STARTCHAR 020B
ENCODING 523
SWIDTH 600 0
DWIDTH 15 0
BBX 12 19 2 0
BITMAP
0200
1FC0
3FC0
7060
0000
0000
FF00
FF00
FF00
0F00
0F00
0F00
0F00
0F00
0F00
0F00
FFF0
FFF0
FFF0
ENDCHAR
STARTCHAR 020C
ENCODING 524
SWIDTH 600 0
DWIDTH 15 0
BBX 15 22 0 0
BITMAP
7BC0
39C0
1CE0
0000
0000
0FE0
3FF8
7FFC
7C3C
783C
F83E
F83E
F83E
F83E
F83E
F83E
783E
783C
7C7C
3FF8
3FF8
0FE0
ENDCHAR
STARTCHAR 020D
ENCODING 525
SWIDTH 600 0
DWIDTH 15 0
BBX 13 18 1 0
BITMAP
F780
3380
39C0
0400
0000
0F80
3FE0
7DF0
78F0
F078
F078
F078
F078
F078
F0F8
7DF0
3FE0
1FC0
ENDCHAR
STARTCHAR 020E
ENCODING 526
SWIDTH 600 0
DWIDTH 15 0
BBX 15 22 0 0
BITMAP
0FE0
1FF0
1830
0000
0000
0FE0
3FF8
7FFC
7C3C
783C
F83E
F83E
F83E
F83E
F83E
F83E
783E
783C
7C7C
3FF8
3FF8
0FE0
ENDCHAR
STARTCHAR 020F
ENCODING 527
SWIDTH 600 0
DWIDTH 15 0
BBX 13 19 1 0
BITMAP
0200
1FC0
3FE0
3060
0000
0000
0F80
3FE0
7DF0
78F0
F078
F078
F078
F078
F078
F0F8
7DF0
3FE0
1FC0
ENDCHAR
STARTCHAR 0210
ENCODING 528
SWIDTH 600 0
DWIDTH 15 0
BBX 15 22 1 0
BITMAP
F780
7380
39C0
0000
0000
FFE0
FFF8
FFF8
F078
F07C
F078
F078
FFF0
FFE0
FFF0
F1F8
F078
F078
F078
F078
F07C
F03E
ENDCHAR
STARTCHAR 0211
ENCODING 529
SWIDTH 600 0
DWIDTH 15 0
BBX 13 18 1 0
BITMAP
F780
39C0
1CE0
0000
0000
FCF0
FFF8
FFF8
1E38
1E38
1E00
1E00
1E00
1E00
1E00
FFF0
FFF0
FFF0
ENDCHAR
STARTCHAR 0212
ENCODING 530
SWIDTH 600 0
DWIDTH 15 0
BBX 15 22 1 0
BITMAP
1FC0
3FE0
3060
0000
0000
FFE0
FFF8
FFF8
F078
F07C
F078
F078
FFF0
FFE0
FFF0
F1F8
F078
F078
F078
F078
F07C
F03E
ENDCHAR
STARTCHAR 0213
ENCODING 531
SWIDTH 600 0
DWIDTH 15 0
BBX 13 19 1 0
BITMAP
0200
1FC0
1FE0
3070
0000
0000
FCF0
FFF8
FFF8
1E38
1E38
1E00
1E00
1E00
1E00
1E00
FFF0
FFF0
FFF0
ENDCHAR
STARTCHAR 0214
ENCODING 532
SWIDTH 600 0
DWIDTH 15 0
BBX 13 22 1 0
BITMAP
F780
7380
39C0
0000
0000
F078
F078
F078
F078
F078
F078
F078
F078
F078
F078
F078
F078
F078
F8F8
7FF0
7FF0
1FC0
ENDCHAR
STARTCHAR 0215
ENCODING 533
SWIDTH 600 0
DWIDTH 15 0
BBX 14 18 1 0
BITMAP
F780
7380
39C0
0000
0000
F0F0
F0F0
F0F0
F0F0
F0F0
F0F0
F0F0
F0F0
F0F0
F8F0
7FF0
7FFC
3F7C
ENDCHAR
STARTCHAR 0216
ENCODING 534
SWIDTH 600 0
DWIDTH 15 0
BBX 13 22 1 0
BITMAP
1FC0
3FE0
3060
0000
0000
F078
F078
F078
F078
F078
F078
F078
F078
F078
F078
F078
F078
F078
F8F8
7FF0
7FF0
1FC0
ENDCHAR
STARTCHAR 0217
ENCODING 535
SWIDTH 600 0
DWIDTH 15 0
BBX 14 19 1 0
BITMAP
0200
1FC0
3FE0
3060
0000
0000
F0F0
F0F0
F0F0
F0F0
F0F0
F0F0
F0F0
F0F0
F0F0
F8F0
7FF0
7FFC
3F7C
ENDCHAR
STARTCHAR 0218
ENCODING 536
SWIDTH 600 0
DWIDTH 15 0
BBX 15 26 0 -9
BITMAP
1FF0
3FF8
7FFC
783C
783C
7C00
7F80
3FF0
1FF8
07FC
00FC
F03E
703C
783C
7FFC
3FF8
1FE0
0000
0000
0380
0380
0380
0180
0180
0180
0300
ENDCHAR
STARTCHAR 0219
ENCODING 537
SWIDTH 600 0
DWIDTH 15 0
BBX 13 22 1 -9
BITMAP
1FC0
3FE0
7DF0
7070
7800
7FC0
3FF0
1FF0
00F8
F078
78F0
7FF0
3FC0
0000
0000
0700
0700
0700
0300
0300
0300
0600
ENDCHAR
STARTCHAR 021A
ENCODING 538
SWIDTH 600 0
DWIDTH 15 0
BBX 13 26 1 -9
BITMAP
FFF8
FFF8
FFF8
0F80
0F80
0F80
0F80
0F80
0F80
0F80
0F80
0F80
0F80
0F80
0F80
0F80
0F80
0000
0000
0700
0700
0700
0300
0300
0300
0600
ENDCHAR
STARTCHAR 021B
ENCODING 539
SWIDTH 600 0
DWIDTH 15 0
BBX 13 26 1 -9
BITMAP
0600
0E00
0E00
0E00
FFF8
FFF8
FFF8
1E00
1E00
1E00
1E00
1E00
1E00
1F00
0FF8
0FF8
07F8
0000
0000
0380
0380
0380
0080
0180
0180
0380
ENDCHAR
STARTCHAR 022A
ENCODING 554
SWIDTH 600 0
DWIDTH 15 0
BBX 15 26 0 0
BITMAP
1FF0
1FF0
0000
0000
1EF0
1EF0
1EF0
0000
0000
0FE0
3FF8
7FFC
7C3C
783C
F83E
F83E
F83E
F83E
F83E
F83E
783E
783C
7C7C
3FF8
3FF8
0FE0
ENDCHAR
STARTCHAR 022B
ENCODING 555
SWIDTH 600 0
DWIDTH 15 0
BBX 13 22 1 0
BITMAP
3FE0
3FE0
3FE0
0000
3DE0
3DE0
3DE0
0000
0000
0F80
3FE0
7DF0
78F0
F078
F078
F078
F078
F078
F0F8
7DF0
3FE0
1FC0
ENDCHAR
STARTCHAR 022C
ENCODING 556
SWIDTH 600 0
DWIDTH 15 0
BBX 15 25 0 0
BITMAP
1FF0
1FF0
0000
1F18
1FF0
31E0
0000
0000
0FE0
3FF8
7FFC
7C3C
783C
F83E
F83E
F83E
F83E
F83E
F83E
783E
783C
7C7C
3FF8
3FF8
0FE0
ENDCHAR
STARTCHAR 022D
ENCODING 557
SWIDTH 600 0
DWIDTH 15 0
BBX 13 22 1 0
BITMAP
3FE0
3FE0
0000
0000
3E30
3FE0
63C0
0000
0000
0F80
3FE0
7DF0
78F0
F078
F078
F078
F078
F078
F0F8
7DF0
3FE0
1FC0
ENDCHAR
STARTCHAR 0230
ENCODING 560
SWIDTH 600 0
DWIDTH 15 0
BBX 15 26 0 0
BITMAP
1FF0
1FF0
1FF0
0000
07C0
07C0
07C0
0000
0000
0FE0
3FF8
7FFC
7C3C
783C
F83E
F83E
F83E
F83E
F83E
F83E
783E
783C
7C7C
3FF8
3FF8
0FE0
ENDCHAR
STARTCHAR 0231
ENCODING 561
SWIDTH 600 0
DWIDTH 15 0
BBX 13 21 1 0
BITMAP
3FE0
3FE0
0000
0700
0700
0700
0000
0000
0F80
3FE0
7DF0
78F0
F078
F078
F078
F078
F078
F0F8
7DF0
3FE0
1FC0
ENDCHAR
STARTCHAR 0232
ENCODING 562
SWIDTH 600 0
DWIDTH 15 0
BBX 15 21 0 0
BITMAP
1FF0
1FF0
0000
0000
F83E
783C
7C7C
3C78
3E78
1EF0
1FF0
0FE0
0FE0
07C0
07C0
07C0
07C0
07C0
07C0
07C0
07C0
ENDCHAR
STARTCHAR 0233
ENCODING 563
SWIDTH 600 0
DWIDTH 15 0
BBX 13 22 1 -5
BITMAP
3FE0
3FE0
0000
0000
F078
F078
7870
78F0
78F0
3CE0
3DE0
1FC0
1FC0
1FC0
0F80
0F80
0780
0F00
0F00
7E00
7C00
7000
ENDCHAR
STARTCHAR 0237
ENCODING 567
SWIDTH 600 0
DWIDTH 15 0
BBX 8 18 2 -5
BITMAP
FF
FF
FF
0F
0F
0F
0F
0F
0F
0F
0F
0F
0F
0F
8F
FF
FE
38
ENDCHAR
STARTCHAR 0244
ENCODING 580
SWIDTH 600 0
DWIDTH 15 0
BBX 15 17 0 0
BITMAP
783C
783C
783C
783C
783C
783C
FFFE
FFFE
FFFE
783C
783C
783C
783C
7C7C
3FF8
3FF8
0FE0
ENDCHAR
STARTCHAR 0259
ENCODING 601
SWIDTH 600 0
DWIDTH 15 0
BBX 13 13 1 0
BITMAP
1FC0
3FE0
7FF0
F0F0
F078
0078
FFF8
FFF8
F078
F0F8
79F0
3FE0
1FC0
ENDCHAR
STARTCHAR 0268
ENCODING 616
SWIDTH 600 0
DWIDTH 15 0
BBX 12 18 2 0
BITMAP
0700
0700
0700
0000
0000
FF00
FF00
FF00
0F00
0F00
3FE0
3FE0
3FE0
0F00
0F00
FFF0
FFF0
FFF0
ENDCHAR
STARTCHAR 026A
ENCODING 618
SWIDTH 600 0
DWIDTH 15 0
BBX 9 13 3 0
BITMAP
FF80
FF80
FF80
1C00
1C00
1C00
1C00
1C00
1C00
1C00
FF80
FF80
FF80
ENDCHAR
STARTCHAR 0272
ENCODING 626
SWIDTH 600 0
DWIDTH 15 0
BBX 14 18 -1 -5
BITMAP
1CF0
1FFC
1FFC
1E3C
1E3C
1E3C
1E3C
1E3C
1E3C
1E3C
1E3C
1E3C
1E3C
1E00
3E00
FC00
FC00
7000
ENDCHAR
STARTCHAR 0289
ENCODING 649
SWIDTH 600 0
DWIDTH 15 0
BBX 15 13 0 0
BITMAP
7878
7878
7878
7878
FFFE
FFFE
FFFE
7878
7878
7C78
3FF8
3FFE
1FBE
ENDCHAR
STARTCHAR 02B9
ENCODING 697
SWIDTH 600 0
DWIDTH 15 0
BBX 5 4 5 14
BITMAP
78
70
60
E0
ENDCHAR
STARTCHAR 02BA
ENCODING 698
SWIDTH 600 0
DWIDTH 15 0
BBX 9 4 3 14
BITMAP
7780
7700
E700
E600
ENDCHAR
STARTCHAR 02BC
ENCODING 700
SWIDTH 600 0
DWIDTH 15 0
BBX 3 6 6 14
BITMAP
E0
E0
E0
60
60
C0
ENDCHAR
STARTCHAR 02C6
ENCODING 710
SWIDTH 600 0
DWIDTH 15 0
BBX 9 4 3 15
BITMAP
1C00
3E00
7700
E380
ENDCHAR
STARTCHAR 02C7
ENCODING 711
SWIDTH 600 0
DWIDTH 15 0
BBX 9 4 3 15
BITMAP
E380
7700
7600
3E00
ENDCHAR
STARTCHAR 02C9
ENCODING 713
SWIDTH 600 0
DWIDTH 15 0
BBX 7 1 4 17
BITMAP
FE
ENDCHAR
STARTCHAR 02CD
ENCODING 717
SWIDTH 600 0
DWIDTH 15 0
BBX 9 2 3 -4
BITMAP
FF80
FF80
ENDCHAR
STARTCHAR 02D8
ENCODING 728
SWIDTH 600 0
DWIDTH 15 0
BBX 9 4 3 15
BITMAP
C180
E380
FF00
7E00
ENDCHAR
STARTCHAR 02D9
ENCODING 729
SWIDTH 600 0
DWIDTH 15 0
BBX 3 3 6 15
BITMAP
E0
E0
E0
ENDCHAR
STARTCHAR 02DA
ENCODING 730
SWIDTH 600 0
DWIDTH 15 0
BBX 5 5 5 15
BITMAP
20
F8
C8
D8
F8
ENDCHAR
STARTCHAR 02DB
ENCODING 731
SWIDTH 600 0
DWIDTH 15 0
BBX 5 4 5 -4
BITMAP
E0
C0
F8
70
ENDCHAR
STARTCHAR 02DC
ENCODING 732
SWIDTH 600 0
DWIDTH 15 0
BBX 11 4 2 15
BITMAP
1860
7EC0
7FC0
C780
ENDCHAR
STARTCHAR 02DD
ENCODING 733
SWIDTH 600 0
DWIDTH 15 0
BBX 11 3 2 15
BITMAP
3DE0
7380
E700
ENDCHAR
STARTCHAR 0300
ENCODING 768
SWIDTH 0 0
DWIDTH 0 0
BBX 5 4 5 15
BITMAP
E0
70
70
38
ENDCHAR
STARTCHAR 0301
ENCODING 769
SWIDTH 0 0
DWIDTH 0 0
BBX 5 4 5 15
BITMAP
38
70
70
E0
ENDCHAR
STARTCHAR 0302
ENCODING 770
SWIDTH 0 0
DWIDTH 0 0
BBX 9 4 3 15
BITMAP
1C00
3E00
7700
E380
ENDCHAR
STARTCHAR 0303
ENCODING 771
SWIDTH 0 0
DWIDTH 0 0
BBX 11 4 2 15
BITMAP
1860
7EC0
7FC0
C780
ENDCHAR
STARTCHAR 0304
ENCODING 772
SWIDTH 0 0
DWIDTH 0 0
BBX 9 2 3 15
BITMAP
FF80
FF80
ENDCHAR
STARTCHAR 0306
ENCODING 774
SWIDTH 0 0
DWIDTH 0 0
BBX 9 4 3 15
BITMAP
C180
E380
FF00
7E00
ENDCHAR
STARTCHAR 0307
ENCODING 775
SWIDTH 0 0
DWIDTH 0 0
BBX 3 3 6 15
BITMAP
E0
E0
E0
ENDCHAR
STARTCHAR 0308
ENCODING 776
SWIDTH 0 0
DWIDTH 0 0
BBX 9 3 3 15
BITMAP
E380
E380
E380
ENDCHAR
STARTCHAR 0309
ENCODING 777
SWIDTH 0 0
DWIDTH 0 0
BBX 5 6 5 14
BITMAP
F0
F8
18
18
70
60
ENDCHAR
STARTCHAR 030A
ENCODING 778
SWIDTH 0 0
DWIDTH 0 0
BBX 5 5 5 15
BITMAP
20
F8
C8
D8
F8
ENDCHAR
STARTCHAR 030B
ENCODING 779
SWIDTH 0 0
DWIDTH 0 0
BBX 11 3 2 15
BITMAP
3DE0
7380
E700
ENDCHAR
STARTCHAR 030C
ENCODING 780
SWIDTH 0 0
DWIDTH 0 0
BBX 9 4 3 15
BITMAP
E380
7700
7600
3E00
ENDCHAR
STARTCHAR 030F
ENCODING 783
SWIDTH 0 0
DWIDTH 0 0
BBX 11 3 2 15
BITMAP
F780
39C0
1CE0
ENDCHAR
STARTCHAR 0311
ENCODING 785
SWIDTH 0 0
DWIDTH 0 0
BBX 9 4 3 15
BITMAP
0800
7F00
FF80
C180
ENDCHAR
STARTCHAR 0312
ENCODING 786
SWIDTH 0 0
DWIDTH 0 0
BBX 3 8 6 15
BITMAP
60
60
C0
C0
E0
E0
E0
E0
ENDCHAR
STARTCHAR 0313
ENCODING 787
SWIDTH 0 0
DWIDTH 0 0
BBX 3 8 6 15
BITMAP
E0
E0
E0
E0
60
60
60
C0
ENDCHAR
STARTCHAR 031B
ENCODING 795
SWIDTH 0 0
DWIDTH 0 0
BBX 5 5 5 11
BITMAP
38
38
70
F0
C0
ENDCHAR
STARTCHAR 0323
ENCODING 803
SWIDTH 0 0
DWIDTH 0 0
BBX 3 3 6 -5
BITMAP
E0
E0
E0
ENDCHAR
STARTCHAR 0324
ENCODING 804
SWIDTH 0 0
DWIDTH 0 0
BBX 9 3 3 -5
BITMAP
E380
E380
E380
ENDCHAR
STARTCHAR 0326
ENCODING 806
SWIDTH 0 0
DWIDTH 0 0
BBX 3 7 6 -9
BITMAP
E0
E0
E0
60
60
60
C0
ENDCHAR
STARTCHAR 0327
ENCODING 807
SWIDTH 0 0
DWIDTH 0 0
BBX 5 4 5 -5
BITMAP
38
18
98
F8
ENDCHAR
STARTCHAR 0328
ENCODING 808
SWIDTH 0 0
DWIDTH 0 0
BBX 5 4 5 -4
BITMAP
E0
C0
F8
70
ENDCHAR
STARTCHAR 032E
ENCODING 814
SWIDTH 0 0
DWIDTH 0 0
BBX 9 4 3 -6
BITMAP
C180
F780
7F00
1800
ENDCHAR
STARTCHAR 0330
ENCODING 816
SWIDTH 0 0
DWIDTH 0 0
BBX 11 4 2 -5
BITMAP
1860
7EC0
7FC0
C780
ENDCHAR
STARTCHAR 0331
ENCODING 817
SWIDTH 0 0
DWIDTH 0 0
BBX 9 2 3 -4
BITMAP
FF80
FF80
ENDCHAR
STARTCHAR 0335
ENCODING 821
SWIDTH 0 0
DWIDTH 0 0
BBX 11 2 2 7
BITMAP
FFE0
FFE0
ENDCHAR
STARTCHAR 0336
ENCODING 822
SWIDTH 0 0
DWIDTH 0 0
BBX 15 3 0 8
BITMAP
FFFE
FFFE
FFFE
ENDCHAR
STARTCHAR 0337
ENCODING 823
SWIDTH 0 0
DWIDTH 0 0
BBX 11 7 2 6
BITMAP
0020
00E0
03C0
0F00
3C00
F000
C000
ENDCHAR
STARTCHAR 0338
ENCODING 824
SWIDTH 0 0
DWIDTH 0 0
BBX 11 15 2 -1
BITMAP
0060
00C0
00C0
0180
0300
0300
0600
0C00
0C00
1800
1800
3000
6000
6000
C000
ENDCHAR
STARTCHAR 0394
ENCODING 916
SWIDTH 600 0
DWIDTH 15 0
BBX 13 17 1 0
BITMAP
0F80
1FC0
1FC0
1FC0
1DC0
3DE0
3DE0
39E0
78F0
78F0
78F0
70F0
F078
F078
FFF8
FFF8
FFF8
ENDCHAR
STARTCHAR 03A9
ENCODING 937
SWIDTH 600 0
DWIDTH 15 0
BBX 15 17 0 0
BITMAP
0FE0
3FF8
7FFC
783C
783C
F83E
F83E
F83E
F83E
F83E
783E
783C
783C
3838
F83E
FEFE
FEFE
ENDCHAR
STARTCHAR 03BC
ENCODING 956
SWIDTH 600 0
DWIDTH 15 0
BBX 14 17 1 -4
BITMAP
F0F0
F0F0
F0F0
F0F0
F0F0
F0F0
F0F0
F0F0
F0F0
F8F0
FFF0
FFFC
FF7C
F000
F000
F000
F000
ENDCHAR
STARTCHAR 03C0
ENCODING 960
SWIDTH 600 0
DWIDTH 15 0
BBX 15 13 0 0
BITMAP
3FFE
FFFE
FFFE
1C78
1C78
1C78
3C78
3C78
3C78
3C78
3878
7878
7878
ENDCHAR
STARTCHAR 1E24
ENCODING 7716
SWIDTH 600 0
DWIDTH 15 0
BBX 13 22 1 -5
BITMAP
F078
F078
F078
F078
F078
F078
F078
FFF8
FFF8
FFF8
F078
F078
F078
F078
F078
F078
F078
0000
0000
0780
0780
0780
ENDCHAR
STARTCHAR 1E25
ENCODING 7717
SWIDTH 600 0
DWIDTH 15 0
BBX 11 23 2 -5
BITMAP
F000
F000
F000
F000
F000
F7C0
FFE0
FFE0
F1E0
F1E0
F1E0
F1E0
F1E0
F1E0
F1E0
F1E0
F1E0
F1E0
0000
0000
0F00
0F00
0F00
ENDCHAR
STARTCHAR 1E62
ENCODING 7778
SWIDTH 600 0
DWIDTH 15 0
BBX 15 22 0 -5
BITMAP
1FF0
3FF8
7FFC
783C
783C
7C00
7F80
3FF0
1FF8
07FC
00FC
F03E
703C
783C
7FFC
3FF8
1FE0
0000
0000
03C0
03C0
03C0
ENDCHAR
STARTCHAR 1E63
ENCODING 7779
SWIDTH 600 0
DWIDTH 15 0
BBX 13 18 1 -5
BITMAP
1FC0
3FE0
7DF0
7070
7800
7FC0
3FF0
1FF0
00F8
F078
78F0
7FF0
3FC0
0000
0000
0780
0780
0780
ENDCHAR
STARTCHAR 1E6C
ENCODING 7788
SWIDTH 600 0
DWIDTH 15 0
BBX 13 22 1 -5
BITMAP
FFF8
FFF8
FFF8
0F80
0F80
0F80
0F80
0F80
0F80
0F80
0F80
0F80
0F80
0F80
0F80
0F80
0F80
0000
0000
0780
0780
0780
ENDCHAR
STARTCHAR 1E6D
ENCODING 7789
SWIDTH 600 0
DWIDTH 15 0
BBX 13 22 1 -5
BITMAP
0600
0E00
0E00
0E00
FFF8
FFF8
FFF8
1E00
1E00
1E00
1E00
1E00
1E00
1F00
0FF8
0FF8
07F8
0000
0000
03C0
03C0
03C0
ENDCHAR
STARTCHAR 1E80
ENCODING 7808
SWIDTH 600 0
DWIDTH 15 0
BBX 15 22 0 0
BITMAP
1E00
0700
0380
0000
0000
F38E
F38E
F38E
F3DE
73DC
73DC
77DC
76DC
7EDC
7EDC
7EDC
7EFC
7EFC
3EF8
3C78
3C78
3C78
ENDCHAR
STARTCHAR 1E81
ENCODING 7809
SWIDTH 600 0
DWIDTH 15 0
BBX 15 19 0 0
BITMAP
0F00
0700
0700
0380
0000
0000
E38E
E38E
E3CE
77DC
77DC
77DC
76DC
76DC
7EFC
3EF8
3EF8
3C78
3C78
ENDCHAR
STARTCHAR 1E82
ENCODING 7810
SWIDTH 600 0
DWIDTH 15 0
BBX 15 22 0 0
BITMAP
00F0
01C0
03C0
0000
0000
F38E
F38E
F38E
F3DE
73DC
73DC
77DC
76DC
7EDC
7EDC
7EDC
7EFC
7EFC
3EF8
3C78
3C78
3C78
ENDCHAR
STARTCHAR 1E83
ENCODING 7811
SWIDTH 600 0
DWIDTH 15 0
BBX 15 19 0 0
BITMAP
01E0
01C0
01C0
0380
0000
0000
E38E
E38E
E3CE
77DC
77DC
77DC
76DC
76DC
7EFC
3EF8
3EF8
3C78
3C78
ENDCHAR
STARTCHAR 1E84
ENCODING 7812
SWIDTH 600 0
DWIDTH 15 0
BBX 15 22 0 0
BITMAP
1C70
1C70
1C70
0000
0000
F38E
F38E
F38E
F3DE
73DC
73DC
77DC
76DC
7EDC
7EDC
7EDC
7EFC
7EFC
3EF8
3C78
3C78
3C78
ENDCHAR
STARTCHAR 1E85
ENCODING 7813
SWIDTH 600 0
DWIDTH 15 0
BBX 15 18 0 0
BITMAP
1C70
1C70
1C70
0000
0000
E38E
E38E
E3CE
77DC
77DC
77DC
76DC
76DC
7EFC
3EF8
3EF8
3C78
3C78
ENDCHAR
STARTCHAR 1E9E
ENCODING 7838
SWIDTH 600 0
DWIDTH 15 0
BBX 13 17 1 0
BITMAP
1FE0
3FF0
7FF8
7878
F878
F078
F078
F3F0
F3F0
F3F8
F038
F038
F038
F078
F3F8
F3F0
F3E0
ENDCHAR
STARTCHAR 1EA0
ENCODING 7840
SWIDTH 600 0
DWIDTH 15 0
BBX 15 22 0 -5
BITMAP
07C0
0FE0
0FE0
0FE0
0EE0
1EF0
1EF0
1CF0
3C78
3C78
3C78
3FF8
7FFC
7FFC
783C
703C
F01E
0000
0000
0380
0380
0380
ENDCHAR
STARTCHAR 1EA1
ENCODING 7841
SWIDTH 600 0
DWIDTH 15 0
BBX 13 18 1 -5
BITMAP
1FC0
7FE0
7FF0
70F0
00F0
0FF0
3FF0
7CF0
F0F0
F0F0
F9F0
7F78
3E78
0000
0000
0700
0700
0700
ENDCHAR
STARTCHAR 1EA2
ENCODING 7842
SWIDTH 600 0
DWIDTH 15 0
BBX 15 25 0 0
BITMAP
0300
07C0
07E0
00E0
01C0
0180
0000
0000
07C0
0FE0
0FE0
0FE0
0EE0
1EF0
1EF0
1CF0
3C78
3C78
3C78
3FF8
7FFC
7FFC
783C
703C
F01E
ENDCHAR
STARTCHAR 1EA3
ENCODING 7843
SWIDTH 600 0
DWIDTH 15 0
BBX 13 20 1 0
BITMAP
0F00
0F80
0180
0180
0380
0200
0000
1FC0
7FE0
7FF0
70F0
00F0
0FF0
3FF0
7CF0
F0F0
F0F0
F9F0
7F78
3E78
ENDCHAR
STARTCHAR 1EA4
ENCODING 7844
SWIDTH 600 0
DWIDTH 15 0
BBX 15 27 0 0
BITMAP
00F0
00E0
01C0
0380
0000
07C0
0FE0
1C70
0000
0000
07C0
0FE0
0FE0
0FE0
0EE0
1EF0
1EF0
1CF0
3C78
3C78
3C78
3FF8
7FFC
7FFC
783C
703C
F01E
ENDCHAR
STARTCHAR 1EA5
ENCODING 7845
SWIDTH 600 0
DWIDTH 15 0
BBX 13 23 1 0
BITMAP
01E0
0380
0300
0400
0000
0F80
1F80
38E0
4000
0000
1FC0
7FE0
7FF0
70F0
00F0
0FF0
3FF0
7CF0
F0F0
F0F0
F9F0
7F78
3E78
ENDCHAR
STARTCHAR 1EA6
ENCODING 7846
SWIDTH 600 0
DWIDTH 15 0
BBX 15 27 0 0
BITMAP
1E00
0E00
0700
0380
0000
07C0
0FE0
1C70
0000
0000
07C0
0FE0
0FE0
0FE0
0EE0
1EF0
1EF0
1CF0
3C78
3C78
3C78
3FF8
7FFC
7FFC
783C
703C
F01E
ENDCHAR
STARTCHAR 1EA7
ENCODING 7847
SWIDTH 600 0
DWIDTH 15 0
BBX 13 23 1 0
BITMAP
3C00
1C00
0E00
0100
0000
0F80
1F80
38E0
4000
0000
1FC0
7FE0
7FF0
70F0
00F0
0FF0
3FF0
7CF0
F0F0
F0F0
F9F0
7F78
3E78
ENDCHAR
STARTCHAR 1EA8
ENCODING 7848
SWIDTH 600 0
DWIDTH 15 0
BBX 15 28 0 0
BITMAP
0380
03C0
00C0
01C0
0100
0000
07C0
0FE0
1C70
0000
0000
07C0
0FE0
0FE0
0FE0
0EE0
1EF0
1EF0
1CF0
3C78
3C78
3C78
3FF8
7FFC
7FFC
783C
703C
F01E
ENDCHAR
STARTCHAR 1EA9
ENCODING 7849
SWIDTH 600 0
DWIDTH 15 0
BBX 13 25 1 0
BITMAP
0400
0700
0980
0180
0300
0400
0000
0F80
1F80
38E0
4000
0000
1FC0
7FE0
7FF0
70F0
00F0
0FF0
3FF0
7CF0
F0F0
F0F0
F9F0
7F78
3E78
ENDCHAR
STARTCHAR 1EAA
ENCODING 7850
SWIDTH 600 0
DWIDTH 15 0
BBX 15 26 0 0
BITMAP
0FF0
1FF0
18C0
0000
07C0
0FE0
1C70
0000
0000
07C0
0FE0
0FE0
0FE0
0EE0
1EF0
1EF0
1CF0
3C78
3C78
3C78
3FF8
7FFC
7FFC
783C
703C
F01E
ENDCHAR
STARTCHAR 1EAB
ENCODING 7851
SWIDTH 600 0
DWIDTH 15 0
BBX 13 23 1 0
BITMAP
0860
3FE0
3FC0
2100
0000
0F80
1F80
38E0
4000
0000
1FC0
7FE0
7FF0
70F0
00F0
0FF0
3FF0
7CF0
F0F0
F0F0
F9F0
7F78
3E78
ENDCHAR
STARTCHAR 1EAC
ENCODING 7852
SWIDTH 600 0
DWIDTH 15 0
BBX 15 27 0 -5
BITMAP
07C0
0EE0
1C70
0000
0000
07C0
0FE0
0FE0
0FE0
0EE0
1EF0
1EF0
1CF0
3C78
3C78
3C78
3FF8
7FFC
7FFC
783C
703C
F01E
0000
0000
0380
0380
0380
ENDCHAR
STARTCHAR 1EAD
ENCODING 7853
SWIDTH 600 0
DWIDTH 15 0
BBX 13 24 1 -5
BITMAP
0F00
0F80
1DC0
38C0
4020
0000
1FC0
7FE0
7FF0
70F0
00F0
0FF0
3FF0
7CF0
F0F0
F0F0
F9F0
7F78
3E78
0000
0000
0700
0700
0700
ENDCHAR
STARTCHAR 1EAE
ENCODING 7854
SWIDTH 600 0
DWIDTH 15 0
BBX 15 26 0 0
BITMAP
00F0
01C0
0380
0000
1830
1FF0
07C0
0000
0000
07C0
0FE0
0FE0
0FE0
0EE0
1EF0
1EF0
1CF0
3C78
3C78
3C78
3FF8
7FFC
7FFC
783C
703C
F01E
ENDCHAR
STARTCHAR 1EAF
ENCODING 7855
SWIDTH 600 0
DWIDTH 15 0
BBX 13 22 1 0
BITMAP
01C0
0380
0700
0000
30E0
3FC0
1F80
0000
0000
1FC0
7FE0
7FF0
70F0
00F0
0FF0
3FF0
7CF0
F0F0
F0F0
F9F0
7F78
3E78
ENDCHAR
STARTCHAR 1EB0
ENCODING 7856
SWIDTH 600 0
DWIDTH 15 0
BBX 15 26 0 0
BITMAP
1E00
0700
0380
0000
1830
1FF0
07C0
0000
0000
07C0
0FE0
0FE0
0FE0
0EE0
1EF0
1EF0
1CF0
3C78
3C78
3C78
3FF8
7FFC
7FFC
783C
703C
F01E
ENDCHAR
STARTCHAR 1EB1
ENCODING 7857
SWIDTH 600 0
DWIDTH 15 0
BBX 13 22 1 0
BITMAP
3C00
0E00
0600
0100
30E0
3FC0
0F80
0000
0000
1FC0
7FE0
7FF0
70F0
00F0
0FF0
3FF0
7CF0
F0F0
F0F0
F9F0
7F78
3E78
ENDCHAR
STARTCHAR 1EB2
ENCODING 7858
SWIDTH 600 0
DWIDTH 15 0
BBX 15 28 0 0
BITMAP
0380
03C0
00C0
00C0
0180
0000
1830
1FF0
07C0
0000
0000
07C0
0FE0
0FE0
0FE0
0EE0
1EF0
1EF0
1CF0
3C78
3C78
3C78
3FF8
7FFC
7FFC
783C
703C
F01E
ENDCHAR
STARTCHAR 1EB3
ENCODING 7859
SWIDTH 600 0
DWIDTH 15 0
BBX 13 24 1 0
BITMAP
0700
0780
0180
0180
0300
0000
30E0
3FC0
0F80
0000
0000
1FC0
7FE0
7FF0
70F0
00F0
0FF0
3FF0
7CF0
F0F0
F0F0
F9F0
7F78
3E78
ENDCHAR
STARTCHAR 1EB4
ENCODING 7860
SWIDTH 600 0
DWIDTH 15 0
BBX 15 27 0 0
BITMAP
0410
1FF0
1FF0
18C0
0000
1830
1FF0
07C0
0000
0000
07C0
0FE0
0FE0
0FE0
0EE0
1EF0
1EF0
1CF0
3C78
3C78
3C78
3FF8
7FFC
7FFC
783C
703C
F01E
ENDCHAR
STARTCHAR 1EB5
ENCODING 7861
SWIDTH 600 0
DWIDTH 15 0
BBX 13 23 1 0
BITMAP
1860
3FE0
3FC0
2100
0000
30E0
3FC0
0F80
0000
0000
1FC0
7FE0
7FF0
70F0
00F0
0FF0
3FF0
7CF0
F0F0
F0F0
F9F0
7F78
3E78
ENDCHAR
STARTCHAR 1EB6
ENCODING 7862
SWIDTH 600 0
DWIDTH 15 0
BBX 15 27 0 -5
BITMAP
1C70
0FE0
0FC0
0000
0000
07C0
0FE0
0FE0
0FE0
0EE0
1EF0
1EF0
1CF0
3C78
3C78
3C78
3FF8
7FFC
7FFC
783C
703C
F01E
0000
0000
0380
0380
0380
ENDCHAR
STARTCHAR 1EB7
ENCODING 7863
SWIDTH 600 0
DWIDTH 15 0
BBX 13 24 1 -5
BITMAP
3060
30E0
3FC0
1F80
0000
0000
1FC0
7FE0
7FF0
70F0
00F0
0FF0
3FF0
7CF0
F0F0
F0F0
F9F0
7F78
3E78
0000
0000
0700
0700
0700
ENDCHAR
STARTCHAR 1EB8
ENCODING 7864
SWIDTH 600 0
DWIDTH 15 0
BBX 12 22 2 -5
BITMAP
FFF0
FFE0
FFE0
F000
F000
F000
F000
FFE0
FFE0
FFE0
F000
F000
F000
F000
FFE0
FFF0
FFF0
0000
0000
0F00
0F00
0F00
ENDCHAR
STARTCHAR 1EB9
ENCODING 7865
SWIDTH 600 0
DWIDTH 15 0
BBX 13 18 1 -5
BITMAP
0FC0
3FE0
7FF0
7870
F078
FFF8
FFF8
F000
F078
F878
7CF0
3FF0
1FC0
0000
0000
0780
0780
0780
ENDCHAR
STARTCHAR 1EBA
ENCODING 7866
SWIDTH 600 0
DWIDTH 15 0
BBX 12 25 2 0
BITMAP
0E00
0F00
0F80
0180
0700
0600
0000
0000
FFF0
FFE0
FFE0
F000
F000
F000
F000
FFE0
FFE0
FFE0
F000
F000
F000
F000
FFE0
FFF0
FFF0
ENDCHAR
STARTCHAR 1EBB
ENCODING 7867
SWIDTH 600 0
DWIDTH 15 0
BBX 13 20 1 0
BITMAP
0780
0780
01C0
01C0
0380
0300
0000
0FC0
3FE0
7FF0
7870
F078
FFF8
FFF8
F000
F078
F878
7CF0
3FF0
1FC0
ENDCHAR
STARTCHAR 1EBC
ENCODING 7868
SWIDTH 600 0
DWIDTH 15 0
BBX 12 22 2 0
BITMAP
3CE0
7FC0
67C0
0000
0000
FFF0
FFE0
FFE0
F000
F000
F000
F000
FFE0
FFE0
FFE0
F000
F000
F000
F000
FFE0
FFF0
FFF0
ENDCHAR
STARTCHAR 1EBD
ENCODING 7869
SWIDTH 600 0
DWIDTH 15 0
BBX 13 19 1 0
BITMAP
0830
3F70
3FE0
33E0
0000
0000
0FC0
3FE0
7FF0
7870
F078
FFF8
FFF8
F000
F078
F878
7CF0
3FF0
1FC0
ENDCHAR
STARTCHAR 1EBE
ENCODING 7870
SWIDTH 600 0
DWIDTH 15 0
BBX 12 27 2 0
BITMAP
03C0
0380
0700
0E00
0000
1F00
3F80
71C0
0020
0000
FFF0
FFE0
FFE0
F000
F000
F000
F000
FFE0
FFE0
FFE0
F000
F000
F000
F000
FFE0
FFF0
FFF0
ENDCHAR
STARTCHAR 1EBF
ENCODING 7871
SWIDTH 600 0
DWIDTH 15 0
BBX 13 23 1 0
BITMAP
01E0
01C0
0380
0400
0000
0F80
0FC0
38E0
0010
0000
0FC0
3FE0
7FF0
7870
F078
FFF8
FFF8
F000
F078
F878
7CF0
3FF0
1FC0
ENDCHAR
STARTCHAR 1EC0
ENCODING 7872
SWIDTH 600 0
DWIDTH 15 0
BBX 12 27 2 0
BITMAP
3800
1C00
1C00
0E00
0000
1F00
3F80
71C0
0020
0000
FFF0
FFE0
FFE0
F000
F000
F000
F000
FFE0
FFE0
FFE0
F000
F000
F000
F000
FFE0
FFF0
FFF0
ENDCHAR
STARTCHAR 1EC1
ENCODING 7873
SWIDTH 600 0
DWIDTH 15 0
BBX 13 23 1 0
BITMAP
3C00
0E00
0600
0100
0000
0F80
0FC0
38E0
0010
0000
0FC0
3FE0
7FF0
7870
F078
FFF8
FFF8
F000
F078
F878
7CF0
3FF0
1FC0
ENDCHAR
STARTCHAR 1EC2
ENCODING 7874
SWIDTH 600 0
DWIDTH 15 0
BBX 12 28 2 0
BITMAP
0F00
0F00
0300
0700
0400
0000
1F00
3F80
71C0
0020
0000
FFF0
FFE0
FFE0
F000
F000
F000
F000
FFE0
FFE0
FFE0
F000
F000
F000
F000
FFE0
FFF0
FFF0
ENDCHAR
STARTCHAR 1EC3
ENCODING 7875
SWIDTH 600 0
DWIDTH 15 0
BBX 13 25 1 0
BITMAP
0200
0780
0580
0180
0380
0200
0000
0F80
0FC0
38E0
0010
0000
0FC0
3FE0
7FF0
7870
F078
FFF8
FFF8
F000
F078
F878
7CF0
3FF0
1FC0
ENDCHAR
STARTCHAR 1EC4
ENCODING 7876
SWIDTH 600 0
DWIDTH 15 0
BBX 12 26 2 0
BITMAP
3FC0
7FC0
6380
0000
1F00
3F80
71C0
0020
0000
FFF0
FFE0
FFE0
F000
F000
F000
F000
FFE0
FFE0
FFE0
F000
F000
F000
F000
FFE0
FFF0
FFF0
ENDCHAR
STARTCHAR 1EC5
ENCODING 7877
SWIDTH 600 0
DWIDTH 15 0
BBX 13 23 1 0
BITMAP
0420
1FE0
3FE0
3080
0000
0F80
1FC0
38E0
0010
0000
0FC0
3FE0
7FF0
7870
F078
FFF8
FFF8
F000
F078
F878
7CF0
3FF0
1FC0
ENDCHAR
STARTCHAR 1EC6
ENCODING 7878
SWIDTH 600 0
DWIDTH 15 0
BBX 12 27 2 -5
BITMAP
1F00
3B80
71C0
0000
0000
FFF0
FFE0
FFE0
F000
F000
F000
F000
FFE0
FFE0
FFE0
F000
F000
F000
F000
FFE0
FFF0
FFF0
0000
0000
0F00
0F00
0F00
ENDCHAR
STARTCHAR 1EC7
ENCODING 7879
SWIDTH 600 0
DWIDTH 15 0
BBX 13 24 1 -5
BITMAP
0780
0F80
1DC0
18E0
2010
0000
0FC0
3FE0
7FF0
7870
F078
FFF8
FFF8
F000
F078
F878
7CF0
3FF0
1FC0
0000
0000
0780
0780
0780
ENDCHAR
STARTCHAR 1EC8
ENCODING 7880
SWIDTH 600 0
DWIDTH 15 0
BBX 11 25 2 0
BITMAP
0C00
1F00
1F80
0380
0700
0600
0000
0000
FFE0
FFE0
FFE0
1F00
1F00
1F00
1F00
1F00
1F00
1F00
1F00
1F00
1F00
1F00
FFE0
FFE0
FFE0
ENDCHAR
STARTCHAR 1EC9
ENCODING 7881
SWIDTH 600 0
DWIDTH 15 0
BBX 12 20 2 0
BITMAP
0F00
0F80
0180
0180
0700
0600
0000
FF00
FF00
FF00
0F00
0F00
0F00
0F00
0F00
0F00
0F00
FFF0
FFF0
FFF0
ENDCHAR
STARTCHAR 1ECA
ENCODING 7882
SWIDTH 600 0
DWIDTH 15 0
BBX 11 22 2 -5
BITMAP
FFE0
FFE0
FFE0
1F00
1F00
1F00
1F00
1F00
1F00
1F00
1F00
1F00
1F00
1F00
FFE0
FFE0
FFE0
0000
0000
0F00
0F00
0F00
ENDCHAR
STARTCHAR 1ECB
ENCODING 7883
SWIDTH 600 0
DWIDTH 15 0
BBX 12 23 2 -5
BITMAP
0700
0700
0700
0000
0000
FF00
FF00
FF00
0F00
0F00
0F00
0F00
0F00
0F00
0F00
FFF0
FFF0
FFF0
0000
0000
0F00
0F00
0F00
ENDCHAR
STARTCHAR 1ECC
ENCODING 7884
SWIDTH 600 0
DWIDTH 15 0
BBX 15 22 0 -5
BITMAP
0FE0
3FF8
7FFC
7C3C
783C
F83E
F83E
F83E
F83E
F83E
F83E
783E
783C
7C7C
3FF8
3FF8
0FE0
0000
0000
03C0
03C0
03C0
ENDCHAR
STARTCHAR 1ECD
ENCODING 7885
SWIDTH 600 0
DWIDTH 15 0
BBX 13 18 1 -5
BITMAP
0F80
3FE0
7DF0
78F0
F078
F078
F078
F078
F078
F0F8
7DF0
3FE0
1FC0
0000
0000
0780
0780
0780
ENDCHAR
STARTCHAR 1ECE
ENCODING 7886
SWIDTH 600 0
DWIDTH 15 0
BBX 15 25 0 0
BITMAP
0300
07C0
07E0
00E0
01C0
0180
0000
0000
0FE0
3FF8
7FFC
7C3C
783C
F83E
F83E
F83E
F83E
F83E
F83E
783E
783C
7C7C
3FF8
3FF8
0FE0
ENDCHAR
STARTCHAR 1ECF
ENCODING 7887
SWIDTH 600 0
DWIDTH 15 0
BBX 13 20 1 0
BITMAP
0F80
0F80
01C0
0180
0380
0300
0000
0F80
3FE0
7DF0
78F0
F078
F078
F078
F078
F078
F0F8
7DF0
3FE0
1FC0
ENDCHAR
STARTCHAR 1ED0
ENCODING 7888
SWIDTH 600 0
DWIDTH 15 0
BBX 15 27 0 0
BITMAP
00F0
00E0
01C0
0380
0000
07C0
0FE0
1C70
0000
0000
0FE0
3FF8
7FFC
7C3C
783C
F83E
F83E
F83E
F83E
F83E
F83E
783E
783C
7C7C
3FF8
3FF8
0FE0
ENDCHAR
STARTCHAR 1ED1
ENCODING 7889
SWIDTH 600 0
DWIDTH 15 0
BBX 13 23 1 0
BITMAP
01E0
0180
0380
0400
0000
0F80
1DC0
38E0
0000
0000
0F80
3FE0
7DF0
78F0
F078
F078
F078
F078
F078
F0F8
7DF0
3FE0
1FC0
ENDCHAR
STARTCHAR 1ED2
ENCODING 7890
SWIDTH 600 0
DWIDTH 15 0
BBX 15 27 0 0
BITMAP
1E00
0E00
0700
0380
0000
07C0
0FE0
1C70
0000
0000
0FE0
3FF8
7FFC
7C3C
783C
F83E
F83E
F83E
F83E
F83E
F83E
783E
783C
7C7C
3FF8
3FF8
0FE0
ENDCHAR
STARTCHAR 1ED3
ENCODING 7891
SWIDTH 600 0
DWIDTH 15 0
BBX 13 23 1 0
BITMAP
3C00
0E00
0E00
0100
0000
0F80
1DC0
38E0
0000
0000
0F80
3FE0
7DF0
78F0
F078
F078
F078
F078
F078
F0F8
7DF0
3FE0
1FC0
ENDCHAR
STARTCHAR 1ED4
ENCODING 7892
SWIDTH 600 0
DWIDTH 15 0
BBX 15 28 0 0
BITMAP
0380
03C0
00C0
01C0
0100
0000
07C0
0FE0
1C70
0000
0000
0FE0
3FF8
7FFC
7C3C
783C
F83E
F83E
F83E
F83E
F83E
F83E
783E
783C
7C7C
3FF8
3FF8
0FE0
ENDCHAR
STARTCHAR 1ED5
ENCODING 7893
SWIDTH 600 0
DWIDTH 15 0
BBX 13 25 1 0
BITMAP
0200
0780
0980
0180
0300
0200
0000
0F80
1DC0
38E0
0000
0000
0F80
3FE0
7DF0
78F0
F078
F078
F078
F078
F078
F0F8
7DF0
3FE0
1FC0
ENDCHAR
STARTCHAR 1ED6
ENCODING 7894
SWIDTH 600 0
DWIDTH 15 0
BBX 15 26 0 0
BITMAP
0FF0
1FF0
18C0
0000
07C0
0FE0
1C70
0000
0000
0FE0
3FF8
7FFC
7C3C
783C
F83E
F83E
F83E
F83E
F83E
F83E
783E
783C
7C7C
3FF8
3FF8
0FE0
ENDCHAR
STARTCHAR 1ED7
ENCODING 7895
SWIDTH 600 0
DWIDTH 15 0
BBX 13 23 1 0
BITMAP
0820
3FE0
3FE0
2080
0000
0F80
1DC0
38E0
0000
0000
0F80
3FE0
7DF0
78F0
F078
F078
F078
F078
F078
F0F8
7DF0
3FE0
1FC0
ENDCHAR
STARTCHAR 1ED8
ENCODING 7896
SWIDTH 600 0
DWIDTH 15 0
BBX 15 27 0 -5
BITMAP
07C0
0EE0
1C70
0000
0000
0FE0
3FF8
7FFC
7C3C
783C
F83E
F83E
F83E
F83E
F83E
F83E
783E
783C
7C7C
3FF8
3FF8
0FE0
0000
0000
03C0
03C0
03C0
ENDCHAR
STARTCHAR 1ED9
ENCODING 7897
SWIDTH 600 0
DWIDTH 15 0
BBX 13 24 1 -5
BITMAP
0700
0F80
1DC0
38E0
0000
0000
0F80
3FE0
7DF0
78F0
F078
F078
F078
F078
F078
F0F8
7DF0
3FE0
1FC0
0000
0000
0780
0780
0780
ENDCHAR
STARTCHAR 1EDA
ENCODING 7898
SWIDTH 600 0
DWIDTH 15 0
BBX 16 22 0 0
BITMAP
00F0
01C0
03C7
0007
000F
0FEE
3FFC
7FFC
7C3C
783C
F83E
F83E
F83E
F83E
F83E
F83E
783E
783C
7C7C
3FF8
3FF8
0FE0
ENDCHAR
STARTCHAR 1EDB
ENCODING 7899
SWIDTH 600 0
DWIDTH 15 0
BBX 15 19 1 0
BITMAP
03C0
0380
0700
0700
000E
000E
0F9C
3FFC
7DF0
78F0
F078
F078
F078
F078
F078
F0F8
7DF0
3FE0
1FC0
ENDCHAR
STARTCHAR 1EDC
ENCODING 7900
SWIDTH 600 0
DWIDTH 15 0
BBX 16 22 0 0
BITMAP
1E00
0700
0387
0007
000F
0FEE
3FFC
7FFC
7C3C
783C
F83E
F83E
F83E
F83E
F83E
F83E
783E
783C
7C7C
3FF8
3FF8
0FE0
ENDCHAR
STARTCHAR 1EDD
ENCODING 7901
SWIDTH 600 0
DWIDTH 15 0
BBX 15 19 1 0
BITMAP
1C00
0E00
0E00
0700
000E
000E
0F9C
3FFC
7DF0
78F0
F078
F078
F078
F078
F078
F0F8
7DF0
3FE0
1FC0
ENDCHAR
STARTCHAR 1EDE
ENCODING 7902
SWIDTH 600 0
DWIDTH 15 0
BBX 16 25 0 0
BITMAP
0300
07C0
07E0
00E0
01C0
0187
0007
000F
0FEE
3FFC
7FFC
7C3C
783C
F83E
F83E
F83E
F83E
F83E
F83E
783E
783C
7C7C
3FF8
3FF8
0FE0
ENDCHAR
STARTCHAR 1EDF
ENCODING 7903
SWIDTH 600 0
DWIDTH 15 0
BBX 15 20 1 0
BITMAP
0F80
0F80
01C0
0180
0380
030E
000E
0F9C
3FFC
7DF0
78F0
F078
F078
F078
F078
F078
F0F8
7DF0
3FE0
1FC0
ENDCHAR
STARTCHAR 1EE0
ENCODING 7904
SWIDTH 600 0
DWIDTH 15 0
BBX 16 22 0 0
BITMAP
0F30
1FF0
19E7
0007
000F
0FFE
3FFC
7FFC
7C3C
783C
F83E
F83E
F83E
F83E
F83E
F83E
783E
783C
7C7C
3FF8
3FF8
0FE0
ENDCHAR
STARTCHAR 1EE1
ENCODING 7905
SWIDTH 600 0
DWIDTH 15 0
BBX 15 19 1 0
BITMAP
0860
1E60
3FE0
33CE
000E
000E
0F9C
3FF8
7DF0
78F0
F078
F078
F078
F078
F078
F0F8
7DF0
3FE0
1FC0
ENDCHAR
STARTCHAR 1EE2
ENCODING 7906
SWIDTH 600 0
DWIDTH 15 0
BBX 16 25 0 -5
BITMAP
0007
0007
000F
0FEE
3FFC
7FFC
7C3C
783C
F83E
F83E
F83E
F83E
F83E
F83E
783E
783C
7C7C
3FF8
3FF8
0FE0
0000
0000
03C0
03C0
03C0
ENDCHAR
STARTCHAR 1EE3
ENCODING 7907
SWIDTH 600 0
DWIDTH 15 0
BBX 15 20 1 -5
BITMAP
000E
000E
0F9C
3FFC
7DF0
78F0
F078
F078
F078
F078
F078
F0F8
7DF0
3FE0
1FC0
0000
0000
0780
0780
0780
ENDCHAR
STARTCHAR 1EE4
ENCODING 7908
SWIDTH 600 0
DWIDTH 15 0
BBX 13 22 1 -5
BITMAP
F078
F078
F078
F078
F078
F078
F078
F078
F078
F078
F078
F078
F078
F8F8
7FF0
7FF0
1FC0
0000
0000
0780
0780
0780
ENDCHAR
STARTCHAR 1EE5
ENCODING 7909
SWIDTH 600 0
DWIDTH 15 0
BBX 14 18 1 -5
BITMAP
F0F0
F0F0
F0F0
F0F0
F0F0
F0F0
F0F0
F0F0
F0F0
F8F0
7FF0
7FFC
3F7C
0000
0000
0F00
0F00
0F00
ENDCHAR
STARTCHAR 1EE6
ENCODING 7910
SWIDTH 600 0
DWIDTH 15 0
BBX 13 25 1 0
BITMAP
0600
0F80
0FC0
01C0
0380
0300
0000
0000
F078
F078
F078
F078
F078
F078
F078
F078
F078
F078
F078
F078
F078
F8F8
7FF0
7FF0
1FC0
ENDCHAR
STARTCHAR 1EE7
ENCODING 7911
SWIDTH 600 0
DWIDTH 15 0
BBX 14 20 1 0
BITMAP
0F00
0F80
0180
0180
0380
0200
0000
F0F0
F0F0
F0F0
F0F0
F0F0
F0F0
F0F0
F0F0
F0F0
F8F0
7FF0
7FFC
3F7C
ENDCHAR
STARTCHAR 1EE8
ENCODING 7912
SWIDTH 600 0
DWIDTH 15 0
BBX 16 22 1 0
BITMAP
01E0
038F
078F
000E
001E
F07C
F078
F078
F078
F078
F078
F078
F078
F078
F078
F078
F078
F078
F8F8
7FF0
7FF0
1FC0
ENDCHAR
STARTCHAR 1EE9
ENCODING 7913
SWIDTH 600 0
DWIDTH 15 0
BBX 15 19 1 0
BITMAP
03C0
0380
0700
070E
080E
001C
F0FC
F0F0
F0F0
F0F0
F0F0
F0F0
F0F0
F0F0
F0F0
F8F0
7FF0
7FFC
3F7C
ENDCHAR
STARTCHAR 1EEA
ENCODING 7914
SWIDTH 600 0
DWIDTH 15 0
BBX 16 22 1 0
BITMAP
3C00
0E0F
070F
000E
001E
F07C
F078
F078
F078
F078
F078
F078
F078
F078
F078
F078
F078
F078
F8F8
7FF0
7FF0
1FC0
ENDCHAR
STARTCHAR 1EEB
ENCODING 7915
SWIDTH 600 0
DWIDTH 15 0
BBX 15 19 1 0
BITMAP
1C00
0E00
0E00
070E
000E
001C
F0FC
F0F0
F0F0
F0F0
F0F0
F0F0
F0F0
F0F0
F0F0
F8F0
7FF0
7FFC
3F7C
ENDCHAR
STARTCHAR 1EEC
ENCODING 7916
SWIDTH 600 0
DWIDTH 15 0
BBX 16 25 1 0
BITMAP
0600
0F80
0FC0
01C0
038F
030F
000E
001E
F07C
F078
F078
F078
F078
F078
F078
F078
F078
F078
F078
F078
F078
F8F8
7FF0
7FF0
1FC0
ENDCHAR
STARTCHAR 1EED
ENCODING 7917
SWIDTH 600 0
DWIDTH 15 0
BBX 15 20 1 0
BITMAP
0F00
0F80
0180
0180
038E
020E
001C
F0FC
F0F0
F0F0
F0F0
F0F0
F0F0
F0F0
F0F0
F0F0
F8F0
7FF0
7FFC
3F7C
ENDCHAR
STARTCHAR 1EEE
ENCODING 7918
SWIDTH 600 0
DWIDTH 15 0
BBX 16 22 1 0
BITMAP
1E60
3FEF
33CF
000E
001E
F07C
F078
F078
F078
F078
F078
F078
F078
F078
F078
F078
F078
F078
F8F8
7FF0
7FF0
1FC0
ENDCHAR
STARTCHAR 1EEF
ENCODING 7919
SWIDTH 600 0
DWIDTH 15 0
BBX 15 19 1 0
BITMAP
0860
1E60
3FC0
33CE
000E
001C
F0FC
F0F0
F0F0
F0F0
F0F0
F0F0
F0F0
F0F0
F0F0
F8F0
7FF0
7FFC
3F7C
ENDCHAR
STARTCHAR 1EF0
ENCODING 7920
SWIDTH 600 0
DWIDTH 15 0
BBX 16 26 1 -5
BITMAP
000F
000F
000E
001E
F07C
F078
F078
F078
F078
F078
F078
F078
F078
F078
F078
F078
F078
F8F8
7FF0
7FF0
1FC0
0000
0000
0780
0780
0780
ENDCHAR
STARTCHAR 1EF1
ENCODING 7921
SWIDTH 600 0
DWIDTH 15 0
BBX 15 21 1 -5
BITMAP
000E
000E
001C
F0FC
F0F0
F0F0
F0F0
F0F0
F0F0
F0F0
F0F0
F0F0
F8F0
7FF0
7FFC
3F7C
0000
0000
0F00
0F00
0F00
ENDCHAR
STARTCHAR 1EF2
ENCODING 7922
SWIDTH 600 0
DWIDTH 15 0
BBX 15 22 0 0
BITMAP
1E00
0700
0380
0000
0000
F83E
783C
7C7C
3C78
3E78
1EF0
1FF0
0FE0
0FE0
07C0
07C0
07C0
07C0
07C0
07C0
07C0
07C0
ENDCHAR
STARTCHAR 1EF3
ENCODING 7923
SWIDTH 600 0
DWIDTH 15 0
BBX 13 24 1 -5
BITMAP
1E00
0E00
0700
0700
0080
0000
F078
F078
7870
78F0
78F0
3CE0
3DE0
1FC0
1FC0
1FC0
0F80
0F80
0780
0F00
0F00
7E00
7C00
7000
ENDCHAR
STARTCHAR 1EF4
ENCODING 7924
SWIDTH 600 0
DWIDTH 15 0
BBX 15 22 0 -5
BITMAP
F83E
783C
7C7C
3C78
3E78
1EF0
1FF0
0FE0
0FE0
07C0
07C0
07C0
07C0
07C0
07C0
07C0
07C0
0000
0000
03C0
03C0
03C0
ENDCHAR
STARTCHAR 1EF5
ENCODING 7925
SWIDTH 600 0
DWIDTH 15 0
BBX 13 18 1 -5
BITMAP
F078
F078
7870
78F0
78F0
3CE0
3DE0
1FC0
1FC0
1FC0
0F80
0F80
0780
0F00
0F00
7E78
7C78
7078
ENDCHAR
STARTCHAR 1EF6
ENCODING 7926
SWIDTH 600 0
DWIDTH 15 0
BBX 15 25 0 0
BITMAP
0300
07C0
07E0
00E0
01C0
0180
0000
0000
F83E
783C
7C7C
3C78
3E78
1EF0
1FF0
0FE0
0FE0
07C0
07C0
07C0
07C0
07C0
07C0
07C0
07C0
ENDCHAR
STARTCHAR 1EF7
ENCODING 7927
SWIDTH 600 0
DWIDTH 15 0
BBX 13 25 1 -5
BITMAP
0780
07C0
01C0
01C0
0380
0300
0000
F078
F078
7870
78F0
78F0
3CE0
3DE0
1FC0
1FC0
1FC0
0F80
0F80
0780
0F00
0F00
7E00
7C00
7000
ENDCHAR
STARTCHAR 1EF8
ENCODING 7928
SWIDTH 600 0
DWIDTH 15 0
BBX 15 22 0 0
BITMAP
0F30
1FF0
19E0
0000
0000
F83E
783C
7C7C
3C78
3E78
1EF0
1FF0
0FE0
0FE0
07C0
07C0
07C0
07C0
07C0
07C0
07C0
07C0
ENDCHAR
STARTCHAR 1EF9
ENCODING 7929
SWIDTH 600 0
DWIDTH 15 0
BBX 13 24 1 -5
BITMAP
0830
1F70
3FE0
33E0
0000
0000
F078
F078
7870
78F0
78F0
3CE0
3DE0
1FC0
1FC0
1FC0
0F80
0F80
0780
0F00
0F00
7E00
7C00
7000
ENDCHAR
STARTCHAR 2009
ENCODING 8201
SWIDTH 600 0
DWIDTH 15 0
BBX 0 0 0 0
BITMAP
ENDCHAR
STARTCHAR 2010
ENCODING 8208
SWIDTH 600 0
DWIDTH 15 0
BBX 7 3 4 5
BITMAP
FE
FE
FE
ENDCHAR
STARTCHAR 2011
ENCODING 8209
SWIDTH 600 0
DWIDTH 15 0
BBX 7 3 4 5
BITMAP
FE
FE
FE
ENDCHAR
STARTCHAR 2013
ENCODING 8211
SWIDTH 600 0
DWIDTH 15 0
BBX 11 3 2 5
BITMAP
FFE0
FFE0
FFE0
ENDCHAR
STARTCHAR 2014
ENCODING 8212
SWIDTH 600 0
DWIDTH 15 0
BBX 15 3 0 5
BITMAP
FFFE
FFFE
FFFE
ENDCHAR
STARTCHAR 2018
ENCODING 8216
SWIDTH 600 0
DWIDTH 15 0
BBX 5 9 5 9
BITMAP
38
30
60
60
60
F8
F8
F8
F8
ENDCHAR
STARTCHAR 2019
ENCODING 8217
SWIDTH 600 0
DWIDTH 15 0
BBX 5 9 5 8
BITMAP
F8
F8
F8
F8
30
30
30
60
E0
ENDCHAR
STARTCHAR 201A
ENCODING 8218
SWIDTH 600 0
DWIDTH 15 0
BBX 5 9 5 -5
BITMAP
F8
F8
F8
F8
30
30
30
60
E0
ENDCHAR
STARTCHAR 201C
ENCODING 8220
SWIDTH 600 0
DWIDTH 15 0
BBX 9 9 3 9
BITMAP
7180
6380
C300
C300
C700
F780
F780
F780
F780
ENDCHAR
STARTCHAR 201D
ENCODING 8221
SWIDTH 600 0
DWIDTH 15 0
BBX 9 9 3 8
BITMAP
F780
F780
F780
F780
7180
6180
6180
E300
C700
ENDCHAR
STARTCHAR 201E
ENCODING 8222
SWIDTH 600 0
DWIDTH 15 0
BBX 9 9 3 -5
BITMAP
F780
F780
F780
F780
7180
6180
6180
E300
C700
ENDCHAR
STARTCHAR 2020
ENCODING 8224
SWIDTH 600 0
DWIDTH 15 0
BBX 13 21 1 -4
BITMAP
0700
0700
0700
0700
E738
FFF8
FFF8
0700
0700
0700
0700
0700
0700
0700
0700
0700
0700
0700
0700
0700
0700
ENDCHAR
STARTCHAR 2021
ENCODING 8225
SWIDTH 600 0
DWIDTH 15 0
BBX 13 21 1 -4
BITMAP
0700
0700
0700
0700
E738
FFF8
FFF8
0700
0700
0700
0700
0700
0700
0700
FFF8
FFF8
FFF8
0700
0700
0700
0700
ENDCHAR
STARTCHAR 2022
ENCODING 8226
SWIDTH 600 0
DWIDTH 15 0
BBX 9 9 3 4
BITMAP
1C00
3E00
7F00
FF00
FF80
7F00
7F00
3E00
0800
ENDCHAR
STARTCHAR 2026
ENCODING 8230
SWIDTH 600 0
DWIDTH 15 0
BBX 13 4 1 0
BITMAP
E738
E738
E738
E738
ENDCHAR
STARTCHAR 2030
ENCODING 8240
SWIDTH 600 0
DWIDTH 15 0
BBX 15 17 0 0
BITMAP
3C00
7E00
6600
6600
6600
7600
3C00
0000
FFFE
0000
3EF8
66CC
66CC
66CC
66CC
7EFC
3C78
ENDCHAR
STARTCHAR 2032
ENCODING 8242
SWIDTH 600 0
DWIDTH 15 0
BBX 5 4 5 13
BITMAP
78
70
70
E0
ENDCHAR
STARTCHAR 2033
ENCODING 8243
SWIDTH 600 0
DWIDTH 15 0
BBX 9 4 3 13
BITMAP
7780
7700
E700
E600
ENDCHAR
STARTCHAR 2039
ENCODING 8249
SWIDTH 600 0
DWIDTH 15 0
BBX 5 9 5 4
BITMAP
38
38
70
F0
E0
F0
70
38
38
ENDCHAR
STARTCHAR 203A
ENCODING 8250
SWIDTH 600 0
DWIDTH 15 0
BBX 5 9 5 4
BITMAP
E0
E0
70
78
38
78
70
E0
E0
ENDCHAR
STARTCHAR 2044
ENCODING 8260
SWIDTH 600 0
DWIDTH 15 0
BBX 15 17 0 0
BITMAP
000E
000C
0018
0030
0060
0060
00C0
0000
0000
0000
0600
0C00
1C00
1800
3000
6000
E000
ENDCHAR
STARTCHAR 2052
ENCODING 8274
SWIDTH 600 0
DWIDTH 15 0
BBX 15 22 0 -4
BITMAP
000E
001C
781C
7838
7838
7870
0060
00E0
00C0
01C0
0380
0380
0700
0700
0E00
0C00
1C00
183C
383C
703C
7000
E000
ENDCHAR
STARTCHAR 2070
ENCODING 8304
SWIDTH 600 0
DWIDTH 15 0
BBX 7 10 4 10
BITMAP
7C
7C
C6
C6
C6
C6
C6
C6
7C
10
ENDCHAR
STARTCHAR 2074
ENCODING 8308
SWIDTH 600 0
DWIDTH 15 0
BBX 8 9 3 11
BITMAP
18
34
34
6C
6C
CC
FF
0C
0C
ENDCHAR
STARTCHAR 2075
ENCODING 8309
SWIDTH 600 0
DWIDTH 15 0
BBX 7 10 4 10
BITMAP
FC
FC
C0
D8
FE
4E
06
CE
FC
38
ENDCHAR
STARTCHAR 2076
ENCODING 8310
SWIDTH 600 0
DWIDTH 15 0
BBX 7 10 4 10
BITMAP
78
FC
C6
C0
FC
CE
C6
CE
FC
30
ENDCHAR
STARTCHAR 2077
ENCODING 8311
SWIDTH 600 0
DWIDTH 15 0
BBX 7 9 4 11
BITMAP
FE
FE
0C
08
18
30
30
30
70
ENDCHAR
STARTCHAR 2078
ENCODING 8312
SWIDTH 600 0
DWIDTH 15 0
BBX 7 10 4 10
BITMAP
7C
FE
C6
C6
7C
EE
C6
C6
FE
38
ENDCHAR
STARTCHAR 2079
ENCODING 8313
SWIDTH 600 0
DWIDTH 15 0
BBX 8 10 3 10
BITMAP
3C
7E
67
E7
7F
3F
07
67
7E
18
ENDCHAR
STARTCHAR 207F
ENCODING 8319
SWIDTH 600 0
DWIDTH 15 0
BBX 7 7 4 10
BITMAP
FE
EE
C6
C6
C6
C6
C6
ENDCHAR
STARTCHAR 2080
ENCODING 8320
SWIDTH 600 0
DWIDTH 15 0
BBX 7 10 4 -5
BITMAP
7C
7C
C6
C6
C6
C6
C6
C6
7C
10
ENDCHAR
STARTCHAR 2081
ENCODING 8321
SWIDTH 600 0
DWIDTH 15 0
BBX 6 9 4 -4
BITMAP
18
F8
F8
38
38
38
38
38
FC
ENDCHAR
STARTCHAR 2082
ENCODING 8322
SWIDTH 600 0
DWIDTH 15 0
BBX 7 9 4 -4
BITMAP
7C
FE
C6
0E
0C
3C
70
E0
FE
ENDCHAR
STARTCHAR 2083
ENCODING 8323
SWIDTH 600 0
DWIDTH 15 0
BBX 7 10 4 -5
BITMAP
7C
FE
C6
0E
3C
0E
06
C6
FE
38
ENDCHAR
STARTCHAR 2084
ENCODING 8324
SWIDTH 600 0
DWIDTH 15 0
BBX 8 9 3 -4
BITMAP
18
34
34
6C
6C
CC
FF
0C
0C
ENDCHAR
STARTCHAR 2085
ENCODING 8325
SWIDTH 600 0
DWIDTH 15 0
BBX 7 10 4 -5
BITMAP
FC
FC
C0
D8
FE
4E
06
CE
FC
38
ENDCHAR
STARTCHAR 2086
ENCODING 8326
SWIDTH 600 0
DWIDTH 15 0
BBX 7 10 4 -5
BITMAP
78
FC
C6
C0
FC
CE
C6
CE
FC
30
ENDCHAR
STARTCHAR 2087
ENCODING 8327
SWIDTH 600 0
DWIDTH 15 0
BBX 7 9 4 -4
BITMAP
FE
FE
0C
08
18
30
30
30
70
ENDCHAR
STARTCHAR 2088
ENCODING 8328
SWIDTH 600 0
DWIDTH 15 0
BBX 7 10 4 -5
BITMAP
7C
FE
C6
C6
7C
EE
C6
C6
FE
38
ENDCHAR
STARTCHAR 2089
ENCODING 8329
SWIDTH 600 0
DWIDTH 15 0
BBX 8 10 3 -5
BITMAP
3C
7E
67
E7
7F
3F
07
67
7E
18
ENDCHAR
STARTCHAR 2099
ENCODING 8345
SWIDTH 600 0
DWIDTH 15 0
BBX 7 7 4 -2
BITMAP
FE
EE
C6
C6
C6
C6
C6
ENDCHAR
STARTCHAR 20A1
ENCODING 8353
SWIDTH 600 0
DWIDTH 15 0
BBX 14 21 1 -2
BITMAP
006C
00CC
07F8
1FF8
3FF8
7FB0
79B0
FB30
F360
F360
F6C0
F6C0
FCC0
FD80
7D80
7F90
3FE0
1FE0
37E0
3600
1200
ENDCHAR
STARTCHAR 20A3
ENCODING 8355
SWIDTH 600 0
DWIDTH 15 0
BBX 14 17 0 0
BITMAP
3FFC
3FF8
3FF8
3C00
3C00
3C00
3C00
3FF0
3FF0
3FF0
3C00
3C00
FFC0
FFC0
FFC0
3C00
3C00
ENDCHAR
STARTCHAR 20A4
ENCODING 8356
SWIDTH 600 0
DWIDTH 15 0
BBX 13 18 1 0
BITMAP
0100
0FE0
1FF0
3FF8
3C78
3C38
3C00
FF80
FF80
FF80
3800
FF80
FF80
3800
3800
FFF0
FFF0
FFF0
ENDCHAR
STARTCHAR 20A6
ENCODING 8358
SWIDTH 600 0
DWIDTH 15 0
BBX 15 17 0 0
BITMAP
7C3C
7C3C
7E3C
7E3C
7E3C
FFFE
FFFE
7FBC
7BBC
7BFC
FFFE
FFFE
FFFE
78FC
787C
787C
783C
ENDCHAR
STARTCHAR 20A7
ENCODING 8359
SWIDTH 600 0
DWIDTH 15 0
BBX 16 17 0 0
BITMAP
7FF0
7FF8
7FFC
7C3C
FFFF
FFFF
FFFF
7C3C
7FFC
7FF8
7FE0
7C00
7C00
7C00
7C00
7C00
7C00
ENDCHAR
STARTCHAR 20A9
ENCODING 8361
SWIDTH 600 0
DWIDTH 15 0
BBX 15 17 0 0
BITMAP
F38E
F38E
F38E
F3DE
73DC
FFFE
FFFE
FFFE
7EDC
7EDC
FFFE
FFFE
FFFE
3EF8
3C78
3C78
3C78
ENDCHAR
STARTCHAR 20AB
ENCODING 8363
SWIDTH 600 0
DWIDTH 15 0
BBX 14 22 1 -4
BITMAP
00F0
0FFC
0FFC
0FFC
00F0
1EF0
3FF0
7FF0
F0F0
F0F0
F0F0
F0F0
F0F0
F0F0
F0F0
79F0
7FF0
1F70
0000
0000
7FF0
7FF0
ENDCHAR
STARTCHAR 20AC
ENCODING 8364
SWIDTH 600 0
DWIDTH 15 0
BBX 13 17 1 0
BITMAP
03F8
0FF8
0FF8
1F00
3E00
3C00
FFC0
FFC0
3C00
FFC0
FFC0
3C00
3E00
1F88
0FF8
07F8
03F8
ENDCHAR
STARTCHAR 20AD
ENCODING 8365
SWIDTH 600 0
DWIDTH 15 0
BBX 15 17 0 0
BITMAP
783E
787C
7878
78F8
78F0
79E0
79E0
FFFC
FFFC
7BE0
79E0
79F0
78F0
78F8
7878
787C
783E
ENDCHAR
STARTCHAR 20B1
ENCODING 8369
SWIDTH 600 0
DWIDTH 15 0
BBX 16 17 0 0
BITMAP
7FF0
7FF8
7FFC
FC3F
FC3F
7C3E
FC3F
FC3F
7FFC
7FF8
7FE0
7C00
7C00
7C00
7C00
7C00
7C00
ENDCHAR
STARTCHAR 20B2
ENCODING 8370
SWIDTH 600 0
DWIDTH 15 0
BBX 14 21 0 -2
BITMAP
0380
0380
1FE0
3FF8
7FF8
7BBC
7BBC
F39C
F380
F380
F3FC
F3FC
F39C
739C
7BBC
7FBC
3FFC
3FEC
0FCC
0380
0380
ENDCHAR
STARTCHAR 20B5
ENCODING 8373
SWIDTH 600 0
DWIDTH 15 0
BBX 14 21 0 -2
BITMAP
0060
00C0
0FE0
3FF8
7FF8
79FC
79BC
F9BC
F9BC
F900
FB00
FB00
FB3C
7A3C
7E3C
7E7C
3FF8
3FF0
0FE0
0C00
0400
ENDCHAR
STARTCHAR 20B9
ENCODING 8377
SWIDTH 600 0
DWIDTH 15 0
BBX 14 17 1 0
BITMAP
FFFC
FFFC
FFC0
03E0
FFF8
FFF8
03E0
07C0
FFC0
FF80
F800
7C00
3E00
1F00
0F80
0F80
07E0
ENDCHAR
STARTCHAR 20BA
ENCODING 8378
SWIDTH 600 0
DWIDTH 15 0
BBX 13 17 1 0
BITMAP
7800
7800
7900
7F00
7F00
7C00
F900
FF00
FF00
7E00
F878
F878
F878
F8F8
7FF0
7FE0
7FC0
ENDCHAR
STARTCHAR 20BC
ENCODING 8380
SWIDTH 600 0
DWIDTH 15 0
BBX 15 19 0 0
BITMAP
0380
0380
1FF0
3FF8
7FFC
7BBC
F39E
F39E
F39E
F39E
F39E
F39E
F39E
F39E
F39E
F39E
F39E
F01E
F01E
ENDCHAR
STARTCHAR 20BD
ENCODING 8381
SWIDTH 600 0
DWIDTH 15 0
BBX 15 17 0 0
BITMAP
7FF0
7FF8
7FFC
7C3C
7C3E
7C3E
7C3C
FFFC
FFF8
FFF0
7C00
7C00
FF80
FF80
FF80
7C00
7C00
ENDCHAR
STARTCHAR 2113
ENCODING 8467
SWIDTH 600 0
DWIDTH 15 0
BBX 12 18 1 0
BITMAP
0100
0FC0
1FE0
3E60
3C70
3C70
3C70
3C70
3C60
3CE0
FFC0
FF80
3C00
3C00
3C00
3E40
3FC0
1FC0
ENDCHAR
STARTCHAR 2116
ENCODING 8470
SWIDTH 600 0
DWIDTH 15 0
BBX 13 17 1 0
BITMAP
E700
E700
E700
F700
F700
F730
F778
F7C8
FFC8
FFC8
FFC8
FFC8
EFD8
EF78
EF00
EFF8
EFF8
ENDCHAR
STARTCHAR 2117
ENCODING 8471
SWIDTH 600 0
DWIDTH 15 0
BBX 15 17 0 0
BITMAP
0FE0
1830
3018
6FCC
4FE4
CE76
CE36
CE76
CFF6
CFC6
CE06
CE04
4E04
6E0C
3018
1830
0FE0
ENDCHAR
STARTCHAR 2122
ENCODING 8482
SWIDTH 600 0
DWIDTH 15 0
BBX 15 10 0 7
BITMAP
FF9E
FF9E
33DE
33DE
33D6
33D6
33D6
3376
3376
3376
ENDCHAR
STARTCHAR 2126
ENCODING 8486
SWIDTH 600 0
DWIDTH 15 0
BBX 15 17 0 0
BITMAP
0FE0
3FF8
7FFC
783C
783C
F83E
F83E
F83E
F83E
F83E
783E
783C
783C
3838
F83E
FEFE
FEFE
ENDCHAR
STARTCHAR 212E
ENCODING 8494
SWIDTH 600 0
DWIDTH 15 0
BBX 15 17 0 0
BITMAP
0FE0
3FF0
3838
783C
783C
F83E
F83E
FFFE
FFFE
F800
F800
F800
7800
7808
381C
1FF8
0FE0
ENDCHAR
STARTCHAR 2202
ENCODING 8706
SWIDTH 600 0
DWIDTH 15 0
BBX 13 17 1 0
BITMAP
1FC0
1FE0
1FF0
00F0
0078
0078
1E78
7FF8
7FF8
F0F8
F078
F078
F078
F0F0
7FF0
7FE0
1FC0
ENDCHAR
STARTCHAR 2205
ENCODING 8709
SWIDTH 600 0
DWIDTH 15 0
BBX 13 13 1 2
BITMAP
0710
1FF8
3FF0
70F0
61F0
E3B8
E738
EE38
7C30
7870
7FE0
FFC0
4700
ENDCHAR
STARTCHAR 2206
ENCODING 8710
SWIDTH 600 0
DWIDTH 15 0
BBX 13 17 1 0
BITMAP
0F80
1FC0
1FC0
1FC0
1DC0
3DE0
3DE0
39E0
78F0
78F0
78F0
70F0
F078
F078
FFF8
FFF8
FFF8
ENDCHAR
STARTCHAR 220F
ENCODING 8719
SWIDTH 600 0
DWIDTH 15 0
BBX 15 20 0 -2
BITMAP
FFFE
FFFE
FFFE
FFFE
3C78
3C78
3C78
3C78
3C78
3C78
3C78
3C78
3C78
3C78
3C78
3C78
3C78
3C78
3C78
3C78
ENDCHAR
STARTCHAR 2211
ENCODING 8721
SWIDTH 600 0
DWIDTH 15 0
BBX 14 20 1 -2
BITMAP
FFF8
FFF8
FFF8
7C00
7C00
3E00
1F00
0F80
07C0
07E0
03C0
0780
0F80
1F00
1E00
3C00
7800
FFFC
FFFC
FFFC
ENDCHAR
STARTCHAR 2212
ENCODING 8722
SWIDTH 600 0
DWIDTH 15 0
BBX 13 4 1 5
BITMAP
FFF8
FFF8
FFF8
FFF8
ENDCHAR
STARTCHAR 2215
ENCODING 8725
SWIDTH 600 0
DWIDTH 15 0
BBX 13 17 1 0
BITMAP
0038
0030
0060
0040
00C0
0180
0180
0300
0600
0600
0C00
0C00
1800
3000
3000
6000
E000
ENDCHAR
STARTCHAR 2219
ENCODING 8729
SWIDTH 600 0
DWIDTH 15 0
BBX 3 4 6 5
BITMAP
E0
E0
E0
E0
ENDCHAR
STARTCHAR 221A
ENCODING 8730
SWIDTH 600 0
DWIDTH 15 0
BBX 15 25 0 -4
BITMAP
000E
000E
001C
001C
001C
001C
001C
0038
0038
0038
0038
0C38
7C70
FC70
5E70
1E70
1E60
0E60
0FE0
0FE0
07E0
07C0
07C0
07C0
03C0
ENDCHAR
STARTCHAR 221E
ENCODING 8734
SWIDTH 600 0
DWIDTH 15 0
BBX 15 9 0 3
BITMAP
0810
3C7C
6EEC
E38E
C386
C386
63CC
7EFC
3C78
ENDCHAR
STARTCHAR 222B
ENCODING 8747
SWIDTH 600 0
DWIDTH 15 0
BBX 7 25 4 -6
BITMAP
0E
3E
38
38
38
38
38
38
38
38
38
38
38
38
38
38
38
38
38
38
38
38
38
38
F0
ENDCHAR
STARTCHAR 2248
ENCODING 8776
SWIDTH 600 0
DWIDTH 15 0
BBX 15 11 0 1
BITMAP
0002
3F06
7FFE
F7FC
80F8
0000
1E02
7F8E
FFFE
C1F8
8000
ENDCHAR
STARTCHAR 2260
ENCODING 8800
SWIDTH 600 0
DWIDTH 15 0
BBX 13 13 1 0
BITMAP
0070
0060
00E0
FFF8
FFF8
0380
0700
0600
FFF8
FFF8
FFF8
3000
7000
ENDCHAR
STARTCHAR 2264
ENCODING 8804
SWIDTH 600 0
DWIDTH 15 0
BBX 13 13 1 0
BITMAP
0018
01F8
1FF8
FFC0
F800
FC00
FFE0
0FF8
00F8
0018
FFF8
FFF8
FFF8
ENDCHAR
STARTCHAR 2265
ENCODING 8805
SWIDTH 600 0
DWIDTH 15 0
BBX 13 13 1 0
BITMAP
C000
FC00
FFC0
1FF8
00F8
01F8
3FF8
FF80
F800
8000
FFF8
FFF8
FFF8
ENDCHAR
STARTCHAR 25CA
ENCODING 9674
SWIDTH 600 0
DWIDTH 15 0
BBX 11 17 2 0
BITMAP
0E00
1F00
1B00
3B80
3980
71C0
70C0
E0E0
E0E0
E0E0
71C0
71C0
3B80
3B80
1F00
1F00
0E00
ENDCHAR
STARTCHAR 27E8
ENCODING 10216
SWIDTH 600 0
DWIDTH 15 0
BBX 7 16 4 -1
BITMAP
06
0C
1C
18
30
70
60
C0
E0
60
30
30
18
0C
0C
06
ENDCHAR
STARTCHAR 27E9
ENCODING 10217
SWIDTH 600 0
DWIDTH 15 0
BBX 7 16 4 -1
BITMAP
C0
60
70
30
18
1C
0C
06
0E
0C
18
38
30
60
60
C0
ENDCHAR
STARTCHAR FB01
ENCODING 64257
SWIDTH 600 0
DWIDTH 15 0
BBX 13 19 0 0
BITMAP
0078
1F78
3F78
3D78
3C00
3C00
FFF8
FFF8
FFF8
3C78
3C78
3C78
3C78
3C78
3C78
3C78
3C78
3C78
3C78
ENDCHAR
STARTCHAR FB02
ENCODING 64258
SWIDTH 600 0
DWIDTH 15 0
BBX 13 18 0 0
BITMAP
1F78
3F78
3D78
3C78
3C78
FF78
FF78
FF78
3C78
3C78
3C78
3C78
3C78
3C78
3C78
3C78
3C78
3C78
ENDCHAR
STARTCHAR FEFF
ENCODING 65279
SWIDTH 0 0
DWIDTH 0 0
BBX 0 0 0 0
BITMAP
ENDCHAR
ENDFONT
